<svg id="svg" version="1.1" xmlns="http://www.w3.org/2000/svg" xmlns:xlink="http://www.w3.org/1999/xlink" width="400" height="400" viewBox="0, 0, 400,400"><g id="svgg"><path id="path0" d="M84.573 62.763 C 84.482 62.853,84.607 63.168,84.852 63.463 C 85.180 63.858,85.179 64.000,84.848 64.000 C 84.516 64.000,84.425 99.721,84.499 200.673 L 84.600 337.346 88.500 337.392 L 92.400 337.439 92.400 268.396 L 92.400 199.353 93.971 199.434 C 95.271 199.500,95.503 199.400,95.317 198.857 C 95.156 198.387,95.275 198.428,95.733 199.000 C 96.307 199.716,96.376 199.727,96.387 199.100 C 96.395 198.663,96.711 198.400,97.229 198.400 C 97.991 198.400,99.671 197.208,98.929 197.194 C 98.018 197.177,99.961 196.411,100.929 196.406 C 101.549 196.403,102.337 196.120,102.680 195.777 C 103.023 195.434,103.550 195.249,103.852 195.364 C 104.163 195.484,104.400 195.321,104.400 194.987 C 104.400 194.628,104.787 194.400,105.400 194.400 C 105.950 194.400,106.400 194.220,106.400 194.000 C 106.400 193.780,106.681 193.600,107.024 193.600 C 107.416 193.600,107.536 193.415,107.347 193.100 C 107.172 192.809,107.361 192.851,107.798 193.200 C 108.480 193.744,108.525 193.735,108.287 193.100 C 108.065 192.507,108.267 192.400,109.613 192.400 C 110.486 192.400,111.200 192.220,111.200 192.000 C 111.200 191.780,111.740 191.600,112.400 191.600 C 113.200 191.600,113.600 191.400,113.600 191.000 C 113.600 190.581,114.022 190.400,115.000 190.400 C 115.770 190.400,116.400 190.220,116.400 190.000 C 116.400 189.780,117.021 189.600,117.780 189.600 C 118.638 189.600,119.298 189.354,119.524 188.950 C 119.724 188.593,120.366 188.300,120.951 188.300 C 121.536 188.300,122.112 188.143,122.231 187.950 C 122.350 187.758,123.252 187.600,124.236 187.600 C 125.457 187.600,126.098 187.410,126.255 187.000 C 126.405 186.611,127.025 186.400,128.019 186.400 C 128.863 186.400,129.664 186.220,129.800 186.000 C 129.936 185.780,130.262 185.603,130.524 185.606 C 130.810 185.610,130.761 185.767,130.400 186.000 C 129.905 186.320,129.944 186.389,130.620 186.394 C 131.071 186.397,131.655 186.185,131.917 185.923 C 132.189 185.651,133.230 185.491,134.341 185.550 C 135.704 185.622,136.482 185.461,136.931 185.012 C 137.936 184.007,156.415 184.078,158.315 185.095 C 159.471 185.713,159.676 185.725,160.009 185.199 C 160.217 184.870,160.391 184.802,160.394 185.049 C 160.397 185.310,161.172 185.514,162.242 185.536 C 163.256 185.556,164.317 185.765,164.600 186.000 C 164.884 186.236,165.270 186.400,165.458 186.367 C 166.760 186.133,168.787 186.466,168.700 186.900 C 168.635 187.226,169.126 187.410,170.108 187.428 C 170.938 187.444,171.829 187.669,172.088 187.928 C 172.348 188.188,172.955 188.400,173.437 188.400 C 173.920 188.400,174.418 188.670,174.545 189.000 C 174.689 189.377,175.301 189.600,176.187 189.600 C 176.964 189.600,177.600 189.780,177.600 190.000 C 177.600 190.220,178.028 190.400,178.551 190.400 C 179.074 190.400,179.741 190.688,180.032 191.039 C 180.406 191.489,180.959 191.614,181.902 191.461 C 182.854 191.306,183.306 191.411,183.464 191.822 C 183.586 192.140,184.116 192.400,184.643 192.400 C 185.248 192.400,185.600 192.632,185.600 193.031 C 185.600 193.512,185.954 193.635,187.100 193.550 C 188.102 193.476,188.567 193.599,188.500 193.920 C 188.445 194.184,188.670 194.400,189.000 194.400 C 189.330 194.400,189.600 194.670,189.600 195.000 C 189.600 195.373,189.978 195.600,190.600 195.600 C 191.150 195.600,191.600 195.780,191.600 196.000 C 191.600 196.220,192.050 196.400,192.600 196.400 C 193.222 196.400,193.600 196.627,193.600 197.000 C 193.600 197.368,193.974 197.600,194.567 197.600 C 195.098 197.600,195.593 197.774,195.667 197.987 C 195.740 198.200,196.373 198.418,197.072 198.470 C 197.772 198.523,198.249 198.721,198.132 198.910 C 198.015 199.099,198.298 199.353,198.760 199.474 C 199.222 199.594,199.600 199.852,199.600 200.047 C 199.600 200.241,200.050 200.400,200.600 200.400 C 201.222 200.400,201.600 200.627,201.600 201.000 C 201.600 201.357,201.967 201.600,202.505 201.600 C 203.004 201.600,203.747 202.049,204.161 202.600 C 204.574 203.150,205.247 203.600,205.656 203.600 C 206.065 203.600,206.400 203.780,206.400 204.000 C 206.400 204.220,206.651 204.400,206.957 204.400 C 207.264 204.400,207.622 204.681,207.754 205.025 C 207.886 205.369,208.161 205.548,208.365 205.422 C 208.569 205.296,209.007 205.464,209.339 205.796 C 209.671 206.128,210.316 206.400,210.771 206.400 C 211.227 206.400,211.600 206.605,211.600 206.856 C 211.600 207.464,212.832 208.371,213.680 208.387 C 214.054 208.394,214.526 208.697,214.730 209.060 C 214.974 209.497,215.397 209.642,215.981 209.489 C 216.636 209.318,216.807 209.405,216.644 209.829 C 216.518 210.158,216.665 210.400,216.993 210.400 C 217.305 210.400,217.717 210.680,217.909 211.023 C 218.142 211.439,218.647 211.589,219.429 211.475 C 220.336 211.342,220.848 211.568,221.699 212.476 C 222.304 213.121,222.979 213.537,223.199 213.400 C 223.420 213.264,223.600 213.433,223.600 213.776 C 223.600 214.222,223.999 214.400,225.000 214.400 C 225.978 214.400,226.400 214.581,226.400 215.000 C 226.400 215.339,226.758 215.600,227.224 215.600 C 227.677 215.600,227.936 215.780,227.800 216.000 C 227.656 216.233,228.063 216.400,228.776 216.400 C 229.530 216.400,229.962 216.588,229.900 216.891 C 229.845 217.160,230.205 217.443,230.700 217.518 C 231.195 217.594,231.600 217.823,231.600 218.028 C 231.600 218.233,231.793 218.400,232.029 218.400 C 232.264 218.400,232.727 218.670,233.057 219.000 C 233.387 219.330,234.094 219.600,234.629 219.600 C 235.163 219.600,235.600 219.741,235.600 219.913 C 235.600 220.085,236.081 220.265,236.670 220.314 C 237.258 220.363,238.063 220.695,238.457 221.051 C 238.851 221.408,239.526 221.608,239.957 221.495 C 240.451 221.366,240.674 221.463,240.561 221.757 C 240.456 222.031,240.831 222.261,241.469 222.314 C 242.066 222.363,242.680 222.606,242.832 222.852 C 242.985 223.099,243.805 223.377,244.655 223.470 C 245.505 223.564,246.371 223.811,246.580 224.020 C 246.789 224.229,247.545 224.400,248.260 224.400 C 249.052 224.400,249.705 224.658,249.930 225.060 C 250.198 225.540,250.623 225.655,251.483 225.483 C 252.185 225.343,253.124 225.483,253.787 225.827 C 255.125 226.521,272.250 226.649,272.478 225.967 C 272.550 225.751,274.032 225.535,275.771 225.487 C 277.880 225.429,278.989 225.233,279.100 224.900 C 279.196 224.612,279.940 224.400,280.857 224.400 C 281.737 224.400,282.344 224.234,282.217 224.028 C 282.091 223.823,282.170 223.542,282.393 223.404 C 282.617 223.266,282.803 223.388,282.806 223.676 C 282.811 224.100,282.875 224.102,283.138 223.686 C 283.319 223.402,283.763 223.288,284.135 223.430 C 284.504 223.572,285.238 223.405,285.766 223.059 C 286.294 222.713,287.382 222.386,288.183 222.332 C 288.984 222.278,289.812 222.026,290.023 221.773 C 290.233 221.519,290.829 221.393,291.346 221.492 C 292.036 221.624,292.343 221.461,292.494 220.883 C 292.655 220.268,292.973 220.125,293.934 220.237 C 294.826 220.341,295.112 220.235,294.967 219.857 C 294.820 219.475,295.094 219.382,295.978 219.511 C 296.841 219.638,297.262 219.503,297.438 219.045 C 297.574 218.690,298.135 218.400,298.686 218.400 C 299.374 218.400,299.619 218.227,299.473 217.845 C 299.319 217.446,299.494 217.352,300.097 217.510 C 300.715 217.671,300.877 217.576,300.713 217.150 C 300.578 216.799,300.749 216.550,301.145 216.517 C 301.505 216.487,302.385 216.421,303.100 216.370 C 303.815 216.320,304.400 216.115,304.400 215.916 C 304.400 215.716,304.256 215.642,304.081 215.750 C 303.905 215.858,303.500 215.778,303.181 215.572 C 302.787 215.317,303.062 215.266,304.039 215.413 C 305.052 215.566,305.628 215.448,305.988 215.015 C 306.268 214.677,306.926 214.400,307.449 214.400 C 307.972 214.400,308.400 214.220,308.400 214.000 C 308.400 213.780,308.850 213.600,309.400 213.600 C 310.022 213.600,310.400 213.373,310.400 213.000 C 310.400 212.660,310.759 212.400,311.229 212.400 C 311.684 212.400,312.337 212.120,312.680 211.777 C 313.023 211.434,313.570 211.256,313.896 211.382 C 314.292 211.533,314.417 211.421,314.272 211.044 C 314.147 210.717,314.350 210.402,314.754 210.296 C 315.642 210.064,315.920 206.276,315.121 205.290 C 314.750 204.832,314.742 204.732,315.091 204.941 C 315.895 205.424,315.785 87.742,314.980 86.513 C 314.657 86.020,314.357 85.185,314.313 84.658 C 314.206 83.360,312.666 83.355,311.973 84.650 C 311.694 85.173,311.246 85.600,310.979 85.600 C 310.712 85.600,310.396 85.973,310.276 86.430 C 310.157 86.886,309.686 87.357,309.230 87.476 C 308.773 87.596,308.400 87.863,308.400 88.070 C 308.400 88.278,308.608 88.319,308.862 88.162 C 309.150 87.984,309.215 88.052,309.034 88.345 C 308.875 88.602,308.576 88.709,308.370 88.581 C 308.163 88.454,307.886 88.631,307.754 88.975 C 307.622 89.319,307.183 89.600,306.777 89.600 C 306.372 89.600,305.880 89.886,305.684 90.236 C 305.488 90.586,305.164 90.901,304.964 90.936 C 304.764 90.971,304.645 91.135,304.700 91.300 C 304.755 91.465,304.601 91.600,304.358 91.600 C 304.115 91.600,302.879 92.660,301.611 93.956 C 300.343 95.252,298.922 96.434,298.453 96.583 C 297.984 96.732,297.600 97.022,297.600 97.227 C 297.600 97.432,297.330 97.600,297.000 97.600 C 296.670 97.600,296.400 97.791,296.400 98.024 C 296.400 98.257,296.608 98.319,296.862 98.162 C 297.141 97.989,297.215 98.052,297.049 98.321 C 296.898 98.565,296.533 98.673,296.239 98.560 C 295.944 98.446,295.423 98.634,295.080 98.977 C 294.737 99.320,294.245 99.600,293.986 99.600 C 293.727 99.600,293.610 99.850,293.727 100.155 C 293.872 100.533,293.714 100.650,293.230 100.524 C 292.839 100.421,292.224 100.633,291.864 100.993 C 291.503 101.354,290.846 101.676,290.404 101.710 C 289.962 101.743,289.597 102.047,289.594 102.385 C 289.589 102.912,289.535 102.917,289.222 102.421 C 288.918 101.941,288.730 101.998,288.117 102.755 C 287.537 103.471,286.973 103.667,285.489 103.667 C 284.222 103.667,283.600 103.835,283.600 104.178 C 283.600 104.507,283.245 104.621,282.600 104.498 C 281.867 104.358,281.600 104.479,281.600 104.953 C 281.600 105.680,282.201 105.649,268.833 105.600 C 261.800 105.574,260.601 105.481,260.194 104.924 C 259.828 104.424,259.346 104.338,258.061 104.544 C 256.829 104.741,256.400 104.675,256.400 104.290 C 256.400 104.004,256.007 103.741,255.527 103.704 C 255.046 103.668,254.497 103.360,254.307 103.019 C 254.097 102.644,253.408 102.400,252.557 102.400 C 251.723 102.400,251.253 102.238,251.400 102.000 C 251.539 101.775,251.218 101.600,250.666 101.600 C 250.126 101.600,249.572 101.305,249.433 100.943 C 249.295 100.581,249.065 100.402,248.923 100.544 C 248.780 100.686,248.239 100.525,247.721 100.185 C 247.202 99.845,246.588 99.684,246.357 99.827 C 246.125 99.970,245.670 99.707,245.345 99.243 C 245.020 98.780,244.495 98.400,244.177 98.400 C 243.860 98.400,243.600 98.220,243.600 98.000 C 243.600 97.780,243.409 97.600,243.176 97.600 C 242.943 97.600,242.872 97.793,243.018 98.030 C 243.164 98.266,242.905 98.222,242.442 97.933 C 241.979 97.644,241.600 97.181,241.600 96.904 C 241.600 96.627,241.330 96.400,241.000 96.400 C 240.670 96.400,240.400 96.199,240.400 95.953 C 240.400 95.693,239.984 95.586,239.400 95.698 C 238.780 95.816,238.400 95.706,238.400 95.407 C 238.400 94.599,237.000 93.600,235.869 93.600 C 235.281 93.600,234.800 93.409,234.800 93.176 C 234.800 92.943,235.025 92.880,235.300 93.035 C 235.575 93.191,235.403 92.931,234.917 92.459 C 234.431 91.986,233.582 91.600,233.029 91.600 C 232.301 91.600,232.088 91.435,232.255 91.000 C 232.403 90.615,232.247 90.400,231.819 90.400 C 231.453 90.400,231.241 90.257,231.349 90.083 C 231.456 89.909,231.179 89.739,230.732 89.705 C 230.286 89.671,229.695 89.336,229.421 88.961 C 229.146 88.585,228.716 88.405,228.465 88.560 C 228.191 88.729,228.085 88.634,228.198 88.321 C 228.357 87.883,225.722 85.600,225.058 85.600 C 224.941 85.600,224.160 84.970,223.322 84.199 C 222.485 83.429,221.485 82.696,221.100 82.572 C 220.715 82.448,220.400 82.178,220.400 81.973 C 220.400 81.768,219.950 81.600,219.400 81.600 C 218.717 81.600,218.398 81.378,218.394 80.900 C 218.389 80.302,218.331 80.287,218.000 80.800 C 217.685 81.288,217.611 81.236,217.606 80.523 C 217.601 79.848,217.406 79.683,216.759 79.808 C 216.172 79.921,215.854 79.727,215.708 79.169 C 215.545 78.547,215.247 78.408,214.377 78.545 C 213.489 78.685,213.305 78.592,213.493 78.102 C 213.682 77.611,213.509 77.524,212.660 77.686 C 211.833 77.845,211.614 77.745,211.695 77.245 C 211.765 76.813,211.517 76.609,210.940 76.627 C 210.387 76.645,210.153 76.467,210.283 76.127 C 210.424 75.760,210.104 75.600,209.224 75.600 C 208.391 75.600,207.646 75.259,207.035 74.600 C 206.440 73.957,205.675 73.600,204.897 73.600 C 204.231 73.600,203.592 73.356,203.477 73.057 C 203.363 72.758,202.668 72.375,201.934 72.206 C 201.200 72.037,200.379 71.847,200.108 71.786 C 199.837 71.724,199.330 71.387,198.979 71.037 C 198.629 70.686,197.736 70.400,196.995 70.400 C 196.254 70.400,195.529 70.209,195.385 69.976 C 195.241 69.743,194.736 69.583,194.262 69.621 C 192.765 69.739,192.400 69.617,192.400 69.000 C 192.400 68.547,191.911 68.400,190.400 68.400 C 189.300 68.400,188.400 68.258,188.400 68.085 C 188.400 67.455,186.843 67.672,186.671 68.327 C 186.510 68.935,186.488 68.933,186.446 68.300 C 186.406 67.684,185.927 67.600,182.443 67.600 C 179.171 67.600,178.443 67.488,178.238 66.955 C 178.045 66.452,177.867 66.412,177.431 66.774 C 177.075 67.069,176.782 67.095,176.628 66.845 C 176.309 66.329,163.707 66.304,163.389 66.818 C 163.259 67.028,162.938 67.197,162.676 67.194 C 162.388 67.190,162.437 67.030,162.800 66.789 C 163.243 66.494,162.996 66.413,161.855 66.480 C 161.005 66.529,160.221 66.801,160.112 67.085 C 159.965 67.468,158.601 67.600,154.791 67.600 C 151.066 67.600,149.612 67.737,149.465 68.100 C 149.304 68.500,149.257 68.500,149.232 68.100 C 149.192 67.479,148.000 67.430,148.000 68.049 C 148.000 68.356,147.808 68.338,147.391 67.992 C 146.893 67.579,146.821 67.588,146.995 68.043 C 147.167 68.490,146.636 68.589,144.305 68.546 C 142.368 68.510,141.194 68.673,140.783 69.033 C 140.443 69.331,139.145 69.608,137.897 69.648 C 136.649 69.689,135.723 69.875,135.838 70.061 C 136.081 70.455,135.874 70.484,132.400 70.550 C 130.554 70.586,129.829 70.745,129.900 71.100 C 129.972 71.459,129.267 71.600,127.400 71.600 C 125.558 71.600,124.800 71.749,124.800 72.111 C 124.800 72.461,124.322 72.576,123.278 72.476 C 122.236 72.377,121.589 72.531,121.229 72.965 C 120.914 73.345,120.079 73.600,119.151 73.600 C 118.109 73.600,117.600 73.779,117.600 74.145 C 117.600 74.518,117.267 74.625,116.537 74.486 C 115.799 74.345,115.311 74.507,114.937 75.018 C 114.600 75.479,114.400 75.557,114.400 75.227 C 114.400 74.795,114.288 74.795,113.763 75.230 C 113.413 75.521,112.499 75.716,111.731 75.665 C 110.910 75.609,110.433 75.730,110.574 75.958 C 110.706 76.171,110.316 76.403,109.707 76.473 C 109.083 76.544,108.644 76.818,108.700 77.100 C 108.769 77.447,108.187 77.600,106.800 77.600 C 105.700 77.600,104.800 77.780,104.800 78.000 C 104.800 78.220,104.350 78.400,103.800 78.400 C 103.178 78.400,102.800 78.627,102.800 79.000 C 102.800 79.330,102.609 79.600,102.376 79.600 C 102.143 79.600,102.088 79.375,102.253 79.100 C 102.429 78.807,102.251 78.846,101.823 79.194 C 101.421 79.521,100.891 79.810,100.646 79.836 C 99.599 79.951,98.424 80.516,98.610 80.817 C 98.870 81.238,97.689 81.606,95.857 81.675 C 94.807 81.714,94.515 81.857,94.795 82.194 C 95.078 82.535,94.849 82.610,93.933 82.476 C 92.955 82.332,92.754 82.412,93.002 82.846 C 93.226 83.240,93.188 83.282,92.871 82.992 C 92.567 82.714,92.412 79.365,92.387 72.487 L 92.349 62.389 88.544 62.495 C 86.451 62.553,84.664 62.673,84.573 62.763 M92.700 128.900 C 92.639 137.095,92.590 130.390,92.590 114.000 C 92.590 97.610,92.639 90.905,92.700 99.100 C 92.760 107.295,92.760 120.705,92.700 128.900 M92.692 168.912 C 92.608 169.840,92.541 168.980,92.542 167.000 C 92.543 165.020,92.612 164.260,92.695 165.312 C 92.777 166.364,92.776 167.984,92.692 168.912 M315.087 187.500 C 314.995 188.105,314.920 187.610,314.920 186.400 C 314.920 185.190,314.995 184.695,315.087 185.300 C 315.178 185.905,315.178 186.895,315.087 187.500 " stroke="none" fill="#b41c04" fill-rule="evenodd"></path><path id="path1" d="M92.590 114.000 C 92.590 130.390,92.639 137.095,92.700 128.900 C 92.760 120.705,92.760 107.295,92.700 99.100 C 92.639 90.905,92.590 97.610,92.590 114.000 M286.639 102.694 C 286.217 103.116,286.384 103.600,286.951 103.600 C 287.870 103.600,288.497 102.578,287.618 102.511 C 287.211 102.481,286.770 102.563,286.639 102.694 M315.293 134.800 C 315.293 135.570,315.375 135.885,315.476 135.500 C 315.576 135.115,315.576 134.485,315.476 134.100 C 315.375 133.715,315.293 134.030,315.293 134.800 M92.542 167.000 C 92.541 168.980,92.608 169.840,92.692 168.912 C 92.776 167.984,92.777 166.364,92.695 165.312 C 92.612 164.260,92.543 165.020,92.542 167.000 M314.920 186.400 C 314.920 187.610,314.995 188.105,315.087 187.500 C 315.178 186.895,315.178 185.905,315.087 185.300 C 314.995 184.695,314.920 185.190,314.920 186.400 M87.300 337.487 C 87.905 337.578,88.895 337.578,89.500 337.487 C 90.105 337.395,89.610 337.320,88.400 337.320 C 87.190 337.320,86.695 337.395,87.300 337.487 " stroke="none" fill="#b81c04" fill-rule="evenodd"></path><path id="path2" d="M92.590 114.000 C 92.590 130.390,92.639 137.095,92.700 128.900 C 92.760 120.705,92.760 107.295,92.700 99.100 C 92.639 90.905,92.590 97.610,92.590 114.000 M286.639 102.694 C 286.217 103.116,286.384 103.600,286.951 103.600 C 287.870 103.600,288.497 102.578,287.618 102.511 C 287.211 102.481,286.770 102.563,286.639 102.694 M315.293 134.800 C 315.293 135.570,315.375 135.885,315.476 135.500 C 315.576 135.115,315.576 134.485,315.476 134.100 C 315.375 133.715,315.293 134.030,315.293 134.800 M92.542 167.000 C 92.541 168.980,92.608 169.840,92.692 168.912 C 92.776 167.984,92.777 166.364,92.695 165.312 C 92.612 164.260,92.543 165.020,92.542 167.000 M314.920 186.400 C 314.920 187.610,314.995 188.105,315.087 187.500 C 315.178 186.895,315.178 185.905,315.087 185.300 C 314.995 184.695,314.920 185.190,314.920 186.400 M87.300 337.487 C 87.905 337.578,88.895 337.578,89.500 337.487 C 90.105 337.395,89.610 337.320,88.400 337.320 C 87.190 337.320,86.695 337.395,87.300 337.487 " stroke="none" fill="#b81c04" fill-rule="evenodd"></path><path id="path3" d="M92.590 114.000 C 92.590 130.390,92.639 137.095,92.700 128.900 C 92.760 120.705,92.760 107.295,92.700 99.100 C 92.639 90.905,92.590 97.610,92.590 114.000 M286.639 102.694 C 286.217 103.116,286.384 103.600,286.951 103.600 C 287.870 103.600,288.497 102.578,287.618 102.511 C 287.211 102.481,286.770 102.563,286.639 102.694 M315.293 134.800 C 315.293 135.570,315.375 135.885,315.476 135.500 C 315.576 135.115,315.576 134.485,315.476 134.100 C 315.375 133.715,315.293 134.030,315.293 134.800 M92.542 167.000 C 92.541 168.980,92.608 169.840,92.692 168.912 C 92.776 167.984,92.777 166.364,92.695 165.312 C 92.612 164.260,92.543 165.020,92.542 167.000 M314.920 186.400 C 314.920 187.610,314.995 188.105,315.087 187.500 C 315.178 186.895,315.178 185.905,315.087 185.300 C 314.995 184.695,314.920 185.190,314.920 186.400 M87.300 337.487 C 87.905 337.578,88.895 337.578,89.500 337.487 C 90.105 337.395,89.610 337.320,88.400 337.320 C 87.190 337.320,86.695 337.395,87.300 337.487 " stroke="none" fill="#b81c04" fill-rule="evenodd"></path><path id="path4" d="M92.590 114.000 C 92.590 130.390,92.639 137.095,92.700 128.900 C 92.760 120.705,92.760 107.295,92.700 99.100 C 92.639 90.905,92.590 97.610,92.590 114.000 M286.639 102.694 C 286.217 103.116,286.384 103.600,286.951 103.600 C 287.870 103.600,288.497 102.578,287.618 102.511 C 287.211 102.481,286.770 102.563,286.639 102.694 M315.293 134.800 C 315.293 135.570,315.375 135.885,315.476 135.500 C 315.576 135.115,315.576 134.485,315.476 134.100 C 315.375 133.715,315.293 134.030,315.293 134.800 M92.542 167.000 C 92.541 168.980,92.608 169.840,92.692 168.912 C 92.776 167.984,92.777 166.364,92.695 165.312 C 92.612 164.260,92.543 165.020,92.542 167.000 M314.920 186.400 C 314.920 187.610,314.995 188.105,315.087 187.500 C 315.178 186.895,315.178 185.905,315.087 185.300 C 314.995 184.695,314.920 185.190,314.920 186.400 M87.300 337.487 C 87.905 337.578,88.895 337.578,89.500 337.487 C 90.105 337.395,89.610 337.320,88.400 337.320 C 87.190 337.320,86.695 337.395,87.300 337.487 " stroke="none" fill="#b81c04" fill-rule="evenodd"></path></g></svg>