<svg id="svg" version="1.1" xmlns="http://www.w3.org/2000/svg" xmlns:xlink="http://www.w3.org/1999/xlink" width="400" height="400" viewBox="0, 0, 400,400"><g id="svgg"><path id="path0" d="M197.143 13.640 C 194.765 15.057,194.000 16.885,194.000 21.154 L 194.000 24.800 200.000 24.800 L 206.000 24.800 205.999 21.100 C 205.998 14.258,201.899 10.805,197.143 13.640 M185.400 63.389 C 177.436 64.659,168.135 68.234,163.362 71.860 C 162.681 72.377,161.931 72.800,161.696 72.800 C 161.460 72.800,161.207 72.936,161.133 73.103 C 161.060 73.270,160.190 74.019,159.200 74.769 C 156.340 76.935,151.137 82.334,148.764 85.600 C 146.641 88.521,144.000 92.652,144.000 93.052 C 144.000 93.258,141.816 98.072,141.168 99.295 C 140.966 99.677,140.800 100.264,140.800 100.600 C 140.800 100.936,140.638 101.523,140.439 101.905 C 139.733 103.265,138.400 109.212,138.400 111.006 L 138.400 112.400 200.000 112.400 L 261.600 112.400 261.600 110.746 C 261.600 109.837,261.406 108.352,261.168 107.446 C 260.931 106.541,260.550 105.080,260.322 104.200 C 255.889 87.097,241.160 71.219,224.745 65.847 C 215.765 62.908,196.115 61.681,185.400 63.389 M137.868 150.265 C 137.721 150.413,137.600 175.703,137.600 206.467 L 137.600 262.400 200.001 262.400 L 262.403 262.400 262.301 206.300 L 262.200 150.200 200.168 150.099 C 166.050 150.043,138.015 150.118,137.868 150.265 M205.871 156.414 C 213.393 157.409,220.162 159.712,225.497 163.092 C 228.740 165.147,229.913 168.172,228.733 171.436 C 228.273 172.708,228.309 172.774,230.973 175.464 C 232.462 176.969,234.195 178.942,234.824 179.848 L 235.967 181.496 238.683 181.309 C 243.029 181.011,244.868 182.681,247.157 189.006 C 257.970 218.890,239.571 249.897,207.400 256.008 C 204.568 256.546,194.071 256.303,190.800 255.624 C 189.590 255.372,188.013 255.064,187.296 254.939 C 186.579 254.814,185.894 254.551,185.773 254.356 C 185.652 254.160,185.206 254.000,184.783 254.000 C 180.030 254.000,165.898 244.375,160.997 237.800 C 160.341 236.920,159.702 236.110,159.576 236.000 C 158.935 235.439,156.732 231.854,155.397 229.200 C 152.922 224.276,152.199 222.104,150.382 214.123 C 149.871 211.879,149.894 200.978,150.416 198.320 C 155.768 171.041,179.705 152.953,205.871 156.414 M91.400 194.467 C 88.080 196.303,87.600 197.786,87.600 206.200 C 87.600 216.893,89.228 219.061,97.000 218.722 L 99.800 218.600 99.906 206.300 L 100.012 194.000 96.106 194.012 C 93.958 194.019,91.840 194.223,91.400 194.467 M195.743 194.833 C 189.826 197.108,186.454 203.594,188.198 209.343 C 191.431 219.998,204.737 221.857,210.540 212.464 C 216.497 202.820,206.366 190.748,195.743 194.833 M300.094 206.300 L 300.200 218.600 303.800 218.600 C 311.220 218.600,312.400 216.902,312.400 206.227 C 312.400 195.492,311.356 194.000,303.840 194.000 L 299.988 194.000 300.094 206.300 M137.867 300.267 C 137.720 300.413,137.600 314.453,137.600 331.467 L 137.600 362.400 141.265 362.400 C 145.851 362.400,147.815 361.458,149.150 358.617 C 150.249 356.279,150.506 306.902,149.433 304.349 C 148.714 302.640,146.991 301.039,145.240 300.454 C 143.779 299.966,138.307 299.827,137.867 300.267 M162.261 302.093 C 162.707 304.867,162.701 358.045,162.255 360.500 L 161.909 362.400 171.998 362.400 L 182.087 362.400 181.743 361.300 C 181.406 360.220,181.299 303.158,181.631 301.200 L 181.800 300.200 171.861 300.093 L 161.923 299.986 162.261 302.093 M198.274 300.589 C 193.842 302.142,194.000 300.999,194.000 331.494 C 194.000 357.620,194.002 357.695,194.866 359.233 C 197.125 363.252,202.891 363.223,205.163 359.181 C 206.490 356.819,206.301 304.730,204.958 302.929 C 203.290 300.692,200.634 299.762,198.274 300.589 M218.233 300.347 C 218.110 300.546,218.191 301.228,218.413 301.864 C 218.906 303.278,218.744 360.160,218.243 361.500 L 217.907 362.400 227.999 362.400 L 238.091 362.400 237.797 361.100 C 236.954 357.374,237.180 304.392,238.054 300.800 C 238.223 300.107,218.657 299.660,218.233 300.347 M254.800 300.459 C 252.618 301.086,250.900 302.997,250.390 305.365 C 249.539 309.307,250.041 357.081,250.952 358.914 C 252.208 361.441,254.349 362.400,258.738 362.400 L 262.405 362.400 262.302 331.300 L 262.200 300.200 259.200 300.128 C 257.550 300.089,255.570 300.238,254.800 300.459 " stroke="none" fill="#f36c6c" fill-rule="evenodd"></path><path id="path1" d="M194.994 38.410 C 194.266 39.588,193.609 43.300,193.605 46.262 L 193.600 49.523 204.300 49.744 C 210.185 49.865,215.765 50.081,216.700 50.224 L 218.400 50.484 218.400 46.838 C 218.400 42.724,217.597 40.405,215.688 39.000 C 214.378 38.037,195.556 37.500,194.994 38.410 M271.321 125.098 C 273.477 125.171,276.897 125.170,278.921 125.098 C 280.944 125.025,279.180 124.966,275.000 124.967 C 270.820 124.967,269.164 125.026,271.321 125.098 M126.008 126.300 C 125.122 128.174,124.993 133.343,125.781 135.407 L 126.466 137.200 192.168 137.200 C 228.304 137.200,263.524 137.312,270.435 137.448 L 283.000 137.697 284.390 136.739 C 286.960 134.969,288.837 130.015,287.300 129.061 C 287.135 128.958,287.052 129.803,287.117 130.937 C 287.254 133.372,286.330 135.167,284.304 136.402 C 282.308 137.619,267.277 137.610,265.277 136.390 C 261.274 133.950,261.776 128.114,266.200 125.667 C 266.787 125.342,248.303 125.221,196.764 125.212 L 126.528 125.200 126.008 126.300 M284.800 126.112 C 284.800 126.250,285.250 126.814,285.800 127.364 C 286.350 127.914,286.800 128.223,286.800 128.052 C 286.800 127.880,286.350 127.317,285.800 126.800 C 285.250 126.283,284.800 125.974,284.800 126.112 M116.800 169.648 C 115.407 170.202,113.600 172.010,113.600 172.851 C 113.600 173.237,113.420 173.664,113.200 173.800 C 112.939 173.962,112.804 185.159,112.811 206.124 L 112.823 238.200 113.711 239.928 C 114.200 240.878,115.140 241.940,115.800 242.288 C 117.628 243.252,118.369 243.600,118.595 243.600 C 118.708 243.600,118.800 226.860,118.800 206.400 C 118.800 176.893,118.697 169.205,118.300 169.225 C 118.025 169.239,117.350 169.430,116.800 169.648 M194.400 169.793 C 189.261 170.669,187.655 171.181,183.200 173.362 C 181.131 174.375,179.489 175.302,179.200 175.619 C 179.090 175.740,178.370 176.274,177.600 176.806 C 175.642 178.160,171.480 182.491,170.022 184.693 C 167.662 188.256,169.046 198.078,173.061 206.264 L 174.600 209.400 174.715 205.205 C 174.778 202.898,175.003 200.837,175.215 200.625 C 175.427 200.413,175.600 199.747,175.600 199.144 C 175.600 198.541,175.780 197.936,176.000 197.800 C 176.220 197.664,176.400 197.203,176.400 196.776 C 176.400 196.349,176.580 196.000,176.800 196.000 C 177.020 196.000,177.200 195.728,177.200 195.395 C 177.200 194.839,177.922 193.278,178.400 192.800 C 178.510 192.690,179.043 191.970,179.584 191.200 C 189.095 177.665,211.199 177.550,220.305 190.987 C 220.906 191.874,221.512 192.690,221.653 192.800 C 222.127 193.172,224.046 197.710,224.782 200.200 C 225.332 202.062,225.158 211.036,224.529 213.200 C 222.790 219.188,217.441 226.163,213.100 228.103 C 212.495 228.374,212.000 228.731,212.000 228.898 C 212.000 229.064,211.651 229.200,211.224 229.200 C 210.797 229.200,210.336 229.380,210.200 229.600 C 210.064 229.820,209.603 230.000,209.176 230.000 C 208.749 230.000,208.400 230.167,208.400 230.371 C 208.400 230.575,208.085 230.824,207.700 230.924 C 205.807 231.419,216.963 231.129,219.600 230.615 C 229.039 228.775,230.349 228.040,232.809 223.200 C 237.869 213.246,238.301 201.471,233.963 191.800 C 232.129 187.713,232.943 183.399,235.781 182.162 C 236.451 181.870,236.784 181.624,236.519 181.616 C 236.255 181.607,235.508 180.835,234.860 179.900 C 234.211 178.965,232.493 177.000,231.040 175.533 C 229.588 174.066,228.393 172.626,228.384 172.333 C 228.375 172.040,228.113 172.269,227.801 172.843 C 226.208 175.773,222.199 176.074,217.329 173.628 C 209.735 169.814,201.936 168.509,194.400 169.793 M281.200 206.400 C 281.200 226.860,281.292 243.600,281.405 243.600 C 281.631 243.600,282.372 243.252,284.200 242.288 C 284.860 241.940,285.800 240.878,286.289 239.928 L 287.177 238.200 287.189 206.349 C 287.201 172.052,287.250 172.903,285.135 170.927 C 284.251 170.101,282.393 169.200,281.574 169.200 C 281.345 169.200,281.200 183.594,281.200 206.400 M138.907 275.700 C 137.524 277.468,137.191 282.258,138.238 285.329 L 138.875 287.200 204.138 287.189 L 269.400 287.177 271.179 286.268 C 273.567 285.046,275.710 281.010,274.400 280.200 C 274.180 280.064,274.000 279.638,274.000 279.252 C 274.000 278.322,271.698 276.000,270.776 276.000 C 270.375 276.000,269.936 275.820,269.800 275.600 C 269.402 274.956,139.411 275.056,138.907 275.700 M237.388 331.400 C 237.388 345.480,237.439 351.182,237.500 344.071 C 237.561 336.960,237.561 325.440,237.500 318.471 C 237.438 311.502,237.388 317.320,237.388 331.400 M162.493 357.200 C 162.493 357.970,162.575 358.285,162.676 357.900 C 162.776 357.515,162.776 356.885,162.676 356.500 C 162.575 356.115,162.493 356.430,162.493 357.200 M126.008 376.300 C 125.122 378.174,124.993 383.343,125.781 385.407 L 126.466 387.200 203.933 387.194 C 266.554 387.189,281.687 387.088,282.897 386.667 C 286.415 385.441,287.903 382.124,286.335 379.003 C 285.487 377.316,284.890 376.803,282.305 375.539 C 281.923 375.353,246.717 375.200,204.070 375.200 L 126.528 375.200 126.008 376.300 " stroke="none" fill="#7c848c" fill-rule="evenodd"></path><path id="path2" d="M193.100 0.267 C 192.495 0.369,192.000 0.621,192.000 0.827 C 192.000 1.032,191.640 1.200,191.200 1.200 C 190.760 1.200,190.400 1.380,190.400 1.600 C 190.400 1.820,190.127 2.000,189.794 2.000 C 189.003 2.000,183.200 7.803,183.200 8.594 C 183.200 8.927,183.065 9.201,182.900 9.203 C 182.494 9.207,181.600 11.186,181.600 12.080 C 181.600 12.476,181.420 12.800,181.200 12.800 C 180.951 12.800,180.800 15.130,180.800 18.991 L 180.800 25.181 179.300 25.915 C 178.475 26.318,177.363 26.908,176.828 27.224 C 175.408 28.065,171.891 31.637,171.232 32.906 C 170.920 33.508,170.515 34.000,170.332 34.000 C 170.150 34.000,170.000 34.360,170.000 34.800 C 170.000 35.240,169.820 35.600,169.600 35.600 C 169.380 35.600,169.200 36.140,169.200 36.800 C 169.200 37.460,169.020 38.000,168.800 38.000 C 168.546 38.000,168.400 41.000,168.400 46.200 C 168.400 54.133,168.374 54.400,167.600 54.400 C 167.160 54.400,166.800 54.580,166.800 54.800 C 166.800 55.020,166.361 55.200,165.824 55.200 C 165.287 55.200,164.736 55.380,164.600 55.600 C 164.464 55.820,164.003 56.000,163.576 56.000 C 163.149 56.000,162.800 56.180,162.800 56.400 C 162.800 56.620,162.440 56.800,162.000 56.800 C 161.560 56.800,161.200 56.980,161.200 57.200 C 161.200 57.420,160.945 57.600,160.633 57.600 C 160.322 57.600,160.007 57.735,159.933 57.900 C 159.860 58.065,158.766 58.740,157.501 59.400 C 156.237 60.060,155.202 60.735,155.201 60.900 C 155.201 61.065,154.975 61.200,154.700 61.200 C 154.425 61.201,153.677 61.651,153.038 62.200 C 152.399 62.750,151.738 63.200,151.570 63.200 C 151.403 63.200,150.547 63.875,149.670 64.700 C 148.792 65.525,146.887 67.273,145.437 68.584 C 143.987 69.895,142.706 71.267,142.590 71.633 C 142.474 71.998,141.393 73.315,140.189 74.558 C 138.985 75.801,138.000 76.994,138.000 77.209 C 138.000 77.424,137.850 77.600,137.668 77.600 C 137.485 77.600,137.081 78.095,136.770 78.700 C 136.460 79.305,135.889 80.091,135.503 80.447 C 135.116 80.803,134.800 81.388,134.800 81.747 C 134.800 82.106,134.620 82.400,134.400 82.400 C 134.180 82.400,134.000 82.636,134.000 82.925 C 134.000 83.213,133.640 83.836,133.200 84.308 C 132.760 84.780,132.400 85.444,132.400 85.783 C 132.400 86.122,132.220 86.400,132.000 86.400 C 131.780 86.400,131.600 86.760,131.600 87.200 C 131.600 87.640,131.420 88.000,131.200 88.000 C 130.980 88.000,130.800 88.360,130.800 88.800 C 130.800 89.240,130.620 89.600,130.400 89.600 C 130.180 89.600,130.000 90.140,130.000 90.800 C 130.000 91.460,129.865 92.001,129.700 92.003 C 129.299 92.007,128.400 93.981,128.400 94.856 C 128.400 95.239,128.220 95.664,128.000 95.800 C 127.780 95.936,127.600 96.476,127.600 97.000 C 127.600 97.524,127.441 98.051,127.246 98.171 C 127.051 98.292,126.775 98.977,126.631 99.695 C 126.487 100.413,126.185 101.900,125.960 103.000 C 125.735 104.100,125.350 106.575,125.105 108.500 L 124.659 112.000 118.953 112.000 C 115.581 112.000,113.146 112.164,113.000 112.400 C 112.864 112.620,112.439 112.800,112.056 112.800 C 111.181 112.800,109.207 113.699,109.203 114.100 C 109.201 114.265,108.948 114.400,108.641 114.400 C 107.864 114.400,102.000 120.203,102.000 120.973 C 102.000 121.318,101.820 121.600,101.600 121.600 C 101.380 121.600,101.200 121.960,101.200 122.400 C 101.200 122.840,101.020 123.200,100.800 123.200 C 100.580 123.200,100.400 123.740,100.400 124.400 C 100.400 125.060,100.220 125.600,100.000 125.600 C 99.752 125.600,99.600 127.800,99.600 131.400 C 99.600 135.000,99.752 137.200,100.000 137.200 C 100.220 137.200,100.400 137.543,100.400 137.962 C 100.400 140.031,106.905 148.000,108.594 148.000 C 108.927 148.000,109.201 148.135,109.203 148.300 C 109.207 148.706,111.186 149.600,112.080 149.600 C 112.476 149.600,112.800 149.780,112.800 150.000 C 112.800 150.249,115.067 150.400,118.800 150.400 L 124.800 150.400 124.800 153.200 L 124.800 156.000 118.800 156.000 C 115.067 156.000,112.800 156.151,112.800 156.400 C 112.800 156.620,112.260 156.800,111.600 156.800 C 110.940 156.800,110.400 156.938,110.400 157.106 C 110.400 157.274,109.699 157.715,108.841 158.087 C 107.108 158.837,102.000 163.718,102.000 164.622 C 102.000 164.940,101.820 165.200,101.600 165.200 C 101.380 165.200,101.200 165.560,101.200 166.000 C 101.200 166.440,101.020 166.800,100.800 166.800 C 100.580 166.800,100.400 167.340,100.400 168.000 C 100.400 168.660,100.220 169.200,100.000 169.200 C 99.752 169.200,99.600 171.400,99.600 175.000 L 99.600 180.800 93.800 180.800 C 90.200 180.800,88.000 180.952,88.000 181.200 C 88.000 181.420,87.460 181.600,86.800 181.600 C 86.140 181.600,85.600 181.780,85.600 182.000 C 85.600 182.220,85.240 182.400,84.800 182.400 C 84.360 182.400,84.000 182.580,84.000 182.800 C 84.000 183.020,83.751 183.200,83.446 183.200 C 82.372 183.200,77.660 188.258,76.319 190.851 L 75.000 193.400 74.883 205.546 C 74.735 221.010,74.837 221.409,80.333 226.700 C 81.761 228.075,83.170 229.200,83.465 229.200 C 83.759 229.200,84.000 229.380,84.000 229.600 C 84.000 229.820,84.360 230.000,84.800 230.000 C 85.240 230.000,85.600 230.180,85.600 230.400 C 85.600 230.620,86.140 230.800,86.800 230.800 C 87.460 230.800,88.000 230.980,88.000 231.200 C 88.000 231.448,90.200 231.600,93.800 231.600 L 99.600 231.600 99.600 237.400 C 99.600 241.000,99.752 243.200,100.000 243.200 C 100.220 243.200,100.400 243.740,100.400 244.400 C 100.400 245.060,100.580 245.600,100.800 245.600 C 101.020 245.600,101.200 245.960,101.200 246.400 C 101.200 246.840,101.380 247.200,101.600 247.200 C 101.820 247.200,102.000 247.456,102.000 247.769 C 102.000 248.396,107.368 254.000,107.969 254.000 C 108.174 254.000,108.588 254.225,108.887 254.500 C 109.808 255.347,111.151 256.000,111.971 256.000 C 112.401 256.000,112.864 256.180,113.000 256.400 C 113.146 256.637,115.604 256.800,119.024 256.800 L 124.800 256.800 124.797 259.700 C 124.794 262.654,124.166 263.600,122.209 263.600 C 121.971 263.600,121.517 263.960,121.200 264.400 C 120.883 264.840,120.389 265.200,120.103 265.200 C 119.429 265.200,115.569 269.086,114.832 270.506 C 114.520 271.108,114.115 271.600,113.932 271.600 C 113.750 271.600,113.600 271.960,113.600 272.400 C 113.600 272.840,113.420 273.200,113.200 273.200 C 112.980 273.200,112.800 273.740,112.800 274.400 C 112.800 275.060,112.620 275.600,112.400 275.600 C 112.152 275.600,112.000 277.725,112.000 281.176 C 112.000 284.463,112.164 286.854,112.400 287.000 C 112.620 287.136,112.800 287.687,112.800 288.224 C 112.800 288.761,112.980 289.200,113.200 289.200 C 113.420 289.200,113.600 289.560,113.600 290.000 C 113.600 290.440,113.768 290.800,113.973 290.800 C 114.178 290.800,114.461 291.163,114.602 291.607 C 114.935 292.655,119.394 297.200,120.090 297.200 C 120.383 297.200,120.883 297.560,121.200 298.000 C 121.517 298.440,122.097 298.800,122.488 298.800 C 122.880 298.800,123.200 298.980,123.200 299.200 C 123.200 299.420,123.560 299.600,124.000 299.600 C 124.793 299.600,124.800 299.867,124.800 330.800 L 124.800 362.000 119.024 362.000 C 115.604 362.000,113.146 362.163,113.000 362.400 C 112.864 362.620,112.439 362.800,112.056 362.800 C 111.181 362.800,109.207 363.699,109.203 364.100 C 109.201 364.265,108.948 364.400,108.641 364.400 C 107.864 364.400,102.000 370.203,102.000 370.973 C 102.000 371.318,101.820 371.600,101.600 371.600 C 101.380 371.600,101.200 371.960,101.200 372.400 C 101.200 372.840,101.020 373.200,100.800 373.200 C 100.580 373.200,100.400 373.740,100.400 374.400 C 100.400 375.060,100.220 375.600,100.000 375.600 C 99.752 375.600,99.600 377.800,99.600 381.400 C 99.600 385.000,99.752 387.200,100.000 387.200 C 100.220 387.200,100.400 387.543,100.400 387.962 C 100.400 390.031,106.905 398.000,108.594 398.000 C 108.927 398.000,109.200 398.136,109.200 398.302 C 109.200 399.817,108.146 399.800,200.028 399.800 L 288.256 399.800 290.224 398.800 C 293.935 396.915,299.600 390.367,299.600 387.962 C 299.600 387.543,299.780 387.200,300.000 387.200 C 300.248 387.200,300.400 385.000,300.400 381.400 C 300.400 377.800,300.248 375.600,300.000 375.600 C 299.780 375.600,299.600 375.060,299.600 374.400 C 299.600 373.740,299.420 373.200,299.200 373.200 C 298.980 373.200,298.800 372.840,298.800 372.400 C 298.800 371.960,298.620 371.600,298.400 371.600 C 298.180 371.600,298.000 371.327,298.000 370.994 C 298.000 369.318,290.034 362.800,287.986 362.800 C 287.580 362.800,287.136 362.620,287.000 362.400 C 286.854 362.163,284.396 362.000,280.976 362.000 L 275.200 362.000 275.200 330.800 C 275.200 299.867,275.207 299.600,276.000 299.600 C 276.440 299.600,276.800 299.420,276.800 299.200 C 276.800 298.980,277.120 298.800,277.512 298.800 C 277.903 298.800,278.483 298.440,278.800 298.000 C 279.117 297.560,279.617 297.200,279.910 297.200 C 280.606 297.200,285.065 292.655,285.398 291.607 C 285.539 291.163,285.822 290.800,286.027 290.800 C 286.232 290.800,286.400 290.440,286.400 290.000 C 286.400 289.560,286.580 289.200,286.800 289.200 C 287.020 289.200,287.200 288.761,287.200 288.224 C 287.200 287.687,287.380 287.136,287.600 287.000 C 288.138 286.668,288.138 275.600,287.600 275.600 C 287.380 275.600,287.200 275.060,287.200 274.400 C 287.200 273.740,287.020 273.200,286.800 273.200 C 286.580 273.200,286.400 272.840,286.400 272.400 C 286.400 271.960,286.250 271.600,286.068 271.600 C 285.885 271.600,285.480 271.108,285.168 270.506 C 284.431 269.086,280.571 265.200,279.897 265.200 C 279.611 265.200,279.117 264.840,278.800 264.400 C 278.483 263.960,278.029 263.600,277.791 263.600 C 275.834 263.600,275.206 262.654,275.203 259.700 L 275.200 256.800 280.976 256.800 C 284.396 256.800,286.854 256.637,287.000 256.400 C 287.136 256.180,287.561 256.000,287.944 256.000 C 288.819 256.000,290.793 255.101,290.797 254.700 C 290.799 254.535,291.061 254.400,291.381 254.400 C 292.137 254.400,298.000 248.537,298.000 247.781 C 298.000 247.461,298.180 247.200,298.400 247.200 C 298.620 247.200,298.800 246.840,298.800 246.400 C 298.800 245.960,298.980 245.600,299.200 245.600 C 299.420 245.600,299.600 245.060,299.600 244.400 C 299.600 243.740,299.780 243.200,300.000 243.200 C 300.248 243.200,300.400 241.000,300.400 237.400 L 300.400 231.600 306.200 231.600 C 309.800 231.600,312.000 231.448,312.000 231.200 C 312.000 230.980,312.540 230.800,313.200 230.800 C 313.860 230.800,314.400 230.620,314.400 230.400 C 314.400 230.180,314.760 230.000,315.200 230.000 C 315.640 230.000,316.000 229.820,316.000 229.600 C 316.000 229.380,316.279 229.200,316.621 229.200 C 317.599 229.200,322.944 223.547,324.023 221.369 C 324.999 219.401,325.000 219.391,325.000 206.200 L 325.000 193.000 323.626 190.600 C 322.193 188.097,317.513 183.200,316.554 183.200 C 316.249 183.200,316.000 183.020,316.000 182.800 C 316.000 182.580,315.640 182.400,315.200 182.400 C 314.760 182.400,314.400 182.220,314.400 182.000 C 314.400 181.780,313.860 181.600,313.200 181.600 C 312.540 181.600,312.000 181.420,312.000 181.200 C 312.000 180.952,309.800 180.800,306.200 180.800 L 300.400 180.800 300.400 175.000 C 300.400 171.400,300.248 169.200,300.000 169.200 C 299.780 169.200,299.600 168.660,299.600 168.000 C 299.600 167.340,299.420 166.800,299.200 166.800 C 298.980 166.800,298.800 166.440,298.800 166.000 C 298.800 165.560,298.620 165.200,298.400 165.200 C 298.180 165.200,298.000 164.940,298.000 164.622 C 298.000 163.718,292.892 158.837,291.159 158.087 C 290.301 157.715,289.600 157.274,289.600 157.106 C 289.600 156.938,289.060 156.800,288.400 156.800 C 287.740 156.800,287.200 156.620,287.200 156.400 C 287.200 156.151,284.933 156.000,281.200 156.000 L 275.200 156.000 275.200 153.200 L 275.200 150.400 281.200 150.400 C 284.933 150.400,287.200 150.249,287.200 150.000 C 287.200 149.780,287.543 149.600,287.962 149.600 C 291.180 149.600,299.600 141.180,299.600 137.962 C 299.600 137.543,299.780 137.200,300.000 137.200 C 300.248 137.200,300.400 135.000,300.400 131.400 C 300.400 127.800,300.248 125.600,300.000 125.600 C 299.780 125.600,299.600 125.060,299.600 124.400 C 299.600 123.740,299.420 123.200,299.200 123.200 C 298.980 123.200,298.800 122.840,298.800 122.400 C 298.800 121.960,298.620 121.600,298.400 121.600 C 298.180 121.600,298.000 121.327,298.000 120.994 C 298.000 119.318,290.034 112.800,287.986 112.800 C 287.580 112.800,287.136 112.620,287.000 112.400 C 286.854 112.163,284.410 112.000,281.019 112.000 L 275.285 112.000 275.000 108.397 C 274.843 106.416,274.554 104.695,274.357 104.574 C 274.161 104.452,274.000 103.791,274.000 103.105 C 274.000 101.862,273.418 99.626,272.751 98.305 C 272.558 97.923,272.400 97.259,272.400 96.829 C 272.400 96.399,272.220 95.936,272.000 95.800 C 271.780 95.664,271.600 95.239,271.600 94.856 C 271.600 93.981,270.701 92.007,270.300 92.003 C 270.135 92.001,270.000 91.460,270.000 90.800 C 270.000 90.140,269.820 89.600,269.600 89.600 C 269.380 89.600,269.200 89.240,269.200 88.800 C 269.200 88.360,269.020 88.000,268.800 88.000 C 268.580 88.000,268.400 87.640,268.400 87.200 C 268.400 86.760,268.220 86.400,268.000 86.400 C 267.780 86.400,267.600 86.122,267.600 85.783 C 267.600 85.444,267.240 84.780,266.800 84.308 C 266.360 83.836,266.000 83.213,266.000 82.925 C 266.000 82.636,265.820 82.400,265.600 82.400 C 265.380 82.400,265.200 82.080,265.200 81.688 C 265.200 81.297,264.840 80.717,264.400 80.400 C 263.960 80.083,263.597 79.638,263.593 79.412 C 263.584 78.936,262.054 76.991,259.900 74.718 C 259.075 73.847,258.400 72.987,258.400 72.805 C 258.400 72.160,249.868 63.986,248.344 63.170 C 247.852 62.907,247.090 62.356,246.650 61.946 C 246.209 61.536,245.613 61.200,245.325 61.200 C 245.036 61.200,244.800 61.050,244.800 60.867 C 244.800 60.683,243.765 60.008,242.500 59.367 C 241.235 58.725,240.140 58.065,240.067 57.900 C 239.993 57.735,239.678 57.600,239.367 57.600 C 239.055 57.600,238.800 57.420,238.800 57.200 C 238.800 56.980,238.440 56.800,238.000 56.800 C 237.560 56.800,237.200 56.620,237.200 56.400 C 237.200 56.180,236.840 56.000,236.400 56.000 C 235.960 56.000,235.600 55.820,235.600 55.600 C 235.600 55.380,235.060 55.200,234.400 55.200 C 233.740 55.200,233.200 55.020,233.200 54.800 C 233.200 54.580,232.840 54.400,232.400 54.400 C 231.626 54.400,231.600 54.133,231.600 46.200 C 231.600 41.000,231.454 38.000,231.200 38.000 C 230.980 38.000,230.800 37.460,230.800 36.800 C 230.800 36.140,230.620 35.600,230.400 35.600 C 230.180 35.600,230.000 35.280,230.000 34.888 C 230.000 34.497,229.640 33.917,229.200 33.600 C 228.760 33.283,228.400 32.789,228.400 32.503 C 228.400 31.902,224.612 28.078,223.172 27.224 C 222.637 26.908,221.525 26.318,220.700 25.915 L 219.200 25.181 219.200 18.991 C 219.200 15.130,219.049 12.800,218.800 12.800 C 218.580 12.800,218.400 12.476,218.400 12.080 C 218.400 11.186,217.506 9.207,217.100 9.203 C 216.935 9.201,216.800 8.927,216.800 8.594 C 216.800 7.803,210.997 2.000,210.206 2.000 C 209.873 2.000,209.600 1.820,209.600 1.600 C 209.600 1.380,209.255 1.200,208.833 1.200 C 208.412 1.200,207.992 0.975,207.900 0.700 C 207.732 0.195,195.622 -0.159,193.100 0.267 M203.198 13.247 C 205.686 14.645,206.400 16.412,206.400 21.165 L 206.400 25.220 200.100 25.110 L 193.800 25.000 193.684 21.237 C 193.463 14.045,197.935 10.289,203.198 13.247 M216.011 38.500 C 218.341 40.078,218.738 41.229,218.771 46.500 C 218.787 49.085,218.748 51.200,218.685 51.200 C 218.621 51.200,216.416 50.931,213.785 50.603 C 208.375 49.928,190.149 49.768,186.955 50.366 C 185.880 50.568,184.190 50.790,183.200 50.859 L 181.400 50.986 181.285 47.013 C 181.134 41.833,181.809 40.068,184.600 38.344 C 186.647 37.080,214.115 37.216,216.011 38.500 M214.069 62.825 C 224.464 64.901,229.992 66.988,236.983 71.478 C 246.604 77.656,255.402 88.644,259.180 99.200 C 259.455 99.970,259.833 100.960,260.020 101.400 C 260.427 102.362,261.875 108.809,262.146 110.869 C 262.287 111.939,262.176 112.400,261.737 112.569 C 260.844 112.912,138.678 112.837,138.140 112.494 C 137.398 112.020,138.785 105.073,140.714 99.600 C 145.262 86.697,156.477 74.186,168.722 68.356 C 174.265 65.716,174.161 65.760,177.200 64.844 C 179.609 64.119,180.729 63.855,185.600 62.863 C 188.179 62.338,211.473 62.307,214.069 62.825 M284.083 125.300 C 288.198 127.658,289.012 132.609,285.811 135.811 L 284.021 137.600 200.746 137.600 L 117.470 137.600 115.774 136.606 C 111.110 133.873,111.864 126.570,116.931 125.399 C 119.927 124.706,282.879 124.610,284.083 125.300 M262.600 206.400 L 262.600 262.600 200.200 262.600 L 137.800 262.600 137.699 206.299 L 137.597 149.998 200.099 150.099 L 262.600 150.200 262.600 206.400 M193.400 156.885 C 192.080 157.087,190.325 157.421,189.500 157.627 C 186.236 158.439,184.560 158.907,183.700 159.246 C 183.205 159.441,182.395 159.761,181.900 159.958 C 150.554 172.429,140.169 211.353,161.237 237.400 C 164.664 241.638,170.418 246.783,173.800 248.636 C 174.240 248.877,175.320 249.489,176.200 249.996 C 194.670 260.636,219.677 256.926,235.203 241.242 C 240.034 236.362,246.800 225.856,246.800 223.234 C 246.800 222.989,246.970 222.477,247.177 222.095 C 250.542 215.890,250.527 199.657,247.148 190.200 C 244.839 183.736,243.397 182.017,240.015 181.692 C 234.603 181.172,232.311 185.661,234.750 192.000 C 240.528 207.010,237.433 221.874,226.228 232.932 C 209.768 249.177,182.082 246.491,169.204 227.400 C 147.368 195.031,182.715 155.313,217.543 173.084 C 222.754 175.743,226.285 175.241,228.081 171.586 C 230.219 167.234,227.569 163.776,219.647 160.576 C 215.239 158.795,215.573 158.903,210.600 157.669 C 205.582 156.425,198.499 156.102,193.400 156.885 M124.800 206.200 L 124.800 243.600 120.747 243.600 C 116.019 243.600,114.503 242.953,113.188 240.376 C 112.423 238.877,112.400 237.870,112.400 206.075 L 112.400 173.318 113.310 171.969 C 115.056 169.377,116.430 168.800,120.859 168.800 L 124.800 168.800 124.800 206.200 M284.398 169.647 C 287.805 171.562,287.600 169.216,287.600 206.293 C 287.600 234.561,287.518 239.242,287.003 240.274 C 285.632 243.021,283.599 243.853,278.691 243.671 L 275.200 243.541 275.200 206.171 L 275.200 168.800 279.046 168.800 C 282.221 168.800,283.154 168.948,284.398 169.647 M197.200 181.477 C 173.300 185.484,166.901 215.625,187.370 227.778 C 208.499 240.323,232.919 217.318,222.165 195.000 C 217.938 186.226,206.341 179.944,197.200 181.477 M100.000 206.200 L 100.000 218.800 95.900 218.799 C 88.253 218.796,87.604 217.812,87.601 206.225 C 87.599 194.830,88.410 193.627,96.100 193.609 L 100.000 193.600 100.000 206.200 M203.481 194.056 C 206.559 195.311,207.272 195.732,208.788 197.188 C 220.663 208.598,203.531 226.493,191.307 215.449 C 181.953 206.998,191.986 189.369,203.481 194.056 M309.129 194.224 C 312.331 195.822,312.904 197.854,312.734 207.002 C 312.540 217.445,311.553 218.800,304.141 218.800 L 300.000 218.800 300.000 206.200 L 300.000 193.600 303.939 193.600 C 306.707 193.600,308.249 193.786,309.129 194.224 M271.459 275.628 C 276.193 277.920,276.235 284.628,271.529 286.976 C 269.295 288.090,131.045 287.907,128.662 286.787 C 124.447 284.806,123.985 278.668,127.860 276.122 C 129.549 275.012,132.864 274.958,204.174 274.876 L 269.747 274.800 271.459 275.628 M147.104 300.798 C 150.158 302.660,149.997 300.967,149.999 331.126 C 150.000 350.249,149.870 358.306,149.551 358.926 C 148.061 361.827,145.293 362.978,140.400 362.731 L 137.800 362.600 137.698 331.300 L 137.595 300.000 141.698 300.001 C 145.085 300.003,146.027 300.141,147.104 300.798 M182.118 301.500 C 181.776 303.111,181.667 358.334,182.000 361.000 L 182.200 362.600 172.277 362.707 C 160.696 362.832,161.108 362.938,161.857 360.037 C 162.464 357.689,162.422 305.229,161.810 301.700 L 161.516 300.000 171.976 300.000 L 182.436 300.000 182.118 301.500 M203.198 300.847 C 206.557 302.735,206.400 301.244,206.400 331.293 C 206.400 360.285,206.472 359.342,204.123 361.189 C 201.009 363.638,196.591 362.834,194.613 359.458 L 193.600 357.730 193.600 331.326 C 193.600 308.863,193.688 304.747,194.190 303.741 C 195.927 300.259,199.888 298.987,203.198 300.847 M238.529 300.300 C 238.626 300.465,238.453 301.574,238.145 302.764 C 237.449 305.446,237.560 357.842,238.267 360.679 C 238.819 362.896,239.291 362.800,227.791 362.800 C 216.701 362.800,217.484 363.096,218.229 359.187 C 219.064 354.813,219.038 307.011,218.200 303.200 C 217.885 301.770,217.622 300.465,217.614 300.300 C 217.606 300.135,222.269 300.000,227.976 300.000 C 233.683 300.000,238.432 300.135,238.529 300.300 M262.600 331.400 L 262.600 362.600 258.600 362.600 C 254.059 362.600,252.504 361.998,250.901 359.619 L 250.000 358.282 250.000 331.402 C 250.000 302.860,249.985 303.107,251.851 301.558 C 253.418 300.257,254.297 300.066,258.400 300.132 L 262.600 300.200 262.600 331.400 M283.498 375.415 C 288.936 377.687,289.050 384.113,283.705 387.100 C 282.998 387.496,265.533 387.600,200.141 387.600 L 117.470 387.600 115.774 386.606 C 111.110 383.873,111.864 376.570,116.931 375.399 C 120.359 374.606,281.600 374.622,283.498 375.415 " stroke="none" fill="#040404" fill-rule="evenodd"></path><path id="path3" d="M197.842 12.731 C 197.730 12.914,198.574 12.994,199.719 12.909 C 204.076 12.587,205.996 15.032,205.999 20.900 L 206.000 24.800 200.000 24.800 L 194.000 24.800 194.001 21.100 C 194.003 17.160,194.603 15.459,196.537 13.909 C 197.012 13.529,197.209 13.214,196.975 13.209 C 196.437 13.198,194.718 15.085,194.065 16.404 C 193.744 17.051,193.609 18.760,193.684 21.204 L 193.800 25.000 200.100 25.110 L 206.400 25.220 206.400 21.165 C 206.400 16.412,205.686 14.645,203.198 13.247 C 201.685 12.396,198.254 12.066,197.842 12.731 M184.600 38.344 C 181.809 40.068,181.134 41.833,181.285 47.013 L 181.400 50.986 183.200 50.859 C 184.190 50.790,185.880 50.568,186.955 50.366 C 190.149 49.768,208.375 49.928,213.785 50.603 C 216.416 50.931,218.621 51.200,218.685 51.200 C 218.748 51.200,218.787 49.085,218.771 46.500 C 218.738 41.229,218.341 40.078,216.011 38.500 C 214.115 37.216,186.647 37.080,184.600 38.344 M215.688 39.000 C 217.597 40.405,218.400 42.724,218.400 46.838 L 218.400 50.484 216.700 50.224 C 215.765 50.081,210.185 49.865,204.300 49.744 L 193.600 49.523 193.605 46.262 C 193.609 43.300,194.266 39.588,194.994 38.410 C 195.556 37.500,214.378 38.037,215.688 39.000 M186.476 62.740 C 185.968 62.883,192.054 63.000,200.000 63.000 C 207.946 63.000,214.032 62.883,213.524 62.740 C 213.016 62.597,206.930 62.480,200.000 62.480 C 193.070 62.480,186.984 62.597,186.476 62.740 M181.800 63.600 L 181.000 63.944 181.800 63.932 C 182.240 63.926,183.050 63.776,183.600 63.600 L 184.600 63.280 183.600 63.268 C 183.050 63.262,182.240 63.411,181.800 63.600 M216.400 63.600 C 216.950 63.776,217.760 63.926,218.200 63.932 L 219.000 63.944 218.200 63.600 C 217.760 63.411,216.950 63.262,216.400 63.268 L 215.400 63.280 216.400 63.600 M178.600 64.400 C 177.581 64.838,178.632 64.838,180.000 64.400 C 180.804 64.143,180.843 64.077,180.200 64.068 C 179.760 64.062,179.040 64.211,178.600 64.400 M220.000 64.400 C 221.368 64.838,222.419 64.838,221.400 64.400 C 220.960 64.211,220.240 64.062,219.800 64.068 C 219.157 64.077,219.196 64.143,220.000 64.400 M226.358 66.437 C 227.325 66.866,228.200 67.134,228.302 67.032 C 228.524 66.810,225.694 65.588,225.051 65.628 C 224.803 65.644,225.391 66.008,226.358 66.437 M167.859 68.646 C 166.352 69.419,165.187 70.120,165.270 70.204 C 165.411 70.345,170.751 67.783,171.152 67.381 C 171.665 66.868,170.306 67.390,167.859 68.646 M230.000 68.000 C 230.770 68.422,231.580 68.766,231.800 68.766 C 232.020 68.766,231.570 68.422,230.800 68.000 C 230.030 67.578,229.220 67.234,229.000 67.234 C 228.780 67.234,229.230 67.578,230.000 68.000 M233.200 69.567 C 234.163 70.352,234.800 70.608,234.800 70.210 C 234.800 70.106,234.215 69.735,233.500 69.386 L 232.200 68.752 233.200 69.567 M163.093 71.414 C 162.272 71.972,161.600 72.515,161.600 72.620 C 161.600 72.725,162.320 72.335,163.200 71.753 C 164.597 70.828,165.070 70.400,164.693 70.400 C 164.634 70.400,163.914 70.856,163.093 71.414 M235.200 70.489 C 235.310 70.620,236.904 71.801,238.742 73.114 C 242.825 76.029,248.223 81.269,250.885 84.900 C 253.318 88.220,253.807 88.451,251.638 85.256 C 249.694 82.394,243.373 76.021,240.160 73.683 C 237.771 71.945,234.833 70.054,235.200 70.489 M158.200 75.145 C 154.573 78.167,150.264 82.723,147.935 86.000 C 144.444 90.911,139.686 100.336,141.157 99.426 C 141.401 99.276,141.600 98.899,141.600 98.589 C 141.600 98.278,141.925 97.434,142.323 96.712 C 142.720 95.990,143.298 94.770,143.608 94.000 C 145.755 88.652,152.928 79.830,159.607 74.322 C 160.593 73.509,161.310 72.836,161.200 72.828 C 161.090 72.819,159.740 73.862,158.200 75.145 M254.586 90.300 C 254.935 91.015,255.306 91.600,255.410 91.600 C 255.808 91.600,255.552 90.963,254.767 90.000 L 253.952 89.000 254.586 90.300 M258.251 97.574 C 258.627 99.039,259.571 101.086,259.555 100.400 C 259.547 100.070,259.194 99.080,258.771 98.200 C 258.348 97.320,258.114 97.038,258.251 97.574 M140.109 101.405 C 139.244 104.274,139.100 105.068,139.568 104.400 C 139.799 104.070,139.991 103.431,139.994 102.980 C 139.997 102.529,140.197 101.963,140.438 101.722 C 140.678 101.482,140.811 100.953,140.733 100.547 C 140.640 100.064,140.425 100.361,140.109 101.405 M259.730 101.800 C 259.850 102.240,260.140 103.365,260.374 104.300 C 260.609 105.235,260.980 106.696,261.200 107.546 C 261.420 108.397,261.600 109.837,261.600 110.746 L 261.600 112.400 200.000 112.400 L 138.400 112.400 138.354 110.700 L 138.308 109.000 137.999 110.600 C 137.792 111.671,137.840 112.297,138.145 112.494 C 138.677 112.837,260.844 112.912,261.737 112.569 C 262.177 112.400,262.287 111.940,262.144 110.869 C 261.776 108.112,260.275 101.801,259.892 101.400 C 259.646 101.142,259.588 101.284,259.730 101.800 M138.653 106.541 C 138.486 107.388,138.441 108.175,138.555 108.288 C 138.858 108.591,139.297 106.585,139.114 105.732 C 139.020 105.290,138.837 105.611,138.653 106.541 M122.000 125.083 C 116.867 125.223,116.384 125.328,114.816 126.648 C 111.432 129.495,111.898 134.334,115.774 136.606 L 117.470 137.600 192.035 137.501 L 266.600 137.402 196.533 137.300 L 126.465 137.198 125.781 135.406 C 124.993 133.344,125.122 128.173,126.008 126.301 L 126.527 125.202 197.164 125.100 L 267.800 124.998 197.000 124.983 C 158.060 124.975,124.310 125.020,122.000 125.083 M262.499 206.299 L 262.400 262.397 200.100 262.500 L 137.800 262.603 200.113 262.701 C 249.667 262.780,262.464 262.698,262.615 262.300 C 262.720 262.025,262.759 236.690,262.701 206.000 L 262.597 150.200 262.499 206.299 M198.100 156.294 C 199.145 156.376,200.855 156.376,201.900 156.294 C 202.945 156.212,202.090 156.144,200.000 156.144 C 197.910 156.144,197.055 156.212,198.100 156.294 M192.000 156.800 L 190.600 157.095 192.000 157.100 C 192.770 157.103,193.940 156.968,194.600 156.800 L 195.800 156.495 194.600 156.500 C 193.940 156.503,192.770 156.638,192.000 156.800 M205.400 156.800 C 206.060 156.968,207.230 157.106,208.000 157.107 L 209.400 157.108 207.800 156.777 C 205.645 156.331,203.634 156.351,205.400 156.800 M188.000 157.600 L 187.000 157.920 188.000 157.954 C 188.550 157.973,189.270 157.813,189.600 157.600 C 190.364 157.106,189.542 157.106,188.000 157.600 M210.400 157.600 C 210.730 157.813,211.450 157.973,212.000 157.954 L 213.000 157.920 212.000 157.600 C 210.458 157.106,209.636 157.106,210.400 157.600 M185.200 158.400 C 184.376 158.664,184.341 158.726,185.000 158.754 C 185.440 158.773,186.070 158.613,186.400 158.400 C 187.101 157.947,186.614 157.947,185.200 158.400 M213.600 158.382 C 213.930 158.605,214.545 158.791,214.967 158.794 C 215.990 158.802,215.671 158.573,214.200 158.244 C 213.324 158.048,213.162 158.085,213.600 158.382 M182.270 159.381 C 180.507 160.009,179.986 160.400,180.910 160.400 C 181.263 160.400,181.664 160.220,181.800 160.000 C 181.936 159.780,182.386 159.600,182.800 159.600 C 183.214 159.600,183.664 159.420,183.800 159.200 C 184.100 158.715,184.155 158.709,182.270 159.381 M216.144 159.078 C 216.490 159.423,220.400 160.785,220.400 160.560 C 220.400 160.358,218.790 159.691,217.046 159.170 C 216.411 158.980,216.005 158.939,216.144 159.078 M178.100 161.226 C 177.165 161.665,176.400 162.119,176.400 162.235 C 176.400 162.352,176.535 162.377,176.700 162.291 C 176.865 162.205,177.675 161.826,178.500 161.448 C 179.325 161.071,180.000 160.681,180.000 160.581 C 180.000 160.333,180.016 160.328,178.100 161.226 M220.833 160.949 C 221.245 161.317,223.600 162.400,223.600 162.221 C 223.600 161.990,221.382 160.800,220.953 160.800 C 220.796 160.800,220.742 160.867,220.833 160.949 M174.081 163.372 C 172.325 164.614,171.897 165.145,173.400 164.218 C 175.478 162.935,176.191 162.399,175.789 162.420 C 175.575 162.430,174.807 162.859,174.081 163.372 M225.498 163.506 C 226.432 164.108,227.482 165.200,227.832 165.932 C 228.182 166.665,228.561 167.173,228.673 167.060 C 229.329 166.404,225.382 162.380,224.109 162.406 C 223.939 162.410,224.564 162.905,225.498 163.506 M169.506 166.507 C 168.244 167.438,167.209 168.335,167.206 168.500 C 167.203 168.664,168.280 167.960,169.600 166.935 C 171.709 165.297,172.267 164.781,171.900 164.807 C 171.845 164.811,170.768 165.576,169.506 166.507 M228.893 168.800 C 228.893 169.570,228.975 169.885,229.076 169.500 C 229.176 169.115,229.176 168.485,229.076 168.100 C 228.975 167.715,228.893 168.030,228.893 168.800 M115.569 169.710 C 114.826 170.210,113.810 171.226,113.310 171.969 L 112.400 173.318 112.400 206.075 C 112.400 237.870,112.423 238.877,113.188 240.376 C 114.051 242.068,116.386 243.757,117.496 243.492 C 118.128 243.341,118.118 243.294,117.400 243.032 C 115.479 242.332,114.543 241.545,113.711 239.928 L 112.823 238.200 112.811 206.124 C 112.804 185.159,112.939 173.962,113.200 173.800 C 113.420 173.664,113.600 173.237,113.600 172.851 C 113.600 171.598,116.770 169.200,118.426 169.200 C 118.655 169.200,118.800 183.594,118.800 206.400 L 118.800 243.600 121.800 243.600 L 124.800 243.600 124.800 206.200 L 124.800 168.800 120.859 168.800 C 117.423 168.800,116.746 168.916,115.569 169.710 M163.802 171.685 C 161.278 174.409,158.686 177.798,156.983 180.600 C 155.724 182.671,156.987 181.131,159.140 177.970 C 160.275 176.303,162.455 173.611,163.986 171.987 C 165.516 170.363,166.708 168.975,166.635 168.902 C 166.563 168.829,165.288 170.081,163.802 171.685 M194.600 168.991 C 194.380 169.062,192.862 169.428,191.227 169.804 C 173.351 173.919,160.504 192.074,162.748 210.051 C 167.048 244.505,209.645 255.778,230.553 227.996 C 238.093 217.977,239.641 204.705,234.750 192.000 C 233.281 188.182,233.244 185.943,234.621 184.137 C 237.432 180.451,243.034 180.914,244.969 184.992 C 245.665 186.458,246.157 186.917,245.728 185.700 C 244.365 181.829,240.337 180.227,236.310 181.953 C 232.939 183.398,231.986 187.394,233.963 191.800 C 238.301 201.471,237.869 213.246,232.809 223.200 C 230.349 228.040,229.039 228.775,219.600 230.615 C 216.963 231.129,205.807 231.419,207.700 230.924 C 208.085 230.824,208.400 230.575,208.400 230.371 C 208.400 230.167,208.749 230.000,209.176 230.000 C 209.603 230.000,210.064 229.820,210.200 229.600 C 210.336 229.380,210.797 229.200,211.224 229.200 C 211.651 229.200,212.000 229.064,212.000 228.898 C 212.000 228.731,212.495 228.374,213.100 228.103 C 217.441 226.163,222.790 219.188,224.529 213.200 C 225.158 211.036,225.332 202.062,224.782 200.200 C 224.046 197.710,222.127 193.172,221.653 192.800 C 221.512 192.690,220.906 191.874,220.305 190.987 C 211.199 177.550,189.095 177.665,179.584 191.200 C 179.043 191.970,178.510 192.690,178.400 192.800 C 177.922 193.278,177.200 194.839,177.200 195.395 C 177.200 195.728,177.020 196.000,176.800 196.000 C 176.580 196.000,176.400 196.349,176.400 196.776 C 176.400 197.203,176.220 197.664,176.000 197.800 C 175.780 197.936,175.600 198.541,175.600 199.144 C 175.600 199.747,175.427 200.413,175.215 200.625 C 175.003 200.837,174.778 202.898,174.715 205.205 L 174.600 209.400 173.061 206.264 C 169.046 198.078,167.662 188.256,170.022 184.693 C 171.480 182.491,175.642 178.160,177.600 176.806 C 178.370 176.274,179.090 175.740,179.200 175.619 C 179.642 175.135,183.200 173.278,186.400 171.861 C 195.196 167.967,207.452 168.667,217.329 173.628 C 222.054 176.001,226.258 175.764,227.671 173.043 L 228.109 172.200 227.154 173.050 C 224.491 175.422,222.142 175.431,217.543 173.084 C 210.819 169.653,199.071 167.558,194.600 168.991 M275.200 206.200 L 275.200 243.600 278.200 243.600 L 281.200 243.600 281.200 206.400 C 281.200 183.594,281.345 169.200,281.574 169.200 C 283.332 169.200,285.781 171.111,286.635 173.149 C 287.524 175.271,287.471 237.254,286.578 239.390 C 285.855 241.120,284.187 242.800,283.191 242.800 C 282.810 242.800,282.281 243.062,282.015 243.382 C 281.337 244.199,283.823 243.483,285.185 242.469 C 287.672 240.619,287.539 242.627,287.571 206.454 C 287.600 173.612,287.597 173.504,286.753 172.002 C 285.375 169.550,283.570 168.800,279.046 168.800 L 275.200 168.800 275.200 206.200 M204.065 181.762 C 216.144 184.073,224.153 193.172,224.695 205.200 C 225.581 224.850,204.211 237.777,187.370 227.778 C 168.364 216.495,172.563 187.492,193.968 182.196 C 198.498 181.076,200.117 181.006,204.065 181.762 M153.023 188.606 C 152.122 190.764,152.311 191.328,153.237 189.242 C 153.666 188.275,153.934 187.400,153.832 187.298 C 153.730 187.197,153.366 187.785,153.023 188.606 M246.812 189.200 C 246.812 189.530,246.987 190.070,247.200 190.400 C 247.545 190.933,247.588 190.933,247.588 190.400 C 247.588 190.070,247.413 189.530,247.200 189.200 C 246.855 188.667,246.812 188.667,246.812 189.200 M151.829 192.229 C 151.681 192.815,151.638 193.372,151.732 193.466 C 151.827 193.560,152.024 193.158,152.171 192.571 C 152.319 191.985,152.362 191.428,152.268 191.334 C 152.173 191.240,151.976 191.642,151.829 192.229 M247.656 191.600 C 247.656 191.930,247.811 192.560,248.000 193.000 C 248.217 193.504,248.344 193.578,248.344 193.200 C 248.344 192.870,248.189 192.240,248.000 191.800 C 247.783 191.296,247.656 191.222,247.656 191.600 M90.789 194.437 C 89.289 195.307,87.578 197.468,87.632 198.425 C 87.650 198.741,87.878 198.521,88.138 197.936 C 89.453 194.976,90.896 194.249,96.000 193.973 L 100.200 193.747 96.200 193.682 C 92.821 193.628,91.981 193.745,90.789 194.437 M196.938 193.906 C 196.684 194.068,198.062 194.200,200.000 194.200 C 201.938 194.200,203.316 194.068,203.062 193.906 C 202.808 193.744,201.430 193.612,200.000 193.612 C 198.570 193.612,197.192 193.744,196.938 193.906 M300.800 193.846 C 303.115 194.137,308.709 194.176,308.538 193.900 C 308.436 193.735,306.428 193.627,304.076 193.660 C 301.724 193.693,300.250 193.776,300.800 193.846 M150.978 195.378 C 150.827 196.181,150.794 196.927,150.904 197.037 C 151.014 197.147,151.227 196.581,151.378 195.778 C 151.528 194.975,151.562 194.228,151.452 194.118 C 151.342 194.008,151.128 194.575,150.978 195.378 M248.456 194.600 C 248.456 195.040,248.611 195.760,248.800 196.200 L 249.144 197.000 249.144 196.200 C 249.144 195.760,248.989 195.040,248.800 194.600 L 248.456 193.800 248.456 194.600 M193.200 195.669 C 190.329 197.654,187.568 201.582,187.625 203.600 C 187.634 203.930,188.001 203.264,188.441 202.121 C 189.429 199.550,192.125 196.492,194.449 195.306 C 195.412 194.814,195.930 194.414,195.600 194.418 C 195.270 194.422,194.190 194.985,193.200 195.669 M204.400 194.694 C 204.730 194.822,205.675 195.350,206.500 195.868 C 207.325 196.386,208.000 196.661,208.000 196.479 C 208.000 196.079,204.912 194.387,204.262 194.432 C 204.008 194.449,204.070 194.567,204.400 194.694 M309.869 195.152 C 310.346 195.551,311.111 196.490,311.567 197.239 C 312.443 198.676,312.715 198.559,311.950 197.074 C 311.320 195.851,309.943 194.397,309.430 194.413 C 309.194 194.421,309.391 194.753,309.869 195.152 M150.294 199.000 C 150.137 199.880,150.029 201.320,150.053 202.200 C 150.091 203.578,150.147 203.467,150.455 201.400 C 150.866 198.646,150.726 196.572,150.294 199.000 M209.200 197.754 C 209.200 197.979,211.091 200.837,211.474 201.190 C 211.599 201.305,211.386 200.779,210.999 200.020 C 210.339 198.723,209.200 197.288,209.200 197.754 M249.277 198.800 C 249.267 199.350,249.403 200.610,249.580 201.600 L 249.900 203.400 249.903 201.800 C 249.904 200.920,249.768 199.660,249.600 199.000 C 249.323 197.913,249.293 197.894,249.277 198.800 M312.566 206.000 C 312.566 210.070,312.625 211.735,312.698 209.700 C 312.771 207.665,312.771 204.335,312.698 202.300 C 312.625 200.265,312.566 201.930,312.566 206.000 M211.656 202.000 C 211.656 202.330,211.811 202.960,212.000 203.400 C 212.217 203.904,212.344 203.978,212.344 203.600 C 212.344 203.270,212.189 202.640,212.000 202.200 C 211.783 201.696,211.656 201.622,211.656 202.000 M212.514 206.200 C 212.517 207.300,212.595 207.703,212.687 207.095 C 212.779 206.486,212.777 205.586,212.682 205.095 C 212.587 204.603,212.511 205.100,212.514 206.200 M187.656 208.800 C 187.656 209.130,187.811 209.760,188.000 210.200 C 188.217 210.704,188.344 210.778,188.344 210.400 C 188.344 210.070,188.189 209.440,188.000 209.000 C 187.783 208.496,187.656 208.422,187.656 208.800 M211.837 209.600 C 211.259 211.600,209.816 214.084,208.671 215.047 C 208.027 215.589,207.587 216.120,207.694 216.227 C 208.407 216.941,212.696 210.272,212.290 209.081 C 212.199 208.817,211.995 209.050,211.837 209.600 M150.090 211.000 C 150.084 212.100,150.224 213.450,150.400 214.000 C 150.856 215.423,150.869 213.322,150.420 210.800 L 150.100 209.000 150.090 211.000 M249.440 211.542 C 249.281 212.940,249.237 214.170,249.342 214.276 C 249.608 214.541,250.127 210.179,249.907 209.528 C 249.810 209.238,249.599 210.144,249.440 211.542 M189.155 212.700 C 189.903 214.155,192.400 216.873,192.400 216.232 C 192.400 216.058,191.945 215.557,191.389 215.120 C 190.833 214.682,190.019 213.621,189.581 212.762 C 189.142 211.903,188.694 211.200,188.584 211.200 C 188.474 211.200,188.731 211.875,189.155 212.700 M87.601 214.300 C 87.609 215.831,90.961 218.827,92.600 218.768 C 93.200 218.746,93.099 218.622,92.200 218.270 C 90.031 217.421,89.313 216.846,88.633 215.414 C 87.996 214.071,87.598 213.641,87.601 214.300 M311.405 215.443 C 310.628 216.885,309.921 217.440,307.800 218.270 C 306.837 218.646,306.766 218.745,307.441 218.770 C 309.041 218.827,313.133 215.000,312.330 214.197 C 312.239 214.106,311.823 214.667,311.405 215.443 M150.856 216.200 C 150.856 216.640,151.011 217.360,151.200 217.800 L 151.544 218.600 151.544 217.800 C 151.544 217.360,151.389 216.640,151.200 216.200 L 150.856 215.400 150.856 216.200 M248.600 216.800 C 248.448 217.491,248.414 218.147,248.524 218.257 C 248.634 218.367,248.848 217.891,249.000 217.200 C 249.152 216.509,249.186 215.853,249.076 215.743 C 248.966 215.633,248.752 216.109,248.600 216.800 M192.800 216.596 C 192.800 216.870,195.249 218.084,195.432 217.901 C 195.519 217.814,194.962 217.444,194.195 217.078 C 193.428 216.712,192.800 216.495,192.800 216.596 M205.000 217.426 C 203.900 217.956,202.655 218.392,202.233 218.395 C 201.812 218.398,201.582 218.515,201.722 218.655 C 202.111 219.044,205.276 218.049,206.402 217.184 C 207.677 216.205,207.457 216.243,205.000 217.426 M196.400 218.400 C 196.730 218.613,197.360 218.778,197.800 218.766 L 198.600 218.744 197.800 218.400 C 196.604 217.886,195.605 217.886,196.400 218.400 M151.621 219.276 C 151.548 221.602,157.557 234.234,159.576 236.000 C 159.702 236.110,160.341 236.920,160.997 237.800 C 163.484 241.136,172.800 249.374,172.800 248.236 C 172.800 248.120,171.765 247.265,170.500 246.335 C 162.474 240.436,156.158 231.827,152.940 222.400 C 152.226 220.310,151.633 218.904,151.621 219.276 M247.800 220.000 C 247.648 220.691,247.607 221.341,247.709 221.442 C 247.811 221.544,248.009 221.053,248.150 220.350 C 248.291 219.647,248.331 218.998,248.241 218.908 C 248.150 218.817,247.952 219.309,247.800 220.000 M244.462 228.483 C 243.780 229.867,242.838 231.630,242.368 232.400 C 241.534 233.767,241.533 233.776,242.348 232.800 C 243.405 231.534,246.137 226.404,245.887 226.154 C 245.784 226.051,245.143 227.099,244.462 228.483 M239.254 236.765 C 238.123 238.285,235.624 241.021,233.699 242.843 C 231.775 244.666,230.920 245.595,231.800 244.908 C 234.611 242.715,239.979 236.868,241.356 234.500 C 242.126 233.176,241.103 234.278,239.254 236.765 M227.887 247.368 C 225.326 249.141,225.028 249.530,227.109 248.384 C 228.050 247.866,229.113 247.118,229.471 246.721 C 230.373 245.725,230.099 245.837,227.887 247.368 M173.800 249.045 C 175.617 250.454,184.215 254.318,184.623 253.910 C 184.730 253.803,183.959 253.397,182.909 253.008 C 180.168 251.991,175.976 250.008,174.738 249.143 C 173.460 248.249,172.666 248.166,173.800 249.045 M221.200 251.237 C 219.110 252.296,217.553 253.171,217.741 253.182 C 218.344 253.214,224.678 250.120,224.968 249.652 C 225.121 249.403,225.192 249.225,225.124 249.255 C 225.056 249.285,223.290 250.177,221.200 251.237 M215.600 253.600 C 215.067 253.945,215.067 253.988,215.600 253.988 C 215.930 253.988,216.470 253.813,216.800 253.600 C 217.333 253.255,217.333 253.212,216.800 253.212 C 216.470 253.212,215.930 253.387,215.600 253.600 M185.790 254.384 C 185.932 254.613,186.517 254.800,187.090 254.800 C 188.344 254.800,188.199 254.608,186.666 254.240 C 185.923 254.062,185.621 254.111,185.790 254.384 M212.800 254.400 L 211.800 254.720 212.800 254.754 C 213.350 254.773,214.070 254.613,214.400 254.400 C 215.164 253.906,214.342 253.906,212.800 254.400 M188.800 255.179 C 189.130 255.404,189.925 255.591,190.567 255.594 C 192.104 255.602,191.784 255.370,189.800 255.038 C 188.654 254.846,188.370 254.886,188.800 255.179 M209.400 255.200 L 208.200 255.505 209.400 255.547 C 210.060 255.569,210.870 255.413,211.200 255.200 C 211.943 254.720,211.287 254.720,209.400 255.200 M193.116 256.072 C 193.985 256.417,205.890 256.407,207.124 256.060 C 207.633 255.917,204.535 255.800,200.240 255.800 C 195.945 255.800,192.739 255.922,193.116 256.072 M133.779 275.176 C 130.082 275.348,128.703 275.568,127.860 276.122 C 123.985 278.668,124.447 284.806,128.662 286.787 C 131.045 287.907,269.295 288.090,271.529 286.976 C 276.235 284.628,276.193 277.920,271.459 275.628 L 269.747 274.800 204.174 274.876 C 168.108 274.917,136.431 275.052,133.779 275.176 M269.800 275.600 C 269.936 275.820,270.375 276.000,270.776 276.000 C 271.698 276.000,274.000 278.322,274.000 279.252 C 274.000 279.638,274.180 280.064,274.400 280.200 C 275.710 281.010,273.567 285.046,271.179 286.268 L 269.400 287.177 204.138 287.189 L 138.875 287.200 138.238 285.329 C 137.191 282.258,137.524 277.468,138.907 275.700 C 139.411 275.056,269.402 274.956,269.800 275.600 M145.414 300.530 C 147.336 301.274,148.354 302.167,149.191 303.842 C 149.618 304.699,149.975 305.130,149.983 304.800 C 150.025 303.033,146.820 299.966,145.000 300.032 C 144.407 300.053,144.515 300.183,145.414 300.530 M197.400 300.467 C 193.434 302.660,193.600 301.311,193.600 331.326 L 193.600 357.730 194.616 359.463 C 195.575 361.100,197.329 362.424,198.480 362.380 C 198.766 362.369,198.265 362.003,197.366 361.567 C 193.837 359.853,194.000 361.311,194.000 331.494 C 194.000 300.999,193.839 302.161,198.274 300.580 C 199.138 300.271,199.453 300.033,199.000 300.030 C 198.560 300.027,197.840 300.223,197.400 300.467 M201.726 300.580 C 202.566 300.879,203.619 301.456,204.067 301.861 C 206.043 303.649,206.000 303.001,206.000 331.226 C 206.000 361.059,206.120 359.893,202.902 361.420 C 202.150 361.776,201.623 362.156,201.730 362.264 C 202.319 362.852,204.820 360.838,205.900 358.905 C 206.916 357.087,206.592 305.051,205.553 303.202 C 204.683 301.654,202.270 299.986,200.946 300.018 C 200.535 300.027,200.887 300.280,201.726 300.580 M253.800 300.400 C 253.508 300.873,253.899 300.873,255.000 300.400 C 255.771 300.069,255.769 300.055,254.924 300.028 C 254.442 300.013,253.936 300.180,253.800 300.400 M262.497 331.284 L 262.400 362.369 258.900 362.502 L 255.400 362.635 258.913 362.718 C 261.417 362.776,262.480 362.657,262.616 362.300 C 262.721 362.025,262.759 347.940,262.701 331.000 L 262.595 300.200 262.497 331.284 M161.668 301.600 C 161.662 302.150,161.811 302.960,162.000 303.400 L 162.344 304.200 162.332 303.400 C 162.326 302.960,162.176 302.150,162.000 301.600 L 161.680 300.600 161.668 301.600 M251.601 301.798 C 251.086 302.348,250.752 302.886,250.861 302.994 C 250.969 303.103,251.574 302.654,252.204 301.996 C 252.834 301.338,253.167 300.800,252.945 300.800 C 252.722 300.800,252.117 301.249,251.601 301.798 M237.800 302.400 C 237.648 303.091,237.614 303.747,237.724 303.857 C 237.834 303.967,238.048 303.491,238.200 302.800 C 238.352 302.109,238.386 301.453,238.276 301.343 C 238.166 301.233,237.952 301.709,237.800 302.400 M218.075 302.200 C 218.086 302.640,218.232 303.540,218.400 304.200 L 218.705 305.400 218.725 304.200 C 218.735 303.540,218.589 302.640,218.400 302.200 L 218.056 301.400 218.075 302.200 M181.443 302.633 C 181.108 303.505,181.191 359.235,181.528 360.085 C 181.678 360.462,181.800 347.547,181.800 331.385 C 181.800 315.223,181.774 302.000,181.743 302.000 C 181.711 302.000,181.576 302.285,181.443 302.633 M250.267 303.867 C 250.120 304.013,250.011 304.508,250.025 304.967 C 250.049 305.733,250.082 305.723,250.434 304.842 C 250.826 303.863,250.744 303.389,250.267 303.867 M162.588 331.200 C 162.588 344.950,162.638 350.575,162.700 343.700 C 162.761 336.825,162.761 325.575,162.700 318.700 C 162.638 311.825,162.588 317.450,162.588 331.200 M250.033 357.400 C 249.969 359.099,252.991 362.404,254.600 362.395 C 254.820 362.393,254.257 361.947,253.349 361.403 C 251.898 360.533,251.081 359.415,250.280 357.200 C 250.126 356.773,250.054 356.831,250.033 357.400 M149.000 358.960 C 148.495 359.994,147.609 360.942,146.600 361.525 C 145.555 362.129,145.347 362.356,146.000 362.179 C 147.699 361.719,150.334 358.666,149.924 357.633 C 149.856 357.461,149.440 358.058,149.000 358.960 M218.464 357.650 C 218.429 358.007,218.298 358.908,218.173 359.650 C 217.988 360.755,218.029 360.871,218.398 360.291 C 218.646 359.902,218.777 359.002,218.689 358.291 C 218.600 357.581,218.499 357.293,218.464 357.650 M237.668 359.000 C 237.674 359.440,237.824 360.250,238.000 360.800 L 238.320 361.800 238.332 360.800 C 238.338 360.250,238.189 359.440,238.000 359.000 L 237.656 358.200 237.668 359.000 M161.800 360.000 C 161.648 360.691,161.607 361.341,161.709 361.442 C 161.811 361.544,162.009 361.053,162.150 360.350 C 162.483 358.683,162.160 358.360,161.800 360.000 M182.000 361.726 C 182.000 362.319,180.972 362.398,171.900 362.500 L 161.800 362.614 171.913 362.707 C 182.060 362.800,183.535 362.602,182.249 361.316 C 182.112 361.179,182.000 361.364,182.000 361.726 M217.703 362.000 C 217.843 362.513,219.342 362.602,228.033 362.611 L 238.200 362.622 228.219 362.504 C 220.882 362.417,218.146 362.255,217.889 361.893 C 217.634 361.534,217.584 361.563,217.703 362.000 M139.500 362.693 C 140.435 362.777,141.965 362.777,142.900 362.693 C 143.835 362.609,143.070 362.540,141.200 362.540 C 139.330 362.540,138.565 362.609,139.500 362.693 M122.000 375.083 C 116.867 375.223,116.384 375.328,114.816 376.648 C 111.432 379.495,111.898 384.334,115.774 386.606 L 117.470 387.600 200.141 387.600 C 265.533 387.600,282.998 387.496,283.705 387.100 C 289.050 384.113,288.936 377.687,283.498 375.415 C 282.164 374.858,140.918 374.567,122.000 375.083 M282.305 375.539 C 284.890 376.803,285.487 377.316,286.335 379.003 C 287.903 382.124,286.415 385.441,282.897 386.667 C 281.687 387.088,266.554 387.189,203.933 387.194 L 126.466 387.200 125.781 385.407 C 124.993 383.343,125.122 378.174,126.008 376.300 L 126.528 375.200 204.070 375.200 C 246.717 375.200,281.923 375.353,282.305 375.539 " stroke="none" fill="#5b676f" fill-rule="evenodd"></path><path id="path4" d="M266.200 125.667 C 261.776 128.114,261.274 133.950,265.277 136.390 C 267.277 137.610,282.308 137.619,284.304 136.402 C 288.509 133.838,288.184 128.308,283.675 125.700 C 282.542 125.045,267.377 125.016,266.200 125.667 " stroke="none" fill="#fcfcfc" fill-rule="evenodd"></path></g></svg>