<svg id="svg" version="1.1" xmlns="http://www.w3.org/2000/svg" xmlns:xlink="http://www.w3.org/1999/xlink" width="400" height="478.3216783216783" viewBox="0, 0, 400,478.3216783216783"><g id="svgg"><path id="path0" d="M9.600 239.200 C 9.600 451.200,9.667 478.000,10.200 478.000 C 10.733 478.000,10.800 451.200,10.800 239.200 C 10.800 27.200,10.733 0.400,10.200 0.400 C 9.667 0.400,9.600 27.200,9.600 239.200 M134.800 8.567 C 134.800 9.421,134.643 9.414,149.064 9.200 C 159.340 9.047,162.573 8.881,162.700 8.500 C 162.831 8.106,159.882 8.000,148.833 8.000 C 136.993 8.000,134.800 8.089,134.800 8.567 M122.800 9.400 C 122.800 9.876,123.378 10.000,125.600 10.000 C 127.822 10.000,128.400 9.876,128.400 9.400 C 128.400 8.924,127.822 8.800,125.600 8.800 C 123.378 8.800,122.800 8.924,122.800 9.400 M167.200 9.400 C 167.200 9.853,167.689 10.000,169.200 10.000 C 170.711 10.000,171.200 9.853,171.200 9.400 C 171.200 8.947,170.711 8.800,169.200 8.800 C 167.689 8.800,167.200 8.947,167.200 9.400 M108.800 10.200 C 108.800 10.676,108.222 10.800,106.000 10.800 C 104.400 10.800,103.200 10.971,103.200 11.200 C 103.200 11.429,102.000 11.600,100.400 11.600 C 98.800 11.600,97.600 11.771,97.600 12.000 C 97.600 12.229,96.400 12.400,94.800 12.400 C 92.295 12.400,92.000 12.482,92.000 13.176 C 92.000 14.328,92.231 14.349,96.800 13.598 C 103.056 12.571,108.218 11.855,115.900 10.951 C 119.711 10.503,117.907 9.600,113.200 9.600 C 109.556 9.600,108.800 9.703,108.800 10.200 M174.000 10.192 C 174.000 10.518,174.405 10.862,174.900 10.957 C 179.201 11.783,181.031 12.180,183.800 12.889 C 185.560 13.340,187.540 13.797,188.200 13.905 C 188.860 14.012,189.580 14.240,189.800 14.411 C 190.661 15.080,192.178 15.013,192.319 14.300 C 192.431 13.738,192.177 13.600,191.029 13.600 C 190.025 13.600,189.600 13.421,189.600 13.000 C 189.600 12.581,189.178 12.400,188.200 12.400 C 187.430 12.400,186.800 12.220,186.800 12.000 C 186.800 11.780,185.990 11.600,185.000 11.600 C 184.010 11.600,183.200 11.420,183.200 11.200 C 183.200 10.980,182.409 10.800,181.443 10.800 C 180.250 10.800,179.612 10.607,179.455 10.200 C 179.124 9.337,174.000 9.330,174.000 10.192 M87.200 14.200 C 87.200 14.810,87.566 14.938,89.000 14.834 C 92.190 14.601,92.515 13.600,89.400 13.600 C 87.711 13.600,87.200 13.739,87.200 14.200 M83.600 15.000 C 83.600 15.419,84.022 15.600,85.000 15.600 C 85.978 15.600,86.400 15.419,86.400 15.000 C 86.400 14.581,85.978 14.400,85.000 14.400 C 84.022 14.400,83.600 14.581,83.600 15.000 M192.804 14.900 C 192.807 15.175,194.202 15.906,195.904 16.526 C 197.607 17.145,199.360 17.798,199.800 17.978 C 200.240 18.157,201.410 18.614,202.400 18.993 C 203.390 19.372,204.513 19.844,204.895 20.041 C 205.903 20.562,206.400 20.483,206.400 19.800 C 206.400 19.470,206.059 19.200,205.643 19.200 C 205.226 19.200,204.782 18.930,204.655 18.600 C 204.529 18.270,204.059 18.000,203.613 18.000 C 203.166 18.000,202.800 17.820,202.800 17.600 C 202.800 17.380,202.350 17.200,201.800 17.200 C 201.250 17.200,200.800 17.020,200.800 16.800 C 200.800 16.580,200.189 16.400,199.443 16.400 C 198.605 16.400,197.997 16.170,197.855 15.800 C 197.721 15.449,197.121 15.200,196.413 15.200 C 195.746 15.200,195.200 15.020,195.200 14.800 C 195.200 14.580,194.660 14.400,194.000 14.400 C 193.304 14.400,192.802 14.610,192.804 14.900 M76.800 15.800 C 76.800 16.244,76.333 16.400,75.000 16.400 C 74.010 16.400,73.200 16.580,73.200 16.800 C 73.200 17.020,72.390 17.200,71.400 17.200 C 70.410 17.200,69.600 17.380,69.600 17.600 C 69.600 17.820,68.700 18.000,67.600 18.000 C 66.071 18.000,65.600 18.144,65.600 18.613 C 65.600 19.619,66.641 19.723,69.700 19.021 C 71.295 18.655,73.365 18.186,74.300 17.978 C 75.235 17.770,76.765 17.427,77.700 17.215 C 78.635 17.004,79.985 16.720,80.700 16.584 C 83.146 16.118,82.283 15.200,79.400 15.200 C 77.356 15.200,76.800 15.328,76.800 15.800 M62.900 19.700 C 62.992 19.975,63.487 20.200,64.000 20.200 C 64.513 20.200,65.008 19.975,65.100 19.700 C 65.210 19.370,64.836 19.200,64.000 19.200 C 63.164 19.200,62.790 19.370,62.900 19.700 M59.200 20.567 C 59.200 21.260,59.870 21.514,61.085 21.282 C 62.579 20.996,62.202 20.000,60.600 20.000 C 59.659 20.000,59.200 20.186,59.200 20.567 M206.800 20.600 C 206.800 20.933,207.156 21.200,207.600 21.200 C 208.044 21.200,208.400 20.933,208.400 20.600 C 208.400 20.267,208.044 20.000,207.600 20.000 C 207.156 20.000,206.800 20.267,206.800 20.600 M54.400 21.400 C 54.400 21.819,53.978 22.000,53.000 22.000 C 52.230 22.000,51.600 22.180,51.600 22.400 C 51.600 22.620,50.970 22.800,50.200 22.800 C 49.430 22.800,48.800 22.980,48.800 23.200 C 48.800 23.420,48.170 23.600,47.400 23.600 C 46.409 23.600,46.000 23.779,46.000 24.213 C 46.000 25.171,47.004 25.325,49.085 24.686 C 50.138 24.363,51.720 23.898,52.600 23.654 C 58.891 21.908,60.366 20.800,56.400 20.800 C 54.889 20.800,54.400 20.947,54.400 21.400 M208.800 21.300 C 208.801 21.575,210.792 22.780,213.224 23.977 C 215.657 25.174,217.738 26.299,217.848 26.477 C 217.957 26.655,218.467 26.800,218.981 26.800 C 219.494 26.800,220.018 27.070,220.145 27.400 C 220.271 27.730,220.651 28.000,220.987 28.000 C 221.324 28.000,221.600 28.180,221.600 28.400 C 221.600 28.620,221.789 28.800,222.019 28.800 C 222.250 28.800,223.423 29.430,224.627 30.200 C 225.831 30.970,226.992 31.600,227.208 31.600 C 227.423 31.600,227.600 31.735,227.600 31.900 C 227.601 32.065,228.546 32.729,229.700 33.376 C 230.855 34.023,232.631 35.148,233.648 35.876 C 234.664 36.604,235.684 37.200,235.914 37.200 C 236.145 37.200,236.393 37.356,236.467 37.547 C 236.540 37.738,238.490 39.213,240.800 40.826 C 243.110 42.438,245.707 44.352,246.572 45.079 C 247.437 45.805,248.292 46.400,248.472 46.400 C 248.652 46.400,249.130 46.715,249.534 47.100 C 249.938 47.485,251.305 48.520,252.573 49.400 C 253.841 50.280,255.085 51.180,255.339 51.400 C 256.677 52.561,258.800 54.000,259.173 54.000 C 259.408 54.000,259.600 54.141,259.600 54.314 C 259.600 54.486,260.185 54.972,260.900 55.394 C 261.615 55.815,262.549 56.484,262.975 56.880 C 263.402 57.276,263.909 57.600,264.102 57.600 C 264.295 57.600,265.043 58.050,265.764 58.600 C 266.486 59.150,267.269 59.600,267.504 59.600 C 267.740 59.600,267.993 59.742,268.067 59.917 C 268.390 60.684,282.963 68.800,284.018 68.800 C 284.260 68.800,284.719 69.062,285.040 69.383 C 285.707 70.050,286.800 69.786,286.800 68.957 C 286.800 68.630,286.388 68.400,285.800 68.400 C 285.250 68.400,284.800 68.220,284.800 68.000 C 284.800 67.780,284.427 67.600,283.971 67.600 C 283.086 67.600,282.000 66.734,282.000 66.029 C 282.000 65.793,281.550 65.600,281.000 65.600 C 280.450 65.600,280.000 65.420,280.000 65.200 C 280.000 64.980,279.640 64.800,279.200 64.800 C 278.760 64.800,278.400 64.620,278.400 64.400 C 278.400 64.180,277.950 64.000,277.400 64.000 C 276.778 64.000,276.400 63.773,276.400 63.400 C 276.400 63.027,276.022 62.800,275.400 62.800 C 274.850 62.800,274.400 62.620,274.400 62.400 C 274.400 62.180,274.040 62.000,273.600 62.000 C 273.160 62.000,272.800 61.820,272.800 61.600 C 272.800 61.380,272.530 61.200,272.200 61.200 C 271.870 61.200,271.600 60.930,271.600 60.600 C 271.600 60.267,271.244 60.000,270.800 60.000 C 270.360 60.000,270.000 59.820,270.000 59.600 C 270.000 59.380,269.627 59.200,269.171 59.200 C 268.286 59.200,267.200 58.334,267.200 57.629 C 267.200 57.393,266.790 57.200,266.288 57.200 C 265.787 57.200,265.117 56.840,264.800 56.400 C 264.483 55.960,263.813 55.600,263.312 55.600 C 262.810 55.600,262.400 55.407,262.400 55.171 C 262.400 54.524,261.342 53.600,260.600 53.600 C 259.953 53.600,258.800 52.703,258.800 52.200 C 258.800 51.672,257.631 50.800,256.924 50.800 C 256.520 50.800,255.852 50.350,255.439 49.800 C 255.026 49.250,254.393 48.800,254.032 48.800 C 253.672 48.800,253.117 48.440,252.800 48.000 C 252.483 47.560,251.993 47.200,251.712 47.200 C 251.430 47.200,251.200 46.930,251.200 46.600 C 251.200 46.267,250.844 46.000,250.400 46.000 C 249.960 46.000,249.600 45.820,249.600 45.600 C 249.600 45.380,249.407 45.200,249.171 45.200 C 248.618 45.200,247.600 44.182,247.600 43.629 C 247.600 43.393,247.195 43.196,246.700 43.191 C 246.176 43.186,245.301 42.602,244.604 41.791 C 243.946 41.026,243.131 40.400,242.792 40.400 C 242.454 40.400,241.917 40.040,241.600 39.600 C 241.283 39.160,240.613 38.800,240.112 38.800 C 239.610 38.800,239.200 38.607,239.200 38.371 C 239.200 37.724,238.142 36.800,237.400 36.800 C 236.658 36.800,235.600 35.876,235.600 35.229 C 235.600 34.993,235.330 34.800,235.000 34.800 C 234.670 34.800,234.400 34.620,234.400 34.400 C 234.400 34.180,234.040 34.000,233.600 34.000 C 233.160 34.000,232.800 33.820,232.800 33.600 C 232.800 33.380,232.530 33.200,232.200 33.200 C 231.870 33.200,231.600 32.930,231.600 32.600 C 231.600 32.267,231.244 32.000,230.800 32.000 C 230.360 32.000,230.000 31.820,230.000 31.600 C 230.000 31.380,229.627 31.200,229.171 31.200 C 228.286 31.200,227.200 30.334,227.200 29.629 C 227.200 29.393,226.750 29.200,226.200 29.200 C 225.650 29.200,225.200 29.020,225.200 28.800 C 225.200 28.580,224.750 28.400,224.200 28.400 C 223.650 28.400,223.200 28.220,223.200 28.000 C 223.200 27.780,222.840 27.600,222.400 27.600 C 221.956 27.600,221.600 27.333,221.600 27.000 C 221.600 26.642,221.232 26.400,220.688 26.400 C 220.187 26.400,219.517 26.040,219.200 25.600 C 218.883 25.160,218.213 24.800,217.712 24.800 C 217.168 24.800,216.800 24.558,216.800 24.200 C 216.800 23.827,216.422 23.600,215.800 23.600 C 215.250 23.600,214.800 23.420,214.800 23.200 C 214.800 22.980,214.440 22.800,214.000 22.800 C 213.560 22.800,213.200 22.620,213.200 22.400 C 213.200 22.180,212.750 22.000,212.200 22.000 C 211.578 22.000,211.200 21.773,211.200 21.400 C 211.200 21.000,210.800 20.800,210.000 20.800 C 209.306 20.800,208.800 21.011,208.800 21.300 M43.300 25.300 C 43.392 25.575,43.977 25.800,44.600 25.800 C 45.223 25.800,45.808 25.575,45.900 25.300 C 46.013 24.961,45.596 24.800,44.600 24.800 C 43.604 24.800,43.187 24.961,43.300 25.300 M41.600 26.200 C 41.600 26.533,41.956 26.800,42.400 26.800 C 42.844 26.800,43.200 26.533,43.200 26.200 C 43.200 25.867,42.844 25.600,42.400 25.600 C 41.956 25.600,41.600 25.867,41.600 26.200 M37.745 27.000 C 37.603 27.370,36.995 27.600,36.157 27.600 C 35.411 27.600,34.800 27.780,34.800 28.000 C 34.800 28.220,34.170 28.400,33.400 28.400 C 32.630 28.400,32.000 28.580,32.000 28.800 C 32.000 29.020,31.640 29.200,31.200 29.200 C 30.756 29.200,30.400 29.467,30.400 29.800 C 30.400 30.219,29.978 30.400,29.000 30.400 C 28.230 30.400,27.600 30.580,27.600 30.800 C 27.600 31.020,26.970 31.200,26.200 31.200 C 25.430 31.200,24.800 31.380,24.800 31.600 C 24.800 31.820,24.434 32.000,23.987 32.000 C 23.541 32.000,23.071 32.270,22.945 32.600 C 22.818 32.930,22.284 33.200,21.757 33.200 C 21.231 33.200,20.800 33.380,20.800 33.600 C 20.800 33.820,20.170 34.000,19.400 34.000 C 18.630 34.000,18.000 34.180,18.000 34.400 C 18.000 34.620,17.640 34.800,17.200 34.800 C 16.756 34.800,16.400 35.067,16.400 35.400 C 16.400 35.740,16.041 36.000,15.571 36.000 C 14.589 36.000,13.600 36.889,13.600 37.771 C 13.600 38.117,13.870 38.400,14.200 38.400 C 14.530 38.400,14.800 38.252,14.800 38.071 C 14.800 37.584,19.335 35.421,24.200 33.587 C 25.520 33.090,27.140 32.458,27.800 32.184 C 29.964 31.285,37.553 28.541,39.500 27.954 C 40.215 27.739,40.800 27.301,40.800 26.981 C 40.800 26.169,38.057 26.186,37.745 27.000 M397.600 38.200 C 397.600 38.530,397.420 38.800,397.200 38.800 C 396.980 38.800,396.800 39.160,396.800 39.600 C 396.800 40.040,396.620 40.400,396.400 40.400 C 396.180 40.400,396.000 40.670,396.000 41.000 C 396.000 41.330,395.812 41.600,395.582 41.600 C 395.039 41.600,393.200 43.439,393.200 43.982 C 393.200 44.212,392.970 44.400,392.688 44.400 C 392.407 44.400,391.917 44.760,391.600 45.200 C 391.283 45.640,390.613 46.000,390.112 46.000 C 389.610 46.000,389.200 46.188,389.200 46.418 C 389.200 46.961,387.361 48.800,386.818 48.800 C 386.588 48.800,386.400 48.988,386.400 49.218 C 386.400 49.761,384.561 51.600,384.018 51.600 C 383.788 51.600,383.600 51.788,383.600 52.018 C 383.600 52.747,381.669 54.400,380.818 54.400 C 380.368 54.400,380.000 54.593,380.000 54.829 C 380.000 55.295,379.015 56.400,378.600 56.400 C 378.266 56.400,377.200 57.466,377.200 57.800 C 377.200 58.303,376.047 59.200,375.400 59.200 C 374.658 59.200,373.600 60.124,373.600 60.771 C 373.600 61.007,373.407 61.200,373.171 61.200 C 372.618 61.200,371.600 62.218,371.600 62.771 C 371.600 63.007,371.870 63.200,372.200 63.200 C 372.530 63.200,372.800 63.059,372.800 62.886 C 372.800 62.714,373.295 62.273,373.900 61.906 C 374.505 61.540,375.484 60.826,376.075 60.320 C 376.665 59.814,378.240 58.528,379.575 57.462 C 380.909 56.395,382.000 55.360,382.000 55.162 C 382.000 54.963,382.255 54.800,382.567 54.800 C 382.878 54.800,383.193 54.665,383.267 54.500 C 383.340 54.335,384.750 53.035,386.400 51.611 C 388.050 50.187,391.624 46.812,394.341 44.111 C 397.059 41.410,399.444 39.200,399.641 39.200 C 399.839 39.200,400.000 38.840,400.000 38.400 C 400.000 37.778,399.733 37.600,398.800 37.600 C 398.000 37.600,397.600 37.800,397.600 38.200 M369.600 63.400 C 369.600 63.733,369.244 64.000,368.800 64.000 C 368.360 64.000,368.000 64.180,368.000 64.400 C 368.000 64.620,367.627 64.800,367.171 64.800 C 366.286 64.800,365.200 65.666,365.200 66.371 C 365.200 66.607,364.750 66.800,364.200 66.800 C 363.650 66.800,363.200 66.980,363.200 67.200 C 363.200 67.420,362.750 67.600,362.200 67.600 C 361.650 67.600,361.200 67.780,361.200 68.000 C 361.200 68.220,360.840 68.400,360.400 68.400 C 359.956 68.400,359.600 68.667,359.600 69.000 C 359.600 69.419,359.178 69.600,358.200 69.600 C 357.430 69.600,356.800 69.780,356.800 70.000 C 356.800 70.220,356.350 70.400,355.800 70.400 C 355.250 70.400,354.800 70.580,354.800 70.800 C 354.800 71.020,354.170 71.200,353.400 71.200 C 352.422 71.200,352.000 71.381,352.000 71.800 C 352.000 72.173,351.622 72.400,351.000 72.400 C 349.891 72.400,349.649 73.090,350.626 73.465 C 351.256 73.707,354.774 72.470,359.600 70.311 C 367.964 66.569,373.382 62.800,370.400 62.800 C 369.956 62.800,369.600 63.067,369.600 63.400 M287.200 70.010 C 287.200 70.235,287.605 70.578,288.100 70.772 C 288.595 70.966,289.540 71.349,290.200 71.624 C 294.896 73.581,296.800 73.978,296.800 73.000 C 296.800 72.581,296.378 72.400,295.400 72.400 C 294.422 72.400,294.000 72.219,294.000 71.800 C 294.000 71.467,293.644 71.200,293.200 71.200 C 292.760 71.200,292.400 71.020,292.400 70.800 C 292.400 70.580,291.770 70.400,291.000 70.400 C 290.230 70.400,289.600 70.220,289.600 70.000 C 289.600 69.780,289.060 69.600,288.400 69.600 C 287.740 69.600,287.200 69.784,287.200 70.010 M297.200 73.613 C 297.200 74.081,298.843 74.799,299.300 74.529 C 300.100 74.059,299.518 73.200,298.400 73.200 C 297.740 73.200,297.200 73.386,297.200 73.613 M346.400 73.776 C 346.400 74.612,346.915 74.807,348.208 74.461 C 350.026 73.975,349.919 73.200,348.033 73.200 C 346.878 73.200,346.400 73.369,346.400 73.776 M300.400 74.600 C 300.400 74.973,300.778 75.200,301.400 75.200 C 302.022 75.200,302.400 74.973,302.400 74.600 C 302.400 74.227,302.022 74.000,301.400 74.000 C 300.778 74.000,300.400 74.227,300.400 74.600 M343.600 74.567 C 343.600 75.236,344.322 75.542,345.300 75.288 C 346.496 74.978,346.116 74.000,344.800 74.000 C 344.031 74.000,343.600 74.204,343.600 74.567 M304.400 75.592 C 304.400 76.011,304.662 76.082,309.000 76.846 C 312.742 77.504,333.133 77.489,337.200 76.825 C 341.732 76.085,342.000 76.016,342.000 75.592 C 342.000 75.371,340.694 75.200,339.000 75.200 C 337.267 75.200,336.000 75.369,336.000 75.600 C 336.000 75.858,331.400 76.000,323.000 76.000 C 314.600 76.000,310.000 75.858,310.000 75.600 C 310.000 75.371,308.800 75.200,307.200 75.200 C 305.636 75.200,304.400 75.373,304.400 75.592 M92.700 209.894 C 89.222 210.168,90.231 211.200,93.976 211.200 C 97.084 211.200,98.336 210.712,97.151 209.961 C 96.602 209.614,96.311 209.609,92.700 209.894 M120.300 209.826 C 119.300 210.850,120.089 211.200,123.400 211.200 C 126.156 211.200,126.800 211.086,126.800 210.600 C 126.800 210.213,126.410 209.999,125.700 209.997 C 125.095 209.995,123.700 209.886,122.600 209.756 C 121.500 209.626,120.465 209.657,120.300 209.826 M87.000 210.671 C 85.288 210.907,75.805 212.748,73.225 213.346 C 70.231 214.039,70.096 214.800,72.967 214.800 C 74.195 214.800,75.200 214.620,75.200 214.400 C 75.200 214.180,76.190 214.000,77.400 214.000 C 79.089 214.000,79.600 213.861,79.600 213.400 C 79.600 212.933,80.133 212.800,82.000 212.800 C 83.333 212.800,84.400 212.622,84.400 212.400 C 84.400 212.171,85.610 212.000,87.229 212.000 C 89.708 212.000,90.042 211.913,89.925 211.300 C 89.785 210.565,88.998 210.396,87.000 210.671 M127.200 211.161 C 127.200 211.933,127.423 212.000,130.000 212.000 C 131.600 212.000,132.800 212.171,132.800 212.400 C 132.800 212.622,133.867 212.800,135.200 212.800 C 137.067 212.800,137.600 212.933,137.600 213.400 C 137.600 213.861,138.111 214.000,139.800 214.000 C 143.232 214.000,142.661 213.091,138.700 212.250 C 136.885 211.865,134.680 211.387,133.800 211.189 C 129.721 210.271,127.200 210.261,127.200 211.161 M142.283 213.729 C 141.957 214.577,142.328 214.800,144.067 214.800 C 145.163 214.800,145.600 214.629,145.600 214.200 C 145.600 213.870,145.285 213.598,144.900 213.595 C 144.515 213.592,143.820 213.487,143.355 213.362 C 142.815 213.217,142.428 213.350,142.283 213.729 M67.700 214.665 C 66.657 215.086,67.263 215.600,68.800 215.600 C 69.956 215.600,70.400 215.433,70.400 215.000 C 70.400 214.408,68.823 214.212,67.700 214.665 M147.084 214.650 C 146.489 215.244,146.845 215.600,148.033 215.600 C 148.841 215.600,149.210 215.427,149.102 215.100 C 148.915 214.533,147.513 214.220,147.084 214.650 M63.400 215.835 C 52.931 218.914,49.611 220.400,53.200 220.400 C 53.860 220.400,54.400 220.220,54.400 220.000 C 54.400 219.780,55.300 219.600,56.400 219.600 C 57.911 219.600,58.400 219.453,58.400 219.000 C 58.400 218.581,58.822 218.400,59.800 218.400 C 60.570 218.400,61.200 218.220,61.200 218.000 C 61.200 217.780,61.830 217.600,62.600 217.600 C 63.370 217.600,64.000 217.420,64.000 217.200 C 64.000 216.980,64.643 216.800,65.429 216.800 C 66.572 216.800,66.832 216.660,66.725 216.105 C 66.548 215.185,65.811 215.126,63.400 215.835 M149.867 215.467 C 149.154 216.179,149.682 216.800,151.000 216.800 C 151.770 216.800,152.400 216.980,152.400 217.200 C 152.400 217.420,153.030 217.600,153.800 217.600 C 154.570 217.600,155.200 217.780,155.200 218.000 C 155.200 218.220,155.811 218.400,156.557 218.400 C 157.395 218.400,158.003 218.630,158.145 219.000 C 158.279 219.351,158.879 219.600,159.587 219.600 C 160.254 219.600,160.800 219.780,160.800 220.000 C 160.800 220.220,161.430 220.400,162.200 220.400 C 162.970 220.400,163.600 220.580,163.600 220.800 C 163.600 221.020,164.155 221.200,164.833 221.200 C 166.305 221.200,166.252 220.275,164.769 220.060 C 164.236 219.982,163.710 219.801,163.600 219.656 C 163.490 219.512,162.410 219.065,161.200 218.663 C 159.990 218.261,158.640 217.775,158.200 217.583 C 155.625 216.460,150.241 215.092,149.867 215.467 M49.467 220.267 C 48.893 220.840,49.253 221.200,50.400 221.200 C 51.200 221.200,51.600 221.000,51.600 220.600 C 51.600 219.995,49.990 219.743,49.467 220.267 M47.000 221.210 C 46.560 221.404,44.805 222.128,43.100 222.819 C 39.861 224.131,39.008 225.200,41.200 225.200 C 42.000 225.200,42.400 225.000,42.400 224.600 C 42.400 224.181,42.822 224.000,43.800 224.000 C 44.570 224.000,45.200 223.820,45.200 223.600 C 45.200 223.380,45.650 223.200,46.200 223.200 C 46.750 223.200,47.200 223.020,47.200 222.800 C 47.200 222.580,47.573 222.400,48.029 222.400 C 48.589 222.400,48.817 222.183,48.729 221.733 C 48.570 220.910,48.043 220.750,47.000 221.210 M166.667 221.067 C 166.059 221.674,166.459 222.400,167.400 222.400 C 167.950 222.400,168.400 222.580,168.400 222.800 C 168.400 223.020,168.760 223.200,169.200 223.200 C 169.640 223.200,170.000 223.380,170.000 223.600 C 170.000 223.820,170.611 224.000,171.357 224.000 C 172.195 224.000,172.803 224.230,172.945 224.600 C 173.079 224.951,173.679 225.200,174.387 225.200 C 175.054 225.200,175.600 225.401,175.600 225.647 C 175.600 225.907,176.016 226.014,176.600 225.902 C 177.271 225.774,177.600 225.890,177.600 226.255 C 177.600 226.570,178.023 226.800,178.600 226.800 C 179.222 226.800,179.600 227.027,179.600 227.400 C 179.600 227.733,179.956 228.000,180.400 228.000 C 180.840 228.000,181.200 228.180,181.200 228.400 C 181.200 228.620,181.650 228.800,182.200 228.800 C 182.750 228.800,183.200 228.980,183.200 229.200 C 183.200 229.420,183.650 229.600,184.200 229.600 C 184.822 229.600,185.200 229.827,185.200 230.200 C 185.200 230.600,185.600 230.800,186.400 230.800 C 189.219 230.800,186.643 229.052,179.200 225.915 C 178.650 225.683,177.812 225.316,177.338 225.099 C 176.864 224.883,176.290 224.821,176.063 224.961 C 175.835 225.102,175.503 224.965,175.325 224.658 C 174.984 224.071,172.889 223.038,169.200 221.636 C 166.624 220.658,166.993 220.741,166.667 221.067 M37.800 225.200 C 37.664 225.420,37.280 225.600,36.946 225.600 C 36.097 225.600,27.600 229.662,27.600 230.068 C 27.600 230.251,27.240 230.400,26.800 230.400 C 26.356 230.400,26.000 230.667,26.000 231.000 C 26.000 231.333,26.356 231.600,26.800 231.600 C 27.240 231.600,27.600 231.420,27.600 231.200 C 27.600 230.980,28.230 230.800,29.000 230.800 C 29.978 230.800,30.400 230.619,30.400 230.200 C 30.400 229.867,30.756 229.600,31.200 229.600 C 31.640 229.600,32.000 229.420,32.000 229.200 C 32.000 228.980,32.450 228.800,33.000 228.800 C 33.550 228.800,34.000 228.620,34.000 228.400 C 34.000 228.180,34.450 228.000,35.000 228.000 C 35.622 228.000,36.000 227.773,36.000 227.400 C 36.000 227.067,36.356 226.800,36.800 226.800 C 37.240 226.800,37.600 226.620,37.600 226.400 C 37.600 226.180,38.050 226.000,38.600 226.000 C 39.222 226.000,39.600 225.773,39.600 225.400 C 39.600 224.731,38.187 224.574,37.800 225.200 M188.000 230.829 C 188.000 231.534,189.086 232.400,189.971 232.400 C 190.441 232.400,190.800 232.660,190.800 233.000 C 190.800 233.333,191.156 233.600,191.600 233.600 C 192.040 233.600,192.400 233.780,192.400 234.000 C 192.400 234.220,192.850 234.400,193.400 234.400 C 193.950 234.400,194.400 234.580,194.400 234.800 C 194.400 235.020,194.955 235.200,195.633 235.200 C 197.641 235.200,196.837 234.390,192.774 232.323 C 188.917 230.360,188.000 230.073,188.000 230.829 M24.267 231.467 C 23.760 231.974,24.003 232.400,24.800 232.400 C 25.244 232.400,25.600 232.133,25.600 231.800 C 25.600 231.191,24.754 230.979,24.267 231.467 M19.227 234.025 C 16.598 235.387,15.174 235.908,14.527 235.746 C 13.777 235.558,13.600 235.674,13.600 236.357 C 13.600 237.090,13.836 237.200,15.400 237.200 C 16.390 237.200,17.200 237.020,17.200 236.800 C 17.200 236.580,17.650 236.400,18.200 236.400 C 18.822 236.400,19.200 236.173,19.200 235.800 C 19.200 235.467,19.556 235.200,20.000 235.200 C 20.440 235.200,20.800 235.020,20.800 234.800 C 20.800 234.580,21.173 234.400,21.629 234.400 C 22.611 234.400,23.600 233.511,23.600 232.629 C 23.600 231.775,23.523 231.800,19.227 234.025 M197.200 235.585 C 197.200 236.329,198.263 237.200,199.171 237.200 C 199.627 237.200,200.000 237.380,200.000 237.600 C 200.000 237.820,200.373 238.000,200.829 238.000 C 201.714 238.000,202.800 238.866,202.800 239.571 C 202.800 239.807,203.250 240.000,203.800 240.000 C 204.350 240.000,204.800 240.180,204.800 240.400 C 204.800 240.620,205.160 240.800,205.600 240.800 C 206.040 240.800,206.400 240.980,206.400 241.200 C 206.400 241.420,206.850 241.600,207.400 241.600 C 208.022 241.600,208.400 241.827,208.400 242.200 C 208.400 242.533,208.756 242.800,209.200 242.800 C 210.189 242.800,210.265 241.671,209.300 241.322 C 208.915 241.183,208.150 240.762,207.600 240.387 C 207.050 240.011,205.198 238.977,203.485 238.088 C 201.772 237.200,200.151 236.291,199.883 236.069 C 199.065 235.390,197.200 235.054,197.200 235.585 M210.400 242.829 C 210.400 243.534,211.486 244.400,212.371 244.400 C 212.827 244.400,213.200 244.593,213.200 244.829 C 213.200 245.534,214.286 246.400,215.171 246.400 C 215.627 246.400,216.000 246.580,216.000 246.800 C 216.000 247.020,216.360 247.200,216.800 247.200 C 217.244 247.200,217.600 247.467,217.600 247.800 C 217.600 248.158,217.968 248.400,218.512 248.400 C 219.013 248.400,219.683 248.760,220.000 249.200 C 220.317 249.640,220.987 250.000,221.488 250.000 C 222.032 250.000,222.400 250.242,222.400 250.600 C 222.400 250.973,222.778 251.200,223.400 251.200 C 223.950 251.200,224.400 251.380,224.400 251.600 C 224.400 251.820,224.760 252.000,225.200 252.000 C 225.640 252.000,226.000 252.180,226.000 252.400 C 226.000 252.620,226.270 252.800,226.600 252.800 C 226.930 252.800,227.200 253.070,227.200 253.400 C 227.200 253.733,227.556 254.000,228.000 254.000 C 228.440 254.000,228.800 254.180,228.800 254.400 C 228.800 254.620,229.070 254.800,229.400 254.800 C 229.730 254.800,230.000 254.980,230.000 255.200 C 230.000 255.420,230.360 255.600,230.800 255.600 C 231.244 255.600,231.600 255.867,231.600 256.200 C 231.600 256.573,231.978 256.800,232.600 256.800 C 233.150 256.800,233.600 256.980,233.600 257.200 C 233.600 257.420,234.050 257.600,234.600 257.600 C 235.150 257.600,235.600 257.780,235.600 258.000 C 235.600 258.220,235.960 258.400,236.400 258.400 C 236.844 258.400,237.200 258.667,237.200 259.000 C 237.200 259.330,237.470 259.600,237.800 259.600 C 238.130 259.600,238.400 259.780,238.400 260.000 C 238.400 260.220,238.760 260.400,239.200 260.400 C 239.640 260.400,240.000 260.580,240.000 260.800 C 240.000 261.020,240.450 261.200,241.000 261.200 C 241.622 261.200,242.000 261.427,242.000 261.800 C 242.000 262.173,242.378 262.400,243.000 262.400 C 243.550 262.400,244.000 262.580,244.000 262.800 C 244.000 263.020,244.360 263.200,244.800 263.200 C 245.240 263.200,245.600 263.380,245.600 263.600 C 245.600 263.820,245.960 264.000,246.400 264.000 C 246.840 264.000,247.200 263.803,247.200 263.563 C 247.200 263.322,246.840 263.031,246.400 262.916 C 245.960 262.801,245.600 262.548,245.600 262.353 C 245.600 262.159,245.240 262.000,244.800 262.000 C 244.360 262.000,244.000 261.858,244.000 261.684 C 244.000 261.265,238.674 258.400,237.895 258.400 C 237.560 258.400,237.182 258.130,237.055 257.800 C 236.929 257.470,236.564 257.200,236.246 257.200 C 235.927 257.200,235.607 257.065,235.533 256.900 C 235.388 256.573,233.023 255.165,230.800 254.082 C 230.030 253.707,229.153 253.166,228.852 252.880 C 228.550 252.595,227.797 252.259,227.177 252.135 C 226.558 252.012,225.955 251.660,225.838 251.355 C 225.721 251.050,225.349 250.800,225.013 250.800 C 224.676 250.800,224.400 250.659,224.400 250.486 C 224.400 250.313,223.365 249.638,222.100 248.986 C 220.835 248.334,219.710 247.698,219.600 247.573 C 219.490 247.448,218.230 246.653,216.800 245.806 C 215.370 244.959,213.529 243.846,212.709 243.333 C 211.081 242.315,210.400 242.166,210.400 242.829 M398.400 255.674 C 397.630 256.123,396.910 256.616,396.800 256.769 C 396.618 257.022,395.459 257.639,388.300 261.290 C 385.744 262.593,385.395 263.200,387.200 263.200 C 387.860 263.200,388.400 263.020,388.400 262.800 C 388.400 262.580,388.850 262.400,389.400 262.400 C 390.022 262.400,390.400 262.173,390.400 261.800 C 390.400 261.467,390.756 261.200,391.200 261.200 C 391.640 261.200,392.000 261.020,392.000 260.800 C 392.000 260.580,392.450 260.400,393.000 260.400 C 393.550 260.400,394.000 260.220,394.000 260.000 C 394.000 259.780,394.450 259.600,395.000 259.600 C 395.550 259.600,396.000 259.407,396.000 259.171 C 396.000 258.524,397.058 257.600,397.800 257.600 C 398.620 257.600,399.409 256.833,399.774 255.681 C 400.104 254.641,400.170 254.641,398.400 255.674 M382.400 264.078 C 379.325 265.509,375.068 267.465,373.500 268.167 C 371.693 268.975,371.562 269.600,373.200 269.600 C 373.860 269.600,374.400 269.420,374.400 269.200 C 374.400 268.980,374.850 268.800,375.400 268.800 C 375.950 268.800,376.400 268.620,376.400 268.400 C 376.400 268.180,377.030 268.000,377.800 268.000 C 378.778 268.000,379.200 267.819,379.200 267.400 C 379.200 267.067,379.556 266.800,380.000 266.800 C 380.440 266.800,380.800 266.620,380.800 266.400 C 380.800 266.180,381.250 266.000,381.800 266.000 C 382.350 266.000,382.800 265.820,382.800 265.600 C 382.800 265.380,383.250 265.200,383.800 265.200 C 384.422 265.200,384.800 264.973,384.800 264.600 C 384.800 264.270,384.980 264.000,385.200 264.000 C 385.420 264.000,385.600 263.820,385.600 263.600 C 385.600 262.977,384.370 263.161,382.400 264.078 M247.600 264.429 C 247.600 265.134,248.686 266.000,249.571 266.000 C 250.027 266.000,250.400 266.180,250.400 266.400 C 250.400 266.620,250.850 266.800,251.400 266.800 C 252.022 266.800,252.400 267.027,252.400 267.400 C 252.400 267.733,252.756 268.000,253.200 268.000 C 253.640 268.000,254.000 268.180,254.000 268.400 C 254.000 268.620,254.450 268.800,255.000 268.800 C 255.550 268.800,256.000 268.980,256.000 269.200 C 256.000 269.420,256.450 269.600,257.000 269.600 C 257.622 269.600,258.000 269.827,258.000 270.200 C 258.000 270.533,258.356 270.800,258.800 270.800 C 259.240 270.800,259.600 270.980,259.600 271.200 C 259.600 271.420,260.050 271.600,260.600 271.600 C 261.150 271.600,261.600 271.780,261.600 272.000 C 261.600 272.220,262.050 272.400,262.600 272.400 C 263.222 272.400,263.600 272.627,263.600 273.000 C 263.600 273.419,264.022 273.600,265.000 273.600 C 265.770 273.600,266.400 273.780,266.400 274.000 C 266.400 274.220,266.865 274.400,267.433 274.400 C 268.686 274.400,268.549 273.461,267.269 273.272 C 266.791 273.202,266.400 272.977,266.400 272.772 C 266.400 272.567,266.175 272.400,265.900 272.401 C 265.625 272.401,261.593 270.511,256.939 268.201 C 248.432 263.977,247.600 263.641,247.600 264.429 M370.000 270.200 C 370.000 270.533,370.356 270.800,370.800 270.800 C 371.244 270.800,371.600 270.533,371.600 270.200 C 371.600 269.867,371.244 269.600,370.800 269.600 C 370.356 269.600,370.000 269.867,370.000 270.200 M367.380 270.746 C 367.171 270.937,365.650 271.592,364.000 272.204 C 362.350 272.815,360.820 273.452,360.600 273.619 C 360.380 273.786,359.764 273.986,359.231 274.062 C 357.748 274.274,357.695 275.200,359.167 275.200 C 359.845 275.200,360.400 275.020,360.400 274.800 C 360.400 274.580,361.030 274.400,361.800 274.400 C 362.570 274.400,363.200 274.220,363.200 274.000 C 363.200 273.780,363.830 273.600,364.600 273.600 C 365.578 273.600,366.000 273.419,366.000 273.000 C 366.000 272.627,366.378 272.400,367.000 272.400 C 367.550 272.400,368.000 272.220,368.000 272.000 C 368.000 271.780,368.360 271.600,368.800 271.600 C 369.244 271.600,369.600 271.333,369.600 271.000 C 369.600 270.346,368.018 270.165,367.380 270.746 M269.298 274.293 C 269.021 274.389,268.897 274.633,269.021 274.834 C 269.312 275.305,270.800 275.313,270.800 274.843 C 270.800 274.382,269.943 274.068,269.298 274.293 M271.067 275.067 C 270.459 275.674,270.859 276.400,271.800 276.400 C 272.350 276.400,272.800 276.580,272.800 276.800 C 272.800 277.020,273.430 277.200,274.200 277.200 C 274.970 277.200,275.600 277.380,275.600 277.600 C 275.600 277.820,275.941 278.000,276.357 278.000 C 276.774 278.000,277.218 278.270,277.345 278.600 C 277.502 279.011,278.145 279.200,279.387 279.200 C 280.384 279.200,281.200 279.380,281.200 279.600 C 281.200 279.820,281.845 280.000,282.633 280.000 C 284.381 280.000,284.330 279.069,282.570 278.864 C 281.928 278.789,281.312 278.591,281.201 278.423 C 281.091 278.255,280.010 277.809,278.800 277.430 C 277.590 277.052,276.240 276.592,275.800 276.409 C 272.419 274.996,271.420 274.713,271.067 275.067 M355.500 275.076 C 355.115 275.176,354.800 275.425,354.800 275.629 C 354.800 275.833,354.660 275.955,354.488 275.900 C 354.316 275.845,352.156 276.340,349.688 276.999 C 344.787 278.309,343.780 279.200,347.200 279.200 C 348.711 279.200,349.200 279.053,349.200 278.600 C 349.200 278.181,349.622 278.000,350.600 278.000 C 351.370 278.000,352.000 277.820,352.000 277.600 C 352.000 277.380,352.630 277.200,353.400 277.200 C 354.170 277.200,354.800 277.020,354.800 276.800 C 354.800 276.580,355.430 276.400,356.200 276.400 C 357.333 276.400,357.600 276.248,357.600 275.600 C 357.600 274.805,357.055 274.669,355.500 275.076 M342.267 279.067 C 341.693 279.640,342.053 280.000,343.200 280.000 C 344.000 280.000,344.400 279.800,344.400 279.400 C 344.400 278.795,342.790 278.543,342.267 279.067 M285.067 279.867 C 284.493 280.440,284.853 280.800,286.000 280.800 C 287.282 280.800,287.612 280.244,286.567 279.843 C 285.754 279.531,285.397 279.536,285.067 279.867 M338.800 279.963 C 338.470 280.150,337.165 280.427,335.900 280.580 C 332.727 280.963,332.653 282.000,335.800 282.000 C 337.489 282.000,338.000 281.861,338.000 281.400 C 338.000 280.956,338.467 280.800,339.800 280.800 C 341.133 280.800,341.600 280.644,341.600 280.200 C 341.600 279.537,339.821 279.386,338.800 279.963 M287.894 280.640 C 287.077 281.457,287.678 282.000,289.400 282.000 C 290.390 282.000,291.200 282.180,291.200 282.400 C 291.200 282.620,292.100 282.800,293.200 282.800 C 294.300 282.800,295.200 282.980,295.200 283.200 C 295.200 283.433,296.533 283.600,298.400 283.600 C 300.978 283.600,301.600 283.717,301.600 284.200 C 301.600 284.717,302.956 284.800,311.400 284.800 C 319.844 284.800,321.200 284.717,321.200 284.200 C 321.200 283.709,321.889 283.600,325.000 283.600 C 327.267 283.600,328.800 283.439,328.800 283.200 C 328.800 282.980,329.790 282.800,331.000 282.800 C 332.933 282.800,333.200 282.703,333.200 282.000 C 333.200 281.047,333.426 281.059,328.970 281.768 C 316.795 283.706,305.963 283.698,295.310 281.744 C 293.500 281.412,291.851 281.245,291.644 281.373 C 291.437 281.501,291.208 281.439,291.134 281.236 C 290.959 280.754,288.274 280.260,287.894 280.640 " stroke="none" fill="#cae4ca" fill-rule="evenodd"></path><path id="path1" d="M0.399 239.900 L 0.400 478.000 4.600 478.000 L 8.800 478.000 8.800 240.026 L 8.800 2.051 4.599 1.926 L 0.398 1.800 0.399 239.900 M126.600 10.860 C 124.840 11.054,121.240 11.396,118.600 11.619 C 110.546 12.299,102.592 13.296,101.567 13.752 C 100.976 14.016,97.384 14.570,93.200 15.043 C 92.210 15.156,91.130 15.358,90.800 15.493 C 90.470 15.629,88.760 15.989,87.000 16.295 C 79.897 17.528,74.078 18.752,69.600 19.954 C 63.697 21.538,56.983 23.271,56.000 23.464 C 55.450 23.572,54.640 23.802,54.200 23.975 C 53.760 24.149,52.410 24.601,51.200 24.979 C 49.990 25.358,48.640 25.810,48.200 25.985 C 47.760 26.159,45.780 26.793,43.800 27.394 C 40.409 28.423,39.719 28.661,37.500 29.568 C 37.005 29.770,35.250 30.418,33.600 31.007 C 31.950 31.596,30.060 32.303,29.400 32.579 C 28.740 32.854,27.570 33.305,26.800 33.580 C 26.030 33.856,24.995 34.243,24.500 34.440 C 24.005 34.638,23.195 34.962,22.700 35.160 C 21.540 35.624,18.169 37.106,16.500 37.884 L 15.200 38.491 15.200 136.822 L 15.200 235.153 18.700 233.341 C 20.625 232.345,22.830 231.194,23.600 230.783 C 27.395 228.758,34.551 225.398,38.162 223.944 C 43.770 221.686,43.545 221.780,46.075 220.632 C 47.327 220.065,48.544 219.600,48.781 219.600 C 49.017 219.600,49.523 219.438,49.905 219.240 C 50.287 219.042,51.680 218.555,53.000 218.158 C 54.320 217.761,55.571 217.293,55.780 217.118 C 55.989 216.943,56.576 216.800,57.085 216.800 C 57.594 216.800,58.323 216.641,58.705 216.446 C 60.057 215.758,65.993 214.000,66.966 214.000 C 67.509 214.000,68.049 213.844,68.167 213.653 C 68.285 213.462,69.151 213.200,70.091 213.070 C 71.031 212.939,72.970 212.539,74.400 212.180 C 75.830 211.821,77.720 211.444,78.600 211.341 C 79.480 211.239,80.560 210.994,81.000 210.798 C 81.440 210.602,82.610 210.350,83.600 210.238 C 84.590 210.126,86.750 209.854,88.400 209.635 C 90.050 209.415,92.930 209.049,94.800 208.821 C 99.136 208.292,119.252 208.297,123.200 208.828 C 132.081 210.024,133.147 210.189,138.200 211.149 C 139.904 211.472,145.559 212.846,149.800 213.967 C 151.793 214.494,156.553 216.068,157.295 216.446 C 157.677 216.641,158.264 216.800,158.600 216.800 C 158.936 216.800,159.523 216.964,159.905 217.165 C 160.287 217.365,161.500 217.829,162.600 218.196 C 163.700 218.562,164.960 219.007,165.400 219.184 C 165.840 219.362,167.460 219.995,169.000 220.592 C 175.985 223.300,178.985 224.640,190.000 229.971 C 195.472 232.619,202.640 236.387,205.189 237.955 C 206.302 238.640,207.308 239.200,207.425 239.200 C 207.542 239.200,208.623 239.830,209.827 240.600 C 211.031 241.370,212.130 242.000,212.270 242.000 C 212.410 242.000,213.114 242.450,213.836 243.000 C 214.557 243.550,215.237 244.000,215.347 244.000 C 215.549 244.000,217.699 245.262,222.324 248.096 C 223.712 248.946,225.692 250.112,226.724 250.687 C 230.055 252.542,231.376 253.298,232.600 254.053 C 233.260 254.460,234.070 254.917,234.400 255.067 C 234.730 255.218,235.090 255.445,235.200 255.571 C 235.310 255.697,236.030 256.109,236.800 256.486 C 237.570 256.863,239.190 257.738,240.400 258.430 C 246.330 261.820,253.794 265.762,259.000 268.252 C 260.320 268.883,261.460 269.535,261.533 269.700 C 261.607 269.865,261.924 270.000,262.239 270.000 C 262.553 270.000,263.123 270.173,263.505 270.384 C 265.562 271.523,275.404 275.424,280.200 277.002 C 284.215 278.323,292.307 280.400,293.440 280.400 C 293.942 280.400,294.451 280.558,294.570 280.751 C 295.200 281.771,320.848 282.197,326.800 281.287 C 331.937 280.501,344.066 277.845,347.200 276.820 C 347.750 276.640,349.010 276.271,350.000 276.001 C 350.990 275.730,352.160 275.362,352.600 275.183 C 353.040 275.003,354.930 274.368,356.800 273.771 C 360.428 272.612,364.953 270.952,366.095 270.360 C 366.477 270.162,367.047 270.000,367.361 270.000 C 367.676 270.000,367.993 269.855,368.067 269.678 C 368.140 269.501,369.460 268.844,371.000 268.218 C 380.058 264.536,394.461 257.388,398.300 254.668 L 400.000 253.464 400.000 173.956 C 400.000 121.382,399.864 94.363,399.600 94.200 C 399.340 94.039,399.200 84.729,399.200 67.576 C 399.200 53.069,399.080 41.200,398.933 41.200 C 398.786 41.200,396.581 43.226,394.033 45.701 C 391.485 48.177,388.230 51.219,386.800 52.461 C 385.370 53.703,383.281 55.519,382.157 56.497 C 379.507 58.804,375.163 62.227,372.452 64.147 C 370.327 65.651,369.118 66.391,366.400 67.849 C 365.630 68.262,364.910 68.700,364.800 68.822 C 364.610 69.034,361.999 70.277,359.400 71.393 C 358.387 71.829,354.887 73.214,351.800 74.401 C 351.054 74.688,350.376 74.884,346.200 76.018 C 344.478 76.486,341.568 76.997,336.800 77.670 C 333.282 78.166,313.600 78.319,310.400 77.875 C 304.929 77.116,297.736 75.493,295.000 74.400 C 294.560 74.225,293.570 73.856,292.800 73.580 C 292.030 73.305,290.770 72.819,290.000 72.499 C 287.977 71.660,287.226 71.359,285.101 70.536 C 284.057 70.131,283.202 69.665,283.201 69.500 C 283.201 69.335,282.876 69.200,282.480 69.200 C 282.084 69.200,281.589 69.044,281.380 68.853 C 281.171 68.663,279.200 67.555,277.000 66.393 C 274.800 65.230,272.522 63.946,271.938 63.539 C 271.354 63.133,270.770 62.800,270.639 62.800 C 270.509 62.800,269.525 62.170,268.453 61.400 C 267.381 60.630,266.396 60.000,266.263 60.000 C 266.020 60.000,250.222 49.027,249.314 48.228 C 248.509 47.519,247.901 47.062,245.600 45.433 C 244.390 44.577,243.340 43.724,243.267 43.538 C 243.193 43.352,242.942 43.200,242.708 43.200 C 242.474 43.200,241.544 42.603,240.641 41.874 C 237.328 39.198,220.501 28.400,219.643 28.400 C 219.501 28.400,218.723 27.950,217.914 27.400 C 217.105 26.850,216.270 26.400,216.060 26.400 C 215.849 26.400,214.562 25.770,213.200 25.000 C 211.838 24.230,210.470 23.600,210.162 23.600 C 209.853 23.600,209.599 23.465,209.599 23.300 C 209.598 23.135,208.743 22.656,207.699 22.237 C 206.654 21.817,204.990 21.123,204.000 20.694 C 201.670 19.686,200.044 18.988,198.800 18.461 C 197.584 17.946,190.089 15.501,187.600 14.808 C 186.610 14.532,185.003 14.057,184.029 13.753 C 183.055 13.449,181.850 13.200,181.352 13.200 C 180.855 13.200,180.336 13.020,180.200 12.800 C 180.064 12.580,179.426 12.400,178.782 12.400 C 178.138 12.400,176.844 12.228,175.906 12.018 C 169.689 10.625,165.646 10.400,147.746 10.453 C 137.875 10.482,128.360 10.665,126.600 10.860 " stroke="none" fill="#048404" fill-rule="evenodd"></path><path id="path2" d="M9.399 239.200 C 9.399 370.650,9.444 424.425,9.500 358.700 C 9.556 292.975,9.556 185.425,9.500 119.700 C 9.444 53.975,9.399 107.750,9.399 239.200 M128.400 9.378 C 128.400 9.859,128.861 10.000,130.433 10.000 C 133.076 10.000,132.937 9.052,130.269 8.878 C 128.793 8.782,128.400 8.887,128.400 9.378 M149.200 9.200 L 135.800 9.416 149.300 9.508 C 158.095 9.568,162.800 9.461,162.800 9.200 C 162.800 8.980,162.755 8.841,162.700 8.892 C 162.645 8.942,156.570 9.081,149.200 9.200 M164.278 9.056 C 163.767 9.566,164.478 10.000,165.824 10.000 C 166.780 10.000,167.200 9.817,167.200 9.400 C 167.200 8.791,164.822 8.511,164.278 9.056 M117.600 10.172 C 117.600 10.487,117.195 10.822,116.700 10.918 C 116.205 11.013,116.520 11.103,117.400 11.117 C 118.783 11.140,121.297 10.516,120.200 10.422 C 119.980 10.403,120.070 10.213,120.400 10.000 C 120.839 9.716,120.545 9.611,119.300 9.606 C 118.089 9.602,117.600 9.765,117.600 10.172 M172.000 9.771 C 172.000 10.291,173.379 11.196,174.129 11.168 C 174.608 11.151,174.775 11.046,174.500 10.935 C 174.225 10.824,174.000 10.478,174.000 10.167 C 174.000 9.829,173.596 9.600,173.000 9.600 C 172.450 9.600,172.000 9.677,172.000 9.771 M123.900 10.289 C 124.615 10.378,125.785 10.378,126.500 10.289 C 127.215 10.201,126.630 10.128,125.200 10.128 C 123.770 10.128,123.185 10.201,123.900 10.289 M168.300 10.282 C 168.795 10.378,169.605 10.378,170.100 10.282 C 170.595 10.187,170.190 10.109,169.200 10.109 C 168.210 10.109,167.805 10.187,168.300 10.282 M110.400 11.600 C 109.338 11.824,109.241 11.902,110.000 11.924 C 110.550 11.941,111.720 11.805,112.600 11.623 C 113.934 11.347,114.000 11.293,113.000 11.299 C 112.340 11.302,111.170 11.438,110.400 11.600 M176.800 11.600 C 178.168 12.038,179.219 12.038,178.200 11.600 C 177.760 11.411,177.040 11.262,176.600 11.268 C 175.957 11.277,175.996 11.343,176.800 11.600 M106.100 12.276 C 106.485 12.376,107.115 12.376,107.500 12.276 C 107.885 12.175,107.570 12.093,106.800 12.093 C 106.030 12.093,105.715 12.175,106.100 12.276 M180.800 12.400 C 182.168 12.838,183.219 12.838,182.200 12.400 C 181.760 12.211,181.040 12.062,180.600 12.068 C 179.957 12.077,179.996 12.143,180.800 12.400 M100.705 13.083 C 101.202 13.179,101.922 13.175,102.305 13.075 C 102.687 12.975,102.280 12.896,101.400 12.901 C 100.520 12.905,100.207 12.987,100.705 13.083 M184.800 13.421 C 185.790 13.733,186.780 13.977,187.000 13.963 C 187.700 13.921,184.634 12.861,183.800 12.857 C 183.360 12.855,183.810 13.109,184.800 13.421 M96.600 13.600 L 95.400 13.905 96.600 13.913 C 97.260 13.917,98.250 13.776,98.800 13.600 L 99.800 13.280 98.800 13.287 C 98.250 13.291,97.260 13.432,96.600 13.600 M91.284 14.242 C 90.685 14.891,91.710 14.947,93.800 14.380 L 95.000 14.054 93.800 14.112 C 93.140 14.144,92.420 14.061,92.200 13.927 C 91.980 13.793,91.568 13.935,91.284 14.242 M188.200 14.400 C 189.311 14.878,190.095 14.878,189.800 14.400 C 189.664 14.180,189.068 14.013,188.476 14.028 C 187.515 14.053,187.486 14.093,188.200 14.400 M86.400 14.976 C 86.400 15.324,85.885 15.620,85.100 15.724 C 84.385 15.819,84.679 15.835,85.754 15.761 C 87.943 15.609,88.458 15.334,87.588 14.784 C 86.753 14.256,86.400 14.313,86.400 14.976 M192.290 14.662 C 192.130 14.917,191.594 15.048,191.100 14.954 C 190.605 14.861,190.911 15.060,191.780 15.399 C 192.649 15.737,193.549 15.935,193.780 15.838 C 194.011 15.742,193.898 15.649,193.529 15.632 C 193.160 15.614,192.796 15.285,192.720 14.900 C 192.627 14.432,192.485 14.353,192.290 14.662 M82.000 15.800 C 82.000 16.130,81.700 16.400,81.333 16.400 C 80.967 16.400,80.773 16.506,80.903 16.637 C 81.033 16.767,81.497 16.760,81.933 16.621 C 82.906 16.312,83.418 15.200,82.587 15.200 C 82.264 15.200,82.000 15.470,82.000 15.800 M77.800 17.200 C 76.781 17.638,77.832 17.638,79.200 17.200 C 80.004 16.943,80.043 16.877,79.400 16.868 C 78.960 16.862,78.240 17.011,77.800 17.200 M74.200 18.000 C 73.181 18.438,74.232 18.438,75.600 18.000 C 76.404 17.743,76.443 17.677,75.800 17.668 C 75.360 17.662,74.640 17.811,74.200 18.000 M69.400 19.043 C 68.300 19.357,66.921 19.529,66.336 19.425 C 65.611 19.295,65.196 19.434,65.032 19.861 C 64.848 20.340,64.462 20.426,63.396 20.226 C 62.291 20.018,62.000 20.092,62.000 20.582 C 62.000 20.922,62.180 21.200,62.400 21.200 C 62.620 21.200,62.800 21.037,62.800 20.837 C 62.800 20.638,63.115 20.548,63.500 20.637 C 63.885 20.726,66.180 20.276,68.600 19.636 C 71.020 18.996,72.640 18.472,72.200 18.472 C 71.760 18.472,70.500 18.729,69.400 19.043 M201.600 19.050 C 205.888 20.944,206.800 21.211,206.800 20.571 C 206.800 20.225,206.607 20.072,206.362 20.224 C 206.121 20.373,205.536 20.318,205.062 20.103 C 202.432 18.907,201.121 18.402,200.686 18.416 C 200.419 18.424,200.830 18.710,201.600 19.050 M58.400 21.367 C 58.400 21.678,58.175 22.024,57.900 22.135 C 57.517 22.290,57.523 22.344,57.926 22.368 C 58.970 22.431,60.162 21.548,59.554 21.163 C 58.755 20.657,58.400 20.720,58.400 21.367 M207.860 21.126 C 207.238 21.250,207.295 21.364,208.220 21.844 C 208.824 22.158,209.412 22.321,209.526 22.207 C 209.640 22.093,209.537 22.000,209.296 22.000 C 209.055 22.000,208.800 21.770,208.729 21.489 C 208.658 21.207,208.267 21.044,207.860 21.126 M210.000 22.563 C 210.000 22.689,211.845 23.713,214.100 24.837 C 216.355 25.962,218.019 26.691,217.798 26.459 C 217.489 26.134,213.226 23.870,210.300 22.476 C 210.135 22.398,210.000 22.437,210.000 22.563 M49.200 24.600 C 47.333 25.319,48.139 25.333,50.400 24.621 C 51.390 24.309,51.840 24.055,51.400 24.057 C 50.960 24.059,49.970 24.303,49.200 24.600 M45.821 25.489 C 45.664 25.899,45.211 26.034,44.395 25.914 C 43.581 25.794,43.200 25.908,43.200 26.269 C 43.200 26.561,42.795 26.814,42.300 26.832 C 41.805 26.849,41.620 26.952,41.889 27.061 C 42.275 27.218,47.023 25.815,47.516 25.399 C 47.580 25.346,47.276 25.209,46.842 25.095 C 46.359 24.969,45.962 25.122,45.821 25.489 M219.024 27.387 C 220.028 28.147,220.433 28.152,220.145 27.400 C 220.018 27.070,219.539 26.800,219.081 26.800 C 218.262 26.800,218.261 26.810,219.024 27.387 M37.000 28.829 C 36.120 29.252,35.850 29.486,36.400 29.349 C 37.533 29.067,39.612 28.025,39.000 28.046 C 38.780 28.053,37.880 28.406,37.000 28.829 M223.338 29.836 C 224.176 30.405,224.946 30.787,225.048 30.685 C 225.238 30.495,222.573 28.800,222.084 28.800 C 221.936 28.800,222.500 29.266,223.338 29.836 M32.304 30.383 C 30.304 31.096,29.092 31.913,30.800 31.397 C 32.605 30.852,35.413 29.643,34.800 29.675 C 34.470 29.693,33.347 30.011,32.304 30.383 M230.000 33.750 C 230.000 33.844,230.675 34.341,231.500 34.854 C 233.923 36.361,234.260 36.512,233.200 35.618 C 232.123 34.710,230.000 33.470,230.000 33.750 M19.600 35.419 C 17.256 36.635,18.013 36.627,20.600 35.409 C 21.700 34.891,22.330 34.471,22.000 34.476 C 21.670 34.481,20.590 34.905,19.600 35.419 M16.224 37.013 C 15.796 37.336,15.627 37.600,15.847 37.600 C 16.067 37.600,16.596 37.336,17.024 37.013 C 17.451 36.690,17.620 36.425,17.400 36.425 C 17.180 36.425,16.651 36.690,16.224 37.013 M234.400 36.577 C 234.400 36.679,235.255 37.333,236.300 38.032 C 237.645 38.931,237.902 39.024,237.180 38.351 C 236.111 37.353,234.400 36.262,234.400 36.577 M14.800 38.000 C 14.800 38.220,14.530 38.400,14.200 38.400 C 13.668 38.400,13.600 49.622,13.600 137.000 C 13.600 196.612,13.745 235.600,13.967 235.600 C 14.169 235.600,14.664 235.707,15.067 235.838 C 15.570 236.001,15.642 235.962,15.298 235.713 C 14.896 235.423,14.816 215.459,14.898 136.475 C 14.954 82.094,14.955 37.600,14.900 37.600 C 14.845 37.600,14.800 37.780,14.800 38.000 M238.400 39.345 C 238.400 39.455,239.795 40.545,241.500 41.767 C 243.205 42.989,245.140 44.380,245.800 44.858 L 247.000 45.728 246.000 44.724 C 244.908 43.627,238.400 39.021,238.400 39.345 M393.485 44.900 C 391.332 47.102,389.631 48.964,389.705 49.039 C 389.780 49.113,391.718 47.290,394.013 44.987 C 396.308 42.684,398.009 40.821,397.793 40.848 C 397.577 40.874,395.638 42.697,393.485 44.900 M247.200 45.788 C 247.200 45.968,249.564 47.703,256.000 52.245 C 257.430 53.254,258.226 53.747,257.769 53.340 C 256.944 52.604,256.648 52.381,252.675 49.491 C 251.534 48.661,250.218 47.671,249.750 47.291 C 248.643 46.391,247.200 45.540,247.200 45.788 M387.382 50.710 C 384.766 53.118,382.832 54.800,382.679 54.800 C 382.600 54.800,381.560 55.733,380.368 56.873 C 377.397 59.715,378.899 58.545,384.500 53.656 C 388.589 50.087,389.541 49.166,389.100 49.210 C 389.045 49.216,388.272 49.891,387.382 50.710 M258.800 54.181 C 258.800 54.280,259.610 54.919,260.600 55.600 C 261.590 56.281,262.400 56.691,262.400 56.510 C 262.400 56.330,261.770 55.843,261.000 55.428 C 260.230 55.013,259.600 54.522,259.600 54.337 C 259.600 54.152,259.420 54.000,259.200 54.000 C 258.980 54.000,258.800 54.081,258.800 54.181 M376.400 60.020 C 375.630 60.690,374.505 61.539,373.900 61.906 C 373.295 62.272,372.800 62.724,372.800 62.910 C 372.800 63.268,377.397 59.852,377.806 59.190 C 378.206 58.543,377.869 58.742,376.400 60.020 M267.402 60.003 C 267.539 60.224,268.224 60.683,268.925 61.022 C 270.033 61.558,270.095 61.559,269.400 61.033 C 268.960 60.700,268.383 60.241,268.117 60.014 C 267.500 59.485,267.078 59.479,267.402 60.003 M270.600 61.910 C 271.139 62.509,278.060 66.474,278.244 66.289 C 278.324 66.209,277.267 65.511,275.895 64.737 C 274.523 63.964,272.680 62.911,271.800 62.399 C 270.920 61.886,270.380 61.666,270.600 61.910 M371.200 63.361 C 371.200 63.655,370.075 64.638,368.700 65.545 C 367.325 66.451,366.341 67.194,366.513 67.196 C 366.838 67.200,372.400 63.620,372.400 63.407 C 372.400 63.340,372.130 63.182,371.800 63.055 C 371.451 62.921,371.200 63.049,371.200 63.361 M278.800 66.614 C 278.800 66.809,285.038 70.000,285.420 70.000 C 285.550 70.000,285.387 69.730,285.057 69.400 C 284.727 69.070,284.204 68.800,283.895 68.800 C 283.586 68.800,283.223 68.690,283.088 68.555 C 282.717 68.184,278.800 66.411,278.800 66.614 M364.700 67.829 C 363.205 68.640,363.296 68.978,364.800 68.200 C 365.460 67.859,366.000 67.494,366.000 67.390 C 366.000 67.132,365.957 67.147,364.700 67.829 M360.864 69.664 C 359.909 70.103,359.217 70.550,359.325 70.658 C 359.433 70.767,360.394 70.401,361.461 69.846 C 363.758 68.651,363.346 68.525,360.864 69.664 M286.400 70.200 C 286.674 70.530,287.050 70.800,287.236 70.800 C 287.423 70.800,287.471 70.530,287.345 70.200 C 287.218 69.870,286.842 69.600,286.508 69.600 C 286.015 69.600,285.995 69.712,286.400 70.200 M288.054 70.987 C 288.390 71.323,291.200 72.416,291.200 72.211 C 291.200 72.101,290.548 71.738,289.751 71.405 C 288.275 70.789,287.718 70.651,288.054 70.987 M355.800 71.872 C 353.243 72.941,352.350 73.498,354.000 72.994 C 355.406 72.566,359.084 70.865,358.600 70.868 C 358.380 70.869,357.120 71.321,355.800 71.872 M292.746 73.016 C 293.486 73.337,294.296 73.585,294.546 73.568 C 295.177 73.522,292.739 72.437,292.000 72.434 C 291.670 72.432,292.006 72.694,292.746 73.016 M296.021 73.584 C 295.141 73.802,295.215 73.878,296.760 74.341 C 297.705 74.624,298.580 74.753,298.706 74.628 C 298.831 74.502,298.642 74.400,298.287 74.400 C 297.931 74.400,297.496 74.162,297.320 73.871 C 297.121 73.542,296.631 73.434,296.021 73.584 M349.476 73.747 C 349.203 74.457,347.146 74.850,346.500 74.316 C 346.136 74.014,346.000 74.078,346.000 74.551 C 346.000 74.908,345.700 75.200,345.333 75.200 C 344.967 75.200,344.783 75.316,344.925 75.458 C 345.067 75.600,346.654 75.297,348.453 74.785 C 350.880 74.094,351.527 73.777,350.962 73.555 C 349.856 73.121,349.708 73.141,349.476 73.747 M299.384 74.427 C 299.012 75.028,299.306 75.215,300.850 75.365 C 301.593 75.436,301.795 75.417,301.300 75.321 C 300.805 75.225,300.400 74.889,300.400 74.573 C 300.400 73.902,299.764 73.811,299.384 74.427 M303.200 75.557 C 303.200 75.754,303.485 76.024,303.833 76.157 C 304.926 76.577,305.280 76.423,304.657 75.800 C 303.993 75.135,303.200 75.003,303.200 75.557 M341.652 75.849 C 341.175 76.389,341.222 76.451,342.021 76.334 C 342.525 76.260,343.011 75.975,343.102 75.700 C 343.333 74.999,342.312 75.104,341.652 75.849 M307.200 76.800 C 307.750 76.976,308.650 77.117,309.200 77.113 C 310.098 77.106,310.078 77.074,309.000 76.800 C 307.308 76.369,305.856 76.369,307.200 76.800 M337.000 76.800 C 335.930 77.072,335.908 77.105,336.800 77.105 C 337.350 77.105,338.340 76.968,339.000 76.800 C 340.070 76.528,340.092 76.495,339.200 76.495 C 338.650 76.495,337.660 76.632,337.000 76.800 M313.600 77.661 C 316.309 77.954,333.911 77.822,334.227 77.506 C 334.326 77.407,329.141 77.338,322.704 77.353 C 315.836 77.369,312.074 77.496,313.600 77.661 M100.094 209.083 C 97.225 209.635,100.704 210.000,108.824 210.000 C 117.264 210.000,119.913 209.683,116.750 209.050 C 115.379 208.776,101.550 208.803,100.094 209.083 M95.233 209.344 C 95.705 209.750,97.643 209.993,97.410 209.616 C 97.268 209.387,96.683 209.200,96.110 209.200 C 95.536 209.200,95.142 209.265,95.233 209.344 M120.000 209.545 C 120.000 209.734,120.450 209.803,121.000 209.698 C 121.550 209.593,122.000 209.438,122.000 209.353 C 122.000 209.269,121.550 209.200,121.000 209.200 C 120.450 209.200,120.000 209.355,120.000 209.545 M88.200 210.225 C 85.865 210.668,85.744 210.725,87.470 210.568 C 88.662 210.460,89.648 210.554,89.794 210.790 C 90.167 211.394,90.800 211.288,90.800 210.622 C 90.800 210.220,91.379 209.998,92.700 209.894 L 94.600 209.744 92.800 209.720 C 91.810 209.706,89.740 209.934,88.200 210.225 M123.900 209.882 C 124.395 209.978,125.205 209.978,125.700 209.882 C 126.195 209.787,125.790 209.709,124.800 209.709 C 123.810 209.709,123.405 209.787,123.900 209.882 M126.806 210.700 C 126.810 211.150,126.917 211.236,127.106 210.940 C 127.268 210.688,127.850 210.397,128.400 210.295 C 129.247 210.137,129.201 210.101,128.100 210.054 C 127.106 210.013,126.801 210.165,126.806 210.700 M130.100 210.676 C 130.485 210.776,131.115 210.776,131.500 210.676 C 131.885 210.575,131.570 210.493,130.800 210.493 C 130.030 210.493,129.715 210.575,130.100 210.676 M82.000 211.200 C 80.656 211.631,82.108 211.631,83.800 211.200 C 84.878 210.926,84.898 210.894,84.000 210.887 C 83.450 210.883,82.550 211.024,82.000 211.200 M133.800 211.181 C 134.568 211.529,136.710 211.756,136.367 211.453 C 136.275 211.372,135.480 211.196,134.600 211.062 C 133.485 210.893,133.242 210.929,133.800 211.181 M78.000 212.000 C 77.208 212.254,77.167 212.320,77.800 212.320 C 78.240 212.320,79.050 212.176,79.600 212.000 C 80.392 211.746,80.433 211.680,79.800 211.680 C 79.360 211.680,78.550 211.824,78.000 212.000 M137.800 212.000 C 138.240 212.189,138.960 212.338,139.400 212.332 C 140.043 212.323,140.004 212.257,139.200 212.000 C 137.832 211.562,136.781 211.562,137.800 212.000 M74.200 212.800 C 73.181 213.238,74.232 213.238,75.600 212.800 C 76.404 212.543,76.443 212.477,75.800 212.468 C 75.360 212.462,74.640 212.611,74.200 212.800 M141.100 212.682 C 141.595 212.778,142.014 213.158,142.032 213.528 C 142.052 213.962,142.136 214.019,142.269 213.689 C 142.406 213.348,142.960 213.246,143.937 213.385 C 145.085 213.547,144.970 213.465,143.400 213.003 C 142.300 212.680,141.130 212.436,140.800 212.462 C 140.470 212.488,140.605 212.587,141.100 212.682 M69.200 213.969 C 68.228 214.250,68.236 214.264,69.485 214.458 C 70.332 214.589,70.838 214.477,70.972 214.128 C 71.192 213.557,70.760 213.518,69.200 213.969 M145.600 214.200 C 145.600 214.869,146.583 214.942,147.800 214.364 C 148.546 214.009,148.539 213.995,147.700 214.154 C 147.206 214.248,146.700 214.162,146.577 213.962 C 146.222 213.389,145.600 213.541,145.600 214.200 M66.066 214.750 C 65.641 215.020,65.667 215.140,66.196 215.343 C 66.564 215.484,67.127 215.331,67.458 214.999 C 68.153 214.305,67.074 214.112,66.066 214.750 M149.055 215.000 C 149.317 215.682,149.573 215.732,150.334 215.250 C 150.759 214.980,150.732 214.860,150.201 214.656 C 149.147 214.251,148.807 214.353,149.055 215.000 M62.200 215.811 C 61.320 216.101,60.870 216.350,61.200 216.363 C 61.530 216.377,62.610 216.133,63.600 215.821 C 64.590 215.509,65.040 215.260,64.600 215.269 C 64.160 215.277,63.080 215.521,62.200 215.811 M151.800 215.600 C 152.240 215.789,152.870 215.944,153.200 215.944 C 153.578 215.944,153.504 215.817,153.000 215.600 C 152.560 215.411,151.930 215.256,151.600 215.256 C 151.222 215.256,151.296 215.383,151.800 215.600 M155.800 216.800 C 156.240 216.989,156.870 217.144,157.200 217.144 C 157.578 217.144,157.504 217.017,157.000 216.800 C 156.560 216.611,155.930 216.456,155.600 216.456 C 155.222 216.456,155.296 216.583,155.800 216.800 M56.400 217.600 C 55.867 217.945,55.867 217.988,56.400 217.988 C 56.730 217.988,57.270 217.813,57.600 217.600 C 58.133 217.255,58.133 217.212,57.600 217.212 C 57.270 217.212,56.730 217.387,56.400 217.600 M50.611 219.565 C 49.903 219.841,49.934 219.894,50.911 220.081 C 51.665 220.225,52.000 220.122,52.000 219.745 C 52.000 219.141,51.772 219.111,50.611 219.565 M48.695 220.277 C 48.307 220.378,48.093 220.627,48.219 220.830 C 48.561 221.384,49.085 221.277,49.345 220.600 C 49.471 220.270,49.536 220.021,49.487 220.046 C 49.439 220.072,49.083 220.176,48.695 220.277 M165.864 220.623 C 165.996 220.966,166.346 221.153,166.642 221.039 C 166.938 220.926,167.834 221.106,168.633 221.440 C 169.433 221.774,170.161 221.973,170.251 221.882 C 170.389 221.744,166.242 220.000,165.777 220.000 C 165.693 220.000,165.733 220.280,165.864 220.623 M38.101 224.514 C 36.066 225.405,34.468 226.201,34.549 226.283 C 34.691 226.424,36.045 225.942,37.873 225.097 C 38.353 224.875,39.028 224.802,39.373 224.934 C 39.742 225.076,40.000 224.963,40.000 224.660 C 40.000 224.377,40.585 223.854,41.300 223.498 C 43.772 222.268,41.787 222.898,38.101 224.514 M173.000 223.200 C 173.136 223.420,173.494 223.600,173.795 223.600 C 174.096 223.600,174.652 223.909,175.029 224.287 C 175.407 224.664,176.095 224.979,176.558 224.987 C 177.021 224.994,177.361 225.207,177.314 225.459 C 177.260 225.743,177.557 225.832,178.092 225.692 C 178.785 225.511,178.374 225.200,176.027 224.133 C 172.806 222.668,172.640 222.617,173.000 223.200 M28.284 229.047 C 25.348 230.527,23.277 231.801,23.423 232.037 C 23.578 232.288,23.873 232.179,24.181 231.759 C 24.482 231.346,24.948 231.171,25.342 231.322 C 25.769 231.486,26.000 231.368,26.000 230.987 C 26.000 230.664,26.360 230.400,26.800 230.400 C 27.240 230.400,27.600 230.252,27.600 230.072 C 27.600 229.892,29.040 229.060,30.800 228.225 C 33.713 226.841,34.522 226.341,33.700 226.434 C 33.535 226.452,31.098 227.628,28.284 229.047 M181.776 227.013 C 182.204 227.336,182.733 227.600,182.953 227.600 C 183.173 227.600,183.004 227.336,182.576 227.013 C 182.149 226.690,181.620 226.425,181.400 226.425 C 181.180 226.425,181.349 226.690,181.776 227.013 M185.500 228.707 C 186.655 229.289,187.600 229.953,187.600 230.183 C 187.600 230.412,188.005 230.616,188.500 230.635 C 188.995 230.654,189.760 230.798,190.200 230.955 C 190.640 231.113,189.470 230.431,187.600 229.441 C 185.730 228.450,184.020 227.642,183.800 227.644 C 183.580 227.647,184.345 228.125,185.500 228.707 M194.200 232.933 C 195.080 233.472,196.089 234.177,196.442 234.499 C 197.233 235.220,199.384 235.821,199.010 235.216 C 198.868 234.987,198.403 234.800,197.976 234.800 C 197.549 234.800,197.200 234.656,197.200 234.480 C 197.200 234.304,196.345 233.723,195.300 233.189 C 192.695 231.859,192.293 231.765,194.200 232.933 M199.719 235.869 C 199.861 236.099,201.468 237.051,203.289 237.984 C 205.110 238.918,206.420 239.504,206.200 239.288 C 205.535 238.634,199.441 235.420,199.719 235.869 M207.600 240.367 C 208.563 241.152,209.200 241.408,209.200 241.010 C 209.200 240.906,208.615 240.535,207.900 240.186 L 206.600 239.552 207.600 240.367 M209.879 241.979 C 209.997 242.433,210.307 242.657,210.639 242.530 C 211.378 242.246,211.348 242.107,210.439 241.621 C 209.797 241.277,209.710 241.333,209.879 241.979 M212.200 242.995 C 213.105 243.750,216.418 245.501,215.800 244.897 C 215.580 244.682,214.500 244.016,213.400 243.417 C 212.300 242.817,211.760 242.628,212.200 242.995 M218.200 246.550 C 218.640 246.892,219.180 247.315,219.400 247.489 C 220.028 247.986,222.247 248.906,221.800 248.484 C 221.580 248.276,220.500 247.616,219.400 247.017 C 218.300 246.417,217.760 246.207,218.200 246.550 M223.000 249.357 C 223.440 249.696,224.017 250.159,224.283 250.386 C 224.549 250.614,224.945 250.800,225.163 250.800 C 225.382 250.800,225.704 251.025,225.880 251.300 C 226.161 251.739,228.800 252.923,228.800 252.611 C 228.800 252.489,223.329 249.225,222.600 248.912 C 222.380 248.818,222.560 249.018,223.000 249.357 M229.200 253.102 C 229.200 253.279,229.740 253.628,230.400 253.878 C 231.060 254.127,231.600 254.261,231.600 254.176 C 231.600 254.090,231.060 253.741,230.400 253.400 C 229.740 253.059,229.200 252.925,229.200 253.102 M232.000 254.535 C 232.000 254.806,234.874 256.459,235.046 256.287 C 235.126 256.208,234.473 255.739,233.596 255.246 C 232.718 254.752,232.000 254.433,232.000 254.535 M398.200 255.396 L 397.000 256.389 398.292 255.769 C 399.003 255.428,399.688 254.981,399.816 254.775 C 400.248 254.075,399.405 254.400,398.200 255.396 M237.056 257.801 C 237.182 258.130,237.544 258.400,237.859 258.400 C 238.174 258.400,239.145 258.764,240.016 259.208 C 240.887 259.653,241.600 259.925,241.600 259.814 C 241.600 259.703,240.526 259.069,239.213 258.406 C 237.555 257.569,236.896 257.384,237.056 257.801 M393.600 258.200 C 392.610 258.730,391.942 259.172,392.116 259.182 C 392.541 259.206,395.600 257.634,395.600 257.392 C 395.600 257.127,395.617 257.120,393.600 258.200 M242.600 260.557 C 243.040 260.896,243.631 261.372,243.914 261.615 C 244.196 261.858,244.615 261.995,244.843 261.919 C 245.072 261.843,244.481 261.367,243.529 260.861 C 242.578 260.355,242.160 260.219,242.600 260.557 M385.200 262.464 C 383.550 263.332,382.560 263.920,383.000 263.770 C 383.440 263.620,384.250 263.404,384.800 263.290 C 385.350 263.176,385.944 262.840,386.120 262.542 C 386.296 262.244,386.656 261.994,386.920 261.987 C 387.184 261.980,387.749 261.710,388.176 261.387 C 389.488 260.395,388.344 260.809,385.200 262.464 M245.600 262.374 C 245.600 262.608,245.861 262.800,246.180 262.800 C 246.499 262.800,246.922 263.088,247.119 263.441 C 247.316 263.794,247.798 264.019,248.189 263.941 C 248.710 263.838,248.460 263.553,247.250 262.874 C 246.343 262.365,245.600 262.140,245.600 262.374 M380.200 264.778 C 379.320 265.195,378.713 265.550,378.851 265.568 C 379.240 265.618,382.000 264.414,382.000 264.195 C 382.000 263.927,381.999 263.927,380.200 264.778 M252.400 265.799 C 252.400 266.064,261.248 270.485,261.425 270.308 C 261.503 270.231,259.504 269.140,256.983 267.886 C 254.462 266.631,252.400 265.692,252.400 265.799 M369.819 269.371 C 367.944 270.228,367.896 270.287,368.919 270.482 C 369.665 270.625,370.000 270.521,370.000 270.145 C 370.000 269.837,370.416 269.600,370.957 269.600 C 371.484 269.600,372.018 269.330,372.145 269.000 C 372.437 268.237,372.230 268.270,369.819 269.371 M264.800 271.886 C 265.570 272.279,266.260 272.735,266.333 272.900 C 266.407 273.065,266.803 273.200,267.213 273.200 C 267.624 273.200,268.144 273.515,268.368 273.900 C 268.707 274.483,268.778 274.495,268.788 273.975 C 268.795 273.599,267.963 272.982,266.700 272.428 C 264.028 271.256,262.978 270.956,264.800 271.886 M359.400 273.600 C 358.629 273.931,358.631 273.945,359.476 273.972 C 359.958 273.987,360.464 273.820,360.600 273.600 C 360.892 273.127,360.501 273.127,359.400 273.600 M270.442 274.513 C 270.749 274.844,271.127 275.039,271.282 274.945 C 271.438 274.851,272.225 275.050,273.031 275.387 C 273.838 275.724,274.701 275.990,274.949 275.978 C 275.401 275.956,272.643 274.767,270.842 274.207 C 270.002 273.946,269.952 273.984,270.442 274.513 M357.021 274.361 C 356.272 274.654,356.274 274.674,357.096 274.889 C 357.623 275.026,358.030 274.899,358.162 274.556 C 358.397 273.943,358.183 273.906,357.021 274.361 M353.800 275.387 L 352.600 275.939 353.700 275.882 C 354.305 275.851,354.800 275.698,354.800 275.542 C 354.800 275.386,355.115 275.176,355.500 275.076 C 355.985 274.949,356.016 274.884,355.600 274.864 C 355.270 274.849,354.460 275.084,353.800 275.387 M350.600 276.400 C 350.096 276.617,350.022 276.744,350.400 276.744 C 350.730 276.744,351.360 276.589,351.800 276.400 C 352.304 276.183,352.378 276.056,352.000 276.056 C 351.670 276.056,351.040 276.211,350.600 276.400 M280.500 277.876 C 280.885 277.976,281.200 278.225,281.200 278.429 C 281.200 278.633,281.695 278.793,282.300 278.784 C 283.393 278.769,283.391 278.765,282.054 278.184 C 281.314 277.863,280.504 277.621,280.254 277.646 C 280.004 277.672,280.115 277.775,280.500 277.876 M343.600 278.400 C 342.995 278.594,342.864 278.736,343.267 278.760 C 343.634 278.782,344.219 278.909,344.567 279.043 C 344.982 279.202,345.200 279.065,345.200 278.643 C 345.200 277.942,345.085 277.924,343.600 278.400 M283.855 279.400 C 284.112 280.068,284.728 280.160,285.534 279.649 C 285.933 279.397,285.831 279.248,285.134 279.061 C 283.763 278.694,283.601 278.737,283.855 279.400 M340.400 279.169 C 339.428 279.450,339.436 279.464,340.685 279.658 C 341.532 279.789,342.038 279.677,342.172 279.328 C 342.392 278.757,341.960 278.718,340.400 279.169 M286.870 280.126 C 287.375 280.632,287.768 280.705,288.470 280.424 C 288.989 280.216,289.135 280.037,288.800 280.020 C 288.470 280.003,287.750 279.869,287.200 279.722 C 286.265 279.473,286.243 279.499,286.870 280.126 M336.800 280.000 C 335.820 280.314,335.824 280.321,337.000 280.354 C 337.660 280.373,338.470 280.213,338.800 280.000 C 339.558 279.510,338.330 279.510,336.800 280.000 M290.300 280.682 C 290.795 280.778,291.200 281.006,291.200 281.190 C 291.200 281.374,291.605 281.417,292.100 281.285 C 293.142 281.007,291.838 280.464,290.200 280.494 C 289.538 280.506,289.555 280.539,290.300 280.682 M332.800 280.800 C 332.197 280.993,332.064 281.136,332.467 281.160 C 332.833 281.182,333.224 281.425,333.335 281.700 C 333.460 282.009,333.549 281.943,333.568 281.527 C 333.588 281.110,334.020 280.790,334.700 280.687 C 335.721 280.532,335.728 280.518,334.800 280.500 C 334.250 280.489,333.350 280.624,332.800 280.800 M329.700 281.476 C 330.085 281.576,330.715 281.576,331.100 281.476 C 331.485 281.375,331.170 281.293,330.400 281.293 C 329.630 281.293,329.315 281.375,329.700 281.476 M296.400 282.000 C 296.950 282.176,297.850 282.317,298.400 282.313 C 299.298 282.306,299.278 282.274,298.200 282.000 C 296.508 281.569,295.056 281.569,296.400 282.000 M325.600 282.000 C 324.250 282.284,324.243 282.295,325.400 282.300 C 326.060 282.303,327.140 282.168,327.800 282.000 C 329.460 281.578,327.607 281.578,325.600 282.000 M302.800 282.870 C 305.078 283.213,317.084 283.206,320.000 282.860 C 321.210 282.717,317.430 282.600,311.600 282.600 C 305.770 282.600,301.810 282.722,302.800 282.870 " stroke="none" fill="#7cbc7c" fill-rule="evenodd"></path><path id="path3" d="M132.255 9.400 C 132.423 9.836,133.046 9.985,134.543 9.946 C 135.674 9.916,136.195 9.813,135.700 9.718 C 135.205 9.622,134.800 9.377,134.800 9.172 C 134.800 8.967,134.176 8.800,133.413 8.800 C 132.344 8.800,132.078 8.938,132.255 9.400 M162.800 9.172 C 162.800 9.377,162.395 9.622,161.900 9.718 C 161.394 9.815,161.716 9.915,162.633 9.946 C 163.843 9.986,164.267 9.844,164.267 9.400 C 164.267 9.070,163.937 8.800,163.533 8.800 C 163.130 8.800,162.800 8.967,162.800 9.172 M120.200 10.400 C 120.336 10.620,120.137 10.800,119.757 10.800 C 119.377 10.800,119.178 10.912,119.315 11.048 C 119.675 11.408,121.600 10.856,121.600 10.392 C 121.600 10.177,121.229 10.000,120.776 10.000 C 120.323 10.000,120.064 10.180,120.200 10.400 M128.500 10.287 C 129.105 10.378,130.095 10.378,130.700 10.287 C 131.305 10.195,130.810 10.120,129.600 10.120 C 128.390 10.120,127.895 10.195,128.500 10.287 M165.505 10.283 C 166.002 10.379,166.722 10.375,167.105 10.275 C 167.487 10.175,167.080 10.096,166.200 10.101 C 165.320 10.105,165.007 10.187,165.505 10.283 M171.376 10.613 C 172.460 11.432,173.479 11.422,172.657 10.600 C 172.327 10.270,171.729 10.006,171.329 10.013 C 170.645 10.025,170.648 10.061,171.376 10.613 M114.705 11.483 C 115.202 11.579,115.922 11.575,116.305 11.475 C 116.687 11.375,116.280 11.296,115.400 11.301 C 114.520 11.305,114.207 11.387,114.705 11.483 M108.500 12.276 C 108.885 12.376,109.515 12.376,109.900 12.276 C 110.285 12.175,109.970 12.093,109.200 12.093 C 108.430 12.093,108.115 12.175,108.500 12.276 M98.800 13.600 C 98.008 13.854,97.967 13.920,98.600 13.920 C 99.040 13.920,99.850 13.776,100.400 13.600 C 101.192 13.346,101.233 13.280,100.600 13.280 C 100.160 13.280,99.350 13.424,98.800 13.600 M82.661 16.037 C 81.980 16.833,82.371 17.003,83.658 16.472 C 84.181 16.256,84.214 16.105,83.815 15.737 C 83.431 15.383,83.161 15.453,82.661 16.037 M62.800 20.776 C 62.800 21.009,62.485 21.214,62.100 21.232 C 61.708 21.249,61.613 21.350,61.885 21.460 C 62.582 21.743,63.827 20.988,63.251 20.632 C 63.003 20.478,62.800 20.543,62.800 20.776 M41.093 27.166 C 40.973 27.625,41.027 28.000,41.214 28.000 C 41.759 28.000,41.973 27.404,41.629 26.847 C 41.397 26.472,41.252 26.558,41.093 27.166 M38.400 28.600 C 37.850 28.914,37.580 29.172,37.800 29.172 C 38.020 29.172,38.650 28.914,39.200 28.600 C 39.750 28.286,40.020 28.028,39.800 28.028 C 39.580 28.028,38.950 28.286,38.400 28.600 M394.989 44.100 L 392.200 47.000 395.100 44.211 C 397.794 41.620,398.183 41.200,397.889 41.200 C 397.828 41.200,396.523 42.505,394.989 44.100 M387.978 50.700 L 386.600 52.200 388.100 50.822 C 389.496 49.538,389.784 49.200,389.478 49.200 C 389.412 49.200,388.737 49.875,387.978 50.700 M264.400 58.162 C 264.400 58.272,265.210 58.919,266.200 59.600 C 267.190 60.281,268.000 60.748,268.000 60.638 C 268.000 60.528,267.190 59.881,266.200 59.200 C 265.210 58.519,264.400 58.052,264.400 58.162 M301.800 75.600 C 301.262 75.831,301.196 75.955,301.600 75.977 C 301.930 75.996,302.650 76.131,303.200 76.278 C 304.136 76.528,304.157 76.502,303.529 75.872 C 303.159 75.503,302.799 75.213,302.729 75.228 C 302.658 75.244,302.240 75.411,301.800 75.600 M343.031 75.864 C 342.872 76.278,343.085 76.347,343.911 76.149 C 345.369 75.799,345.403 75.732,344.237 75.509 C 343.619 75.391,343.161 75.526,343.031 75.864 M334.900 77.476 C 335.285 77.576,335.915 77.576,336.300 77.476 C 336.685 77.375,336.370 77.293,335.600 77.293 C 334.830 77.293,334.515 77.375,334.900 77.476 M330.100 77.876 C 330.485 77.976,331.115 77.976,331.500 77.876 C 331.885 77.775,331.570 77.693,330.800 77.693 C 330.030 77.693,329.715 77.775,330.100 77.876 M97.298 209.300 C 97.388 209.575,97.962 209.859,98.573 209.931 C 99.244 210.010,99.587 209.902,99.437 209.659 C 99.300 209.438,99.596 209.179,100.094 209.083 C 100.592 208.987,100.130 208.884,99.067 208.854 C 97.681 208.815,97.180 208.942,97.298 209.300 M117.100 209.082 C 117.595 209.178,118.000 209.423,118.000 209.628 C 118.000 210.220,119.598 210.059,120.257 209.400 C 120.790 208.867,120.598 208.806,118.529 208.854 C 117.248 208.884,116.605 208.987,117.100 209.082 M122.705 209.483 C 123.202 209.579,123.922 209.575,124.305 209.475 C 124.687 209.375,124.280 209.296,123.400 209.301 C 122.520 209.305,122.207 209.387,122.705 209.483 M126.900 209.876 C 127.285 209.976,127.915 209.976,128.300 209.876 C 128.685 209.775,128.370 209.693,127.600 209.693 C 126.830 209.693,126.515 209.775,126.900 209.876 M146.000 213.739 C 146.550 214.029,147.085 214.196,147.188 214.111 C 147.470 213.880,146.290 213.212,145.600 213.212 C 145.269 213.212,145.449 213.448,146.000 213.739 M48.200 220.214 C 47.200 220.696,47.166 220.751,48.000 220.548 C 49.133 220.271,50.407 219.621,49.800 219.630 C 49.580 219.633,48.860 219.896,48.200 220.214 M191.600 231.400 C 192.150 231.714,192.780 231.972,193.000 231.972 C 193.220 231.972,192.950 231.714,192.400 231.400 C 191.850 231.086,191.220 230.828,191.000 230.828 C 190.780 230.828,191.050 231.086,191.600 231.400 M395.896 256.550 C 393.975 257.731,393.438 258.289,395.000 257.481 C 396.254 256.833,397.945 255.626,397.600 255.625 C 397.490 255.625,396.723 256.041,395.896 256.550 M236.000 256.579 C 236.000 256.689,236.540 257.059,237.200 257.400 C 237.860 257.741,238.400 257.931,238.400 257.821 C 238.400 257.711,237.860 257.341,237.200 257.000 C 236.540 256.659,236.000 256.469,236.000 256.579 M366.400 270.600 C 365.850 270.914,365.580 271.172,365.800 271.172 C 366.020 271.172,366.650 270.914,367.200 270.600 C 367.750 270.286,368.020 270.028,367.800 270.028 C 367.580 270.028,366.950 270.286,366.400 270.600 M268.800 273.763 C 268.800 274.136,269.081 274.252,269.634 274.107 C 270.268 273.941,270.340 273.808,269.934 273.551 C 269.156 273.058,268.800 273.125,268.800 273.763 M322.500 282.276 C 322.885 282.376,323.515 282.376,323.900 282.276 C 324.285 282.175,323.970 282.093,323.200 282.093 C 322.430 282.093,322.115 282.175,322.500 282.276 M307.500 282.698 C 309.535 282.771,312.865 282.771,314.900 282.698 C 316.935 282.625,315.270 282.566,311.200 282.566 C 307.130 282.566,305.465 282.625,307.500 282.698 " stroke="none" fill="#5daf5d" fill-rule="evenodd"></path><path id="path4" d="M0.600 0.800 C 0.035 1.714,1.043 2.000,4.824 2.000 L 8.800 2.000 8.900 240.100 L 8.999 478.200 9.112 240.600 C 9.175 109.920,9.122 2.415,8.995 1.700 L 8.764 0.400 4.805 0.400 C 2.598 0.400,0.738 0.577,0.600 0.800 M121.200 10.006 C 122.137 10.621,120.993 11.173,118.600 11.261 C 117.087 11.317,116.941 11.368,118.000 11.470 C 118.770 11.545,121.740 11.356,124.600 11.050 L 129.800 10.495 126.300 10.448 C 124.265 10.420,122.800 10.233,122.800 10.000 C 122.800 9.780,122.305 9.603,121.700 9.606 C 120.838 9.611,120.730 9.697,121.200 10.006 M134.000 10.000 C 132.570 10.144,138.960 10.268,148.200 10.275 C 157.471 10.282,164.014 10.151,162.800 9.983 C 160.152 9.617,137.670 9.630,134.000 10.000 M169.400 10.986 C 170.940 11.289,172.740 11.530,173.400 11.522 C 175.366 11.499,171.890 10.755,169.000 10.580 L 166.600 10.436 169.400 10.986 M111.600 12.000 L 110.200 12.295 111.800 12.341 C 112.680 12.367,113.670 12.213,114.000 12.000 C 114.724 11.532,113.823 11.532,111.600 12.000 M176.200 12.000 C 176.640 12.189,177.360 12.338,177.800 12.332 C 178.443 12.323,178.404 12.257,177.600 12.000 C 176.232 11.562,175.181 11.562,176.200 12.000 M105.200 12.800 C 104.220 13.114,104.224 13.121,105.400 13.154 C 106.060 13.173,106.870 13.013,107.200 12.800 C 107.958 12.310,106.730 12.310,105.200 12.800 M180.200 12.800 C 180.336 13.020,180.842 13.197,181.324 13.194 C 182.036 13.189,182.088 13.115,181.600 12.800 C 180.812 12.291,179.885 12.291,180.200 12.800 M101.126 13.407 C 101.013 13.521,99.858 13.784,98.560 13.992 L 96.200 14.370 98.730 14.188 C 101.061 14.020,103.636 13.244,101.967 13.212 C 101.618 13.205,101.240 13.293,101.126 13.407 M184.000 13.800 C 184.770 14.097,185.760 14.345,186.200 14.352 C 186.640 14.359,186.280 14.105,185.400 13.788 C 183.382 13.061,182.109 13.072,184.000 13.800 M93.000 14.800 L 91.800 15.105 93.200 15.147 C 93.970 15.169,94.870 15.013,95.200 14.800 C 95.939 14.323,94.876 14.323,93.000 14.800 M187.600 14.782 C 187.930 15.005,188.545 15.191,188.967 15.194 C 189.990 15.202,189.671 14.973,188.200 14.644 C 187.324 14.448,187.162 14.485,187.600 14.782 M88.200 15.600 C 87.555 15.877,87.687 15.949,88.876 15.972 C 89.688 15.987,90.464 15.820,90.600 15.600 C 90.898 15.117,89.323 15.117,88.200 15.600 M190.400 15.600 C 190.730 15.813,191.270 15.988,191.600 15.988 C 192.133 15.988,192.133 15.945,191.600 15.600 C 191.270 15.387,190.730 15.212,190.400 15.212 C 189.867 15.212,189.867 15.255,190.400 15.600 M82.800 16.653 L 81.000 17.202 82.600 17.004 C 83.480 16.895,84.920 16.645,85.800 16.449 L 87.400 16.092 86.000 16.098 C 85.230 16.102,83.790 16.351,82.800 16.653 M193.546 16.616 C 194.286 16.937,195.096 17.185,195.346 17.168 C 195.977 17.122,193.539 16.037,192.800 16.034 C 192.470 16.032,192.806 16.294,193.546 16.616 M78.400 17.600 L 77.400 17.920 78.400 17.954 C 78.950 17.973,79.670 17.813,80.000 17.600 C 80.764 17.106,79.942 17.106,78.400 17.600 M74.600 18.400 L 73.800 18.744 74.600 18.766 C 75.040 18.778,75.670 18.613,76.000 18.400 C 76.795 17.886,75.796 17.886,74.600 18.400 M71.200 19.154 C 70.870 19.335,69.438 19.722,68.017 20.014 C 66.596 20.306,65.651 20.617,65.917 20.706 C 66.466 20.889,71.487 19.701,72.400 19.172 C 73.229 18.692,72.073 18.675,71.200 19.154 M201.024 19.387 C 201.451 19.710,202.070 19.974,202.400 19.973 C 202.748 19.972,202.580 19.732,202.000 19.400 C 200.685 18.648,200.036 18.640,201.024 19.387 M203.200 20.205 C 203.200 20.503,206.104 21.629,206.319 21.415 C 206.426 21.307,206.264 21.130,205.957 21.021 C 205.651 20.913,204.905 20.643,204.300 20.422 C 203.695 20.201,203.200 20.103,203.200 20.205 M63.200 21.200 C 62.405 21.714,63.404 21.714,64.600 21.200 L 65.400 20.856 64.600 20.834 C 64.160 20.822,63.530 20.987,63.200 21.200 M60.200 22.000 C 59.181 22.438,60.232 22.438,61.600 22.000 C 62.404 21.743,62.443 21.677,61.800 21.668 C 61.360 21.662,60.640 21.811,60.200 22.000 M207.600 22.200 C 208.150 22.514,208.780 22.772,209.000 22.772 C 209.220 22.772,208.950 22.514,208.400 22.200 C 207.850 21.886,207.220 21.628,207.000 21.628 C 206.780 21.628,207.050 21.886,207.600 22.200 M56.600 22.986 C 55.000 23.718,55.792 23.735,57.800 23.012 C 58.680 22.695,59.040 22.435,58.600 22.436 C 58.160 22.436,57.260 22.683,56.600 22.986 M211.200 23.779 C 211.200 24.034,215.695 26.401,216.171 26.395 C 216.407 26.393,215.880 25.986,215.000 25.491 C 213.047 24.392,211.200 23.560,211.200 23.779 M48.600 25.327 C 47.095 25.846,46.477 26.215,46.942 26.315 C 47.351 26.403,47.882 26.278,48.122 26.038 C 48.363 25.797,48.839 25.592,49.180 25.582 C 49.521 25.572,50.340 25.317,51.000 25.014 C 52.792 24.194,51.337 24.384,48.600 25.327 M43.533 26.942 C 42.726 27.194,41.931 27.535,41.766 27.700 C 41.601 27.865,41.107 28.000,40.667 28.000 C 40.227 28.000,39.981 28.114,40.121 28.254 C 40.363 28.496,46.000 26.862,46.000 26.550 C 46.000 26.309,45.107 26.451,43.533 26.942 M216.800 26.542 C 216.800 26.849,219.623 28.510,219.817 28.317 C 219.913 28.221,219.273 27.739,218.396 27.246 C 217.518 26.752,216.800 26.436,216.800 26.542 M221.600 29.337 C 221.600 29.449,222.635 30.126,223.900 30.841 C 225.165 31.556,228.270 33.496,230.800 35.153 C 238.015 39.878,239.041 40.517,238.400 39.882 C 237.613 39.104,227.049 32.139,224.324 30.602 C 221.741 29.146,221.600 29.080,221.600 29.337 M32.400 31.016 C 31.190 31.537,30.380 31.971,30.600 31.981 C 31.025 32.001,35.285 30.443,35.567 30.165 C 36.009 29.727,34.373 30.167,32.400 31.016 M28.400 32.475 C 27.264 32.953,26.367 33.306,24.487 34.013 C 23.765 34.285,23.270 34.604,23.388 34.721 C 23.505 34.838,24.006 34.738,24.501 34.498 C 24.995 34.258,26.300 33.748,27.400 33.365 C 28.500 32.982,29.571 32.518,29.780 32.334 C 30.295 31.881,29.655 31.947,28.400 32.475 M17.600 37.000 C 17.050 37.314,16.780 37.572,17.000 37.572 C 17.220 37.572,17.850 37.314,18.400 37.000 C 18.950 36.686,19.220 36.428,19.000 36.428 C 18.780 36.428,18.150 36.686,17.600 37.000 M15.500 38.032 C 14.836 38.419,14.805 43.482,14.899 136.720 L 14.998 235.000 15.100 136.844 C 15.196 43.942,15.239 38.659,15.901 38.156 C 16.729 37.528,16.492 37.454,15.500 38.032 M394.780 44.500 C 390.180 48.994,382.779 55.614,379.000 58.613 C 377.900 59.486,376.910 60.290,376.800 60.401 C 376.690 60.512,375.565 61.388,374.300 62.350 C 371.840 64.219,371.142 65.054,373.300 63.546 C 375.146 62.256,379.754 58.588,382.157 56.497 C 383.281 55.519,385.370 53.703,386.800 52.461 C 388.230 51.219,391.485 48.177,394.033 45.701 C 396.581 43.226,398.786 41.200,398.933 41.200 C 399.080 41.200,399.200 53.069,399.200 67.576 C 399.200 84.729,399.340 94.039,399.600 94.200 C 399.865 94.364,400.000 85.271,400.000 67.224 C 400.000 52.251,399.862 40.000,399.693 40.000 C 399.524 40.000,397.313 42.025,394.780 44.500 M239.200 40.542 C 239.200 40.874,242.428 43.305,242.618 43.116 C 242.717 43.016,241.989 42.353,240.999 41.642 C 240.010 40.932,239.200 40.436,239.200 40.542 M243.205 43.487 C 243.207 43.659,244.197 44.486,245.405 45.324 C 248.243 47.295,248.240 46.979,245.400 44.835 C 244.190 43.922,243.202 43.315,243.205 43.487 M248.000 47.186 C 248.000 47.414,248.167 47.600,248.371 47.600 C 248.576 47.600,248.981 47.833,249.271 48.117 C 249.562 48.401,251.060 49.500,252.600 50.559 C 254.193 51.655,254.797 51.957,254.000 51.260 C 251.718 49.265,248.000 46.740,248.000 47.186 M255.600 52.562 C 255.600 52.672,256.410 53.319,257.400 54.000 C 258.390 54.681,259.200 55.148,259.200 55.038 C 259.200 54.928,258.390 54.281,257.400 53.600 C 256.410 52.919,255.600 52.452,255.600 52.562 M259.600 55.346 C 259.600 55.456,260.140 55.930,260.800 56.400 C 261.460 56.870,262.000 57.164,262.000 57.054 C 262.000 56.944,261.460 56.470,260.800 56.000 C 260.140 55.530,259.600 55.236,259.600 55.346 M262.600 57.476 C 263.517 58.320,265.971 59.999,266.273 59.991 C 266.729 59.979,264.846 58.504,263.400 57.742 C 262.740 57.393,262.380 57.274,262.600 57.476 M269.000 61.753 C 270.224 62.791,271.047 63.123,270.598 62.397 C 270.461 62.176,269.776 61.711,269.075 61.365 L 267.800 60.735 269.000 61.753 M271.400 63.105 C 271.998 63.758,276.885 66.448,277.094 66.240 C 277.193 66.140,276.673 65.752,275.937 65.377 C 275.202 65.002,273.790 64.240,272.800 63.682 C 271.810 63.124,271.180 62.865,271.400 63.105 M370.083 65.257 C 369.359 65.720,368.854 66.187,368.960 66.294 C 369.155 66.489,371.600 64.895,371.600 64.573 C 371.600 64.306,371.492 64.355,370.083 65.257 M277.600 66.570 C 277.600 66.834,282.089 69.201,282.571 69.191 C 282.807 69.186,281.838 68.556,280.419 67.791 C 277.743 66.349,277.600 66.287,277.600 66.570 M365.824 67.813 C 365.396 68.136,365.227 68.400,365.447 68.400 C 365.667 68.400,366.196 68.136,366.624 67.813 C 367.051 67.490,367.220 67.225,367.000 67.225 C 366.780 67.225,366.251 67.490,365.824 67.813 M283.201 69.522 C 283.203 69.879,286.776 71.357,287.029 71.105 C 287.133 71.000,286.315 70.539,285.209 70.079 C 284.104 69.620,283.201 69.369,283.201 69.522 M360.455 70.456 C 359.055 71.109,357.989 71.722,358.086 71.819 C 358.182 71.916,359.192 71.546,360.329 70.997 C 361.466 70.449,362.566 70.000,362.774 70.000 C 362.983 70.000,363.264 69.820,363.400 69.600 C 363.770 69.001,363.252 69.151,360.455 70.456 M292.346 73.416 C 293.086 73.737,293.896 73.993,294.146 73.984 C 294.396 73.976,293.994 73.706,293.254 73.384 C 292.514 73.063,291.704 72.807,291.454 72.816 C 291.204 72.824,291.606 73.094,292.346 73.416 M353.400 73.414 C 351.785 74.154,352.751 74.155,354.454 73.416 C 355.194 73.094,355.530 72.839,355.200 72.848 C 354.870 72.857,354.060 73.112,353.400 73.414 M295.000 74.400 C 295.136 74.620,295.642 74.787,296.124 74.772 C 296.969 74.745,296.971 74.731,296.200 74.400 C 295.099 73.927,294.708 73.927,295.000 74.400 M350.600 74.400 C 349.829 74.731,349.831 74.745,350.676 74.772 C 351.158 74.787,351.664 74.620,351.800 74.400 C 352.092 73.927,351.701 73.927,350.600 74.400 M297.297 75.031 C 297.634 75.368,303.262 76.789,304.200 76.773 C 304.640 76.766,303.292 76.320,301.205 75.780 C 297.072 74.713,296.958 74.691,297.297 75.031 M347.600 75.200 C 347.103 75.521,347.138 75.588,347.800 75.588 C 348.240 75.588,348.870 75.413,349.200 75.200 C 349.697 74.879,349.662 74.812,349.000 74.812 C 348.560 74.812,347.930 74.987,347.600 75.200 M343.400 76.209 C 342.158 76.528,341.779 76.735,342.400 76.756 C 342.950 76.773,344.210 76.533,345.200 76.221 C 347.429 75.518,346.121 75.510,343.400 76.209 M306.200 77.200 C 306.640 77.389,307.540 77.535,308.200 77.525 L 309.400 77.505 308.200 77.200 C 307.540 77.032,306.640 76.886,306.200 76.875 L 305.400 76.856 306.200 77.200 M338.000 77.200 L 336.600 77.495 338.000 77.541 C 338.770 77.567,339.670 77.413,340.000 77.200 C 340.727 76.730,340.233 76.730,338.000 77.200 M312.075 78.060 C 313.365 78.423,333.296 78.454,333.862 78.094 C 334.115 77.932,329.109 77.800,322.737 77.800 C 316.365 77.800,311.567 77.917,312.075 78.060 M94.004 208.831 C 89.790 209.346,89.538 209.631,93.600 209.287 C 97.882 208.925,119.929 208.911,124.200 209.267 C 126.737 209.478,127.068 209.451,125.800 209.133 C 123.695 208.606,97.855 208.361,94.004 208.831 M85.600 210.000 C 84.861 210.477,85.924 210.477,87.800 210.000 L 89.000 209.695 87.600 209.653 C 86.830 209.631,85.930 209.787,85.600 210.000 M129.800 210.000 C 130.460 210.168,131.360 210.314,131.800 210.325 L 132.600 210.344 131.800 210.000 C 131.360 209.811,130.460 209.665,129.800 209.675 L 128.600 209.695 129.800 210.000 M81.000 210.800 C 80.716 211.260,81.364 211.260,82.800 210.800 C 83.755 210.494,83.743 210.478,82.524 210.440 C 81.822 210.418,81.136 210.580,81.000 210.800 M134.800 210.800 C 136.342 211.294,137.164 211.294,136.400 210.800 C 136.070 210.587,135.350 210.427,134.800 210.446 L 133.800 210.480 134.800 210.800 M76.800 211.600 C 76.470 211.813,75.750 212.011,75.200 212.040 C 74.650 212.069,74.477 212.168,74.816 212.260 C 75.155 212.351,76.415 212.162,77.616 211.840 C 79.290 211.390,79.520 211.248,78.600 211.232 C 77.940 211.221,77.130 211.387,76.800 211.600 M139.400 211.781 C 140.500 212.102,141.760 212.354,142.200 212.341 C 143.195 212.312,140.697 211.597,138.800 211.367 C 137.725 211.237,137.864 211.333,139.400 211.781 M71.800 212.800 L 71.000 213.144 71.800 213.144 C 72.240 213.144,72.960 212.989,73.400 212.800 L 74.200 212.456 73.400 212.456 C 72.960 212.456,72.240 212.611,71.800 212.800 M143.600 212.800 C 143.930 213.013,144.650 213.173,145.200 213.154 L 146.200 213.120 145.200 212.800 C 143.658 212.306,142.836 212.306,143.600 212.800 M68.200 213.600 C 67.905 214.078,68.689 214.078,69.800 213.600 C 70.514 213.293,70.485 213.253,69.524 213.228 C 68.932 213.213,68.336 213.380,68.200 213.600 M146.800 213.600 C 147.130 213.813,147.760 213.988,148.200 213.988 C 148.862 213.988,148.897 213.921,148.400 213.600 C 148.070 213.387,147.440 213.212,147.000 213.212 C 146.338 213.212,146.303 213.279,146.800 213.600 M64.200 214.614 C 62.607 215.344,63.773 215.342,65.800 214.612 C 67.036 214.166,67.173 214.039,66.400 214.050 C 65.850 214.058,64.860 214.312,64.200 214.614 M150.600 214.612 C 151.480 214.929,152.380 215.176,152.600 215.161 C 153.310 215.115,150.628 214.036,149.800 214.036 C 149.360 214.035,149.720 214.295,150.600 214.612 M61.200 215.600 C 60.667 215.945,60.667 215.988,61.200 215.988 C 61.530 215.988,62.070 215.813,62.400 215.600 C 62.933 215.255,62.933 215.212,62.400 215.212 C 62.070 215.212,61.530 215.387,61.200 215.600 M55.780 217.133 C 55.571 217.315,54.617 217.688,53.661 217.960 C 52.705 218.233,52.016 218.549,52.131 218.664 C 52.316 218.850,57.144 217.326,57.567 216.949 C 57.658 216.867,57.379 216.800,56.947 216.800 C 56.514 216.800,55.989 216.950,55.780 217.133 M158.831 217.194 C 159.879 217.807,163.262 218.872,163.477 218.656 C 163.587 218.546,162.895 218.233,161.939 217.960 C 160.983 217.688,160.029 217.315,159.820 217.133 C 159.611 216.950,159.161 216.805,158.820 216.812 C 158.268 216.823,158.269 216.865,158.831 217.194 M49.800 219.200 C 49.485 219.709,50.412 219.709,51.200 219.200 C 51.688 218.885,51.636 218.811,50.924 218.806 C 50.442 218.803,49.936 218.980,49.800 219.200 M46.500 220.412 C 45.565 220.827,44.800 221.258,44.800 221.369 C 44.800 221.481,45.565 221.246,46.500 220.848 C 47.435 220.450,48.470 220.020,48.800 219.894 C 49.333 219.689,49.333 219.663,48.800 219.660 C 48.470 219.658,47.435 219.996,46.500 220.412 M168.167 220.617 C 169.469 221.157,170.598 221.535,170.676 221.457 C 170.863 221.271,166.828 219.595,166.247 219.617 C 166.001 219.626,166.865 220.076,168.167 220.617 M39.400 223.391 C 38.300 223.909,37.580 224.337,37.800 224.342 C 38.020 224.347,39.100 223.927,40.200 223.409 C 41.300 222.891,42.020 222.463,41.800 222.458 C 41.580 222.453,40.500 222.873,39.400 223.391 M175.947 223.848 C 177.568 224.613,178.988 225.145,179.102 225.031 C 179.217 224.916,178.838 224.643,178.261 224.423 C 177.683 224.204,176.455 223.659,175.530 223.212 C 174.606 222.765,173.659 222.413,173.425 222.428 C 173.191 222.444,174.326 223.082,175.947 223.848 M34.037 225.622 C 32.628 226.274,31.550 226.883,31.643 226.976 C 31.735 227.069,33.069 226.535,34.606 225.790 C 38.043 224.124,37.575 223.986,34.037 225.622 M181.369 226.218 C 182.452 226.755,183.415 227.119,183.508 227.025 C 183.719 226.815,180.407 225.192,179.825 225.221 C 179.591 225.233,180.286 225.681,181.369 226.218 M27.600 228.757 C 21.892 231.607,20.321 232.454,20.469 232.603 C 20.551 232.685,23.044 231.509,26.009 229.991 C 28.974 228.473,31.220 227.237,31.000 227.244 C 30.780 227.252,29.250 227.933,27.600 228.757 M187.369 229.018 C 188.452 229.555,189.423 229.911,189.526 229.807 C 189.713 229.620,186.172 227.981,185.667 228.021 C 185.520 228.033,186.286 228.481,187.369 229.018 M191.633 230.935 C 192.218 231.407,196.400 233.622,196.400 233.459 C 196.400 233.209,192.218 230.800,191.785 230.800 C 191.610 230.800,191.542 230.861,191.633 230.935 M16.866 234.193 C 16.353 234.476,15.723 234.925,15.466 235.191 C 15.071 235.602,17.887 234.209,18.367 233.757 C 18.722 233.423,17.754 233.704,16.866 234.193 M199.024 234.987 C 199.451 235.310,199.929 235.580,200.087 235.587 C 200.244 235.594,202.764 236.973,205.687 238.652 C 208.609 240.330,211.180 241.786,211.400 241.887 C 212.357 242.324,209.793 240.472,208.474 239.773 C 207.672 239.348,205.216 237.965,203.015 236.700 C 199.216 234.517,197.333 233.709,199.024 234.987 M212.000 242.160 C 212.000 242.249,212.675 242.702,213.500 243.168 L 215.000 244.016 213.800 243.010 C 212.699 242.087,212.000 241.757,212.000 242.160 M215.200 244.165 C 215.200 244.256,216.595 245.135,218.300 246.119 C 220.005 247.103,222.075 248.306,222.900 248.793 C 223.725 249.280,224.400 249.592,224.400 249.485 C 224.400 249.379,223.095 248.524,221.500 247.585 C 219.905 246.646,217.929 245.456,217.109 244.939 C 215.644 244.017,215.200 243.837,215.200 244.165 M226.400 250.821 C 227.442 251.530,229.200 252.428,229.200 252.250 C 229.200 252.028,226.439 250.398,226.077 250.406 C 225.925 250.409,226.070 250.596,226.400 250.821 M229.600 252.590 C 229.600 252.694,230.185 253.065,230.900 253.414 L 232.200 254.048 231.200 253.233 C 230.237 252.448,229.600 252.192,229.600 252.590 M398.554 254.468 C 396.929 255.691,396.463 256.173,397.400 255.660 C 398.440 255.091,400.272 253.620,399.954 253.609 C 399.819 253.604,399.189 253.991,398.554 254.468 M235.633 256.135 C 236.218 256.607,240.400 258.822,240.400 258.659 C 240.400 258.409,236.218 256.000,235.785 256.000 C 235.610 256.000,235.542 256.061,235.633 256.135 M393.600 257.441 C 392.170 258.222,390.820 259.055,390.600 259.294 C 390.147 259.785,395.593 256.924,396.180 256.363 C 396.823 255.749,396.301 255.967,393.600 257.441 M241.200 259.221 C 242.242 259.930,244.000 260.828,244.000 260.650 C 244.000 260.428,241.239 258.798,240.877 258.806 C 240.725 258.809,240.870 258.996,241.200 259.221 M388.576 260.187 C 388.149 260.510,387.980 260.775,388.200 260.775 C 388.420 260.775,388.949 260.510,389.376 260.187 C 389.804 259.864,389.973 259.600,389.753 259.600 C 389.533 259.600,389.004 259.864,388.576 260.187 M246.000 261.752 C 246.000 262.053,248.895 263.638,249.089 263.444 C 249.193 263.341,248.540 262.880,247.639 262.420 C 246.737 261.960,246.000 261.660,246.000 261.752 M383.457 262.467 C 382.608 262.896,381.992 263.325,382.088 263.421 C 382.183 263.517,383.148 263.155,384.231 262.618 C 385.314 262.081,385.930 261.652,385.600 261.665 C 385.270 261.677,384.306 262.038,383.457 262.467 M251.600 264.786 C 252.538 265.483,256.000 267.237,256.000 267.013 C 256.000 266.903,255.055 266.316,253.900 265.709 C 251.505 264.450,250.730 264.139,251.600 264.786 M376.851 265.641 C 375.449 266.297,374.379 266.913,374.474 267.007 C 374.569 267.102,375.896 266.563,377.423 265.808 C 380.831 264.125,380.373 263.991,376.851 265.641 M258.139 268.246 C 259.206 268.801,260.148 269.185,260.234 269.099 C 260.448 268.886,257.237 267.195,256.662 267.219 C 256.408 267.229,257.073 267.691,258.139 268.246 M370.502 268.333 C 369.128 268.920,368.003 269.527,368.002 269.682 C 368.000 269.927,373.515 267.775,373.967 267.355 C 374.457 266.899,372.694 267.397,370.502 268.333 M265.769 271.818 C 266.852 272.355,267.823 272.711,267.926 272.607 C 268.113 272.420,264.572 270.781,264.067 270.821 C 263.920 270.833,264.686 271.281,265.769 271.818 M362.600 271.791 C 361.500 272.309,360.885 272.748,361.233 272.767 C 361.582 272.785,362.002 272.665,362.167 272.500 C 362.331 272.335,363.216 271.895,364.133 271.522 C 365.050 271.150,365.530 270.846,365.200 270.847 C 364.870 270.848,363.700 271.273,362.600 271.791 M271.588 274.222 C 273.451 274.984,275.135 275.555,275.331 275.490 C 275.707 275.364,269.178 272.788,268.560 272.817 C 268.362 272.827,269.724 273.459,271.588 274.222 M356.658 273.731 C 355.370 274.193,354.475 274.625,354.669 274.690 C 354.863 274.754,356.277 274.369,357.811 273.833 C 359.345 273.298,360.240 272.866,359.800 272.875 C 359.360 272.883,357.946 273.268,356.658 273.731 M350.000 276.000 C 349.205 276.514,350.204 276.514,351.400 276.000 L 352.200 275.656 351.400 275.634 C 350.960 275.622,350.330 275.787,350.000 276.000 M278.033 276.549 C 278.395 276.871,283.088 278.398,283.627 278.368 C 283.942 278.351,282.940 277.906,281.400 277.380 C 278.771 276.482,277.648 276.205,278.033 276.549 M347.200 276.747 C 346.870 276.925,345.537 277.315,344.237 277.614 C 342.937 277.913,342.103 278.234,342.383 278.328 C 342.663 278.421,343.637 278.269,344.546 277.991 C 348.346 276.826,349.356 276.438,348.600 276.431 C 348.160 276.427,347.530 276.570,347.200 276.747 M285.000 278.800 C 286.196 279.314,287.195 279.314,286.400 278.800 C 286.070 278.587,285.440 278.422,285.000 278.434 L 284.200 278.456 285.000 278.800 M339.400 278.800 L 338.600 279.144 339.400 279.144 C 339.840 279.144,340.560 278.989,341.000 278.800 L 341.800 278.456 341.000 278.456 C 340.560 278.456,339.840 278.611,339.400 278.800 M289.000 279.828 C 290.100 280.134,291.180 280.369,291.400 280.350 C 292.077 280.292,288.652 279.261,287.800 279.267 C 287.360 279.269,287.900 279.522,289.000 279.828 M334.800 279.800 C 332.394 280.497,333.623 280.510,336.400 279.817 C 337.610 279.515,338.150 279.270,337.600 279.273 C 337.050 279.276,335.790 279.513,334.800 279.800 M292.433 280.544 C 292.905 280.950,294.843 281.193,294.610 280.816 C 294.468 280.587,293.883 280.400,293.310 280.400 C 292.736 280.400,292.342 280.465,292.433 280.544 M329.800 280.800 L 329.000 281.144 329.800 281.132 C 330.240 281.126,331.050 280.976,331.600 280.800 L 332.600 280.480 331.600 280.468 C 331.050 280.462,330.240 280.611,329.800 280.800 M297.400 281.600 C 298.060 281.768,298.960 281.914,299.400 281.925 L 300.200 281.944 299.400 281.600 C 298.960 281.411,298.060 281.265,297.400 281.275 L 296.200 281.295 297.400 281.600 M324.200 281.600 C 323.136 282.057,324.803 282.057,326.600 281.600 L 327.800 281.295 326.400 281.275 C 325.630 281.265,324.640 281.411,324.200 281.600 M306.300 282.299 C 309.215 282.367,313.985 282.367,316.900 282.299 C 319.815 282.231,317.430 282.175,311.600 282.175 C 305.770 282.175,303.385 282.231,306.300 282.299 " stroke="none" fill="#359c35" fill-rule="evenodd"></path></g></svg>