<svg id="svg" version="1.1" xmlns="http://www.w3.org/2000/svg" xmlns:xlink="http://www.w3.org/1999/xlink" width="400" height="400" viewBox="0, 0, 400,400"><g id="svgg"><path id="path0" d="M155.600 235.181 C 155.600 265.362,155.599 265.387,154.000 267.329 C 153.266 268.219,151.040 269.200,149.751 269.200 L 148.800 269.200 148.800 278.200 C 148.800 286.950,148.822 287.200,149.604 287.200 C 154.380 287.200,155.600 289.886,155.600 300.400 C 155.600 309.769,155.251 311.291,152.849 312.406 C 152.272 312.674,151.487 313.052,151.105 313.247 C 150.723 313.441,150.048 313.600,149.605 313.600 C 148.825 313.600,148.800 313.848,148.800 321.753 L 148.800 329.905 150.531 330.341 C 152.430 330.819,154.130 331.982,154.903 333.331 C 155.273 333.978,155.451 339.299,155.600 354.200 L 155.800 374.200 200.000 374.200 L 244.200 374.200 244.301 290.100 L 244.402 206.000 200.001 206.000 L 155.600 206.000 155.600 235.181 " stroke="none" fill="#ebfbfb" fill-rule="evenodd"></path><path id="path1" d="M193.800 171.690 C 192.920 171.904,191.887 172.241,191.505 172.439 C 191.123 172.638,190.626 172.800,190.401 172.800 C 185.508 172.800,172.800 185.631,172.800 190.572 C 172.800 190.891,172.620 191.264,172.400 191.400 C 172.180 191.536,172.000 192.267,172.000 193.024 L 172.000 194.400 200.120 194.400 L 228.239 194.400 228.075 192.996 C 227.985 192.224,227.751 191.494,227.556 191.373 C 227.360 191.252,227.200 190.822,227.200 190.417 C 227.200 188.688,223.300 182.438,220.431 179.569 C 217.708 176.846,211.326 172.800,209.754 172.800 C 209.443 172.800,208.877 172.641,208.495 172.447 C 206.125 171.244,197.471 170.798,193.800 171.690 " stroke="none" fill="#f96b6b" fill-rule="evenodd"></path><path id="path2" d="M197.900 171.095 C 199.055 171.176,200.945 171.176,202.100 171.095 C 203.255 171.014,202.310 170.948,200.000 170.948 C 197.690 170.948,196.745 171.014,197.900 171.095 M192.800 171.600 L 191.800 171.920 192.800 171.932 C 193.350 171.938,194.160 171.789,194.600 171.600 L 195.400 171.256 194.600 171.268 C 194.160 171.274,193.350 171.424,192.800 171.600 M205.400 171.600 C 205.840 171.789,206.650 171.938,207.200 171.932 L 208.200 171.920 207.200 171.600 C 206.650 171.424,205.840 171.274,205.400 171.268 L 204.600 171.256 205.400 171.600 M208.600 172.400 C 208.736 172.620,209.242 172.787,209.724 172.772 C 210.569 172.745,210.571 172.731,209.800 172.400 C 208.699 171.927,208.308 171.927,208.600 172.400 M187.183 173.725 C 183.938 175.372,178.800 179.265,178.800 180.077 C 178.800 180.232,179.475 179.727,180.300 178.954 C 182.339 177.045,184.962 175.237,187.600 173.922 C 188.810 173.319,189.620 172.820,189.400 172.814 C 189.180 172.808,188.182 173.218,187.183 173.725 M210.800 172.994 C 210.800 173.087,211.475 173.475,212.300 173.856 C 213.125 174.237,214.825 175.236,216.078 176.075 C 217.331 176.914,218.499 177.600,218.673 177.600 C 219.042 177.600,215.481 175.165,213.534 174.085 C 211.983 173.225,210.800 172.753,210.800 172.994 M220.341 179.504 C 221.144 180.331,221.878 180.958,221.973 180.898 C 222.199 180.754,219.528 178.000,219.163 178.000 C 219.009 178.000,219.539 178.677,220.341 179.504 M177.783 180.940 C 177.220 181.562,175.006 184.854,174.650 185.600 C 174.492 185.930,174.686 185.755,175.081 185.210 C 175.477 184.666,176.397 183.433,177.127 182.471 C 178.338 180.875,178.783 179.837,177.783 180.940 M222.400 181.326 C 222.400 181.501,223.086 182.669,223.925 183.922 C 224.764 185.175,225.763 186.875,226.144 187.700 C 227.008 189.568,227.414 189.688,226.646 187.847 C 226.035 186.387,222.400 180.803,222.400 181.326 M173.303 188.085 C 172.163 190.533,171.815 191.762,172.357 191.426 C 172.601 191.276,172.800 190.885,172.800 190.557 C 172.800 190.229,173.159 189.219,173.597 188.311 C 174.036 187.404,174.329 186.595,174.249 186.515 C 174.168 186.435,173.743 187.141,173.303 188.085 M227.228 190.276 C 227.213 190.758,227.380 191.264,227.600 191.400 C 228.073 191.692,228.073 191.301,227.600 190.200 C 227.269 189.429,227.255 189.431,227.228 190.276 M228.000 192.910 C 228.000 193.483,228.187 194.068,228.416 194.210 C 228.689 194.379,228.738 194.077,228.560 193.334 C 228.192 191.801,228.000 191.656,228.000 192.910 M171.512 193.186 C 171.052 194.793,171.029 194.792,200.200 194.697 L 228.200 194.605 200.126 194.500 L 172.053 194.395 171.924 193.297 L 171.795 192.200 171.512 193.186 M155.068 205.465 C 154.921 205.613,154.799 218.708,154.798 234.567 C 154.795 268.229,154.944 267.039,150.600 268.206 C 149.753 268.433,149.605 268.576,150.095 268.692 C 150.987 268.903,153.673 267.400,154.423 266.270 C 154.908 265.538,155.032 260.661,155.200 235.600 L 155.400 205.800 200.000 205.800 L 244.600 205.800 244.709 289.400 C 244.769 335.380,244.721 373.405,244.602 373.900 L 244.385 374.800 200.035 374.800 C 159.963 374.800,155.662 374.739,155.443 374.167 C 155.309 373.819,155.200 364.891,155.200 354.328 C 155.200 331.350,155.470 332.698,150.475 330.736 C 149.249 330.254,148.877 330.211,149.190 330.587 C 149.431 330.878,150.221 331.227,150.944 331.363 C 151.668 331.499,152.786 332.159,153.430 332.831 L 154.600 334.052 154.800 354.526 L 155.000 375.000 200.000 375.000 L 245.000 375.000 245.000 290.200 L 245.000 205.400 200.168 205.298 C 175.511 205.242,155.216 205.317,155.068 205.465 M149.376 287.767 C 149.804 288.115,150.533 288.400,150.998 288.400 C 151.463 288.400,152.463 289.040,153.222 289.822 L 154.600 291.244 154.600 300.400 L 154.600 309.556 153.200 311.055 C 152.154 312.175,152.045 312.401,152.767 311.950 C 154.929 310.600,155.200 309.327,155.200 300.532 C 155.200 290.718,154.676 288.983,151.430 288.043 C 150.753 287.847,149.840 287.563,149.400 287.411 C 148.611 287.139,148.611 287.144,149.376 287.767 M149.149 313.077 C 148.715 313.612,148.711 313.687,149.131 313.434 C 149.424 313.258,150.144 312.969,150.731 312.791 L 151.800 312.469 150.749 312.434 C 150.171 312.415,149.451 312.705,149.149 313.077 " stroke="none" fill="#646c6c" fill-rule="evenodd"></path><path id="path3" d="M185.600 14.000 C 185.600 14.240,184.008 14.400,181.624 14.400 C 179.404 14.400,177.538 14.577,177.400 14.800 C 177.264 15.020,175.903 15.200,174.376 15.200 C 172.792 15.200,171.600 15.372,171.600 15.600 C 171.600 15.822,170.533 16.000,169.200 16.000 C 167.867 16.000,166.800 16.178,166.800 16.400 C 166.800 16.620,165.810 16.800,164.600 16.800 C 163.390 16.800,162.400 16.980,162.400 17.200 C 162.400 17.420,161.680 17.600,160.800 17.600 C 159.920 17.600,159.200 17.780,159.200 18.000 C 159.200 18.220,158.480 18.400,157.600 18.400 C 156.720 18.400,156.000 18.580,156.000 18.800 C 156.000 19.020,155.291 19.200,154.424 19.200 C 153.557 19.200,152.736 19.380,152.600 19.600 C 152.464 19.820,151.733 20.000,150.976 20.000 C 150.219 20.000,149.600 20.180,149.600 20.400 C 149.600 20.620,148.970 20.800,148.200 20.800 C 147.430 20.800,146.800 20.980,146.800 21.200 C 146.800 21.420,146.170 21.600,145.400 21.600 C 144.630 21.600,144.000 21.780,144.000 22.000 C 144.000 22.220,143.550 22.400,143.000 22.400 C 142.450 22.400,142.000 22.580,142.000 22.800 C 142.000 23.020,141.460 23.200,140.800 23.200 C 140.140 23.200,139.600 23.380,139.600 23.600 C 139.600 23.820,139.060 24.000,138.400 24.000 C 137.740 24.000,137.200 24.160,137.200 24.356 C 137.200 24.552,136.615 24.801,135.900 24.909 C 134.398 25.136,129.981 26.731,129.420 27.249 C 129.211 27.442,128.752 27.600,128.400 27.600 C 127.569 27.600,125.607 28.512,125.603 28.900 C 125.601 29.065,125.240 29.200,124.800 29.200 C 124.360 29.200,124.000 29.380,124.000 29.600 C 124.000 29.820,123.561 30.000,123.024 30.000 C 122.487 30.000,121.936 30.180,121.800 30.400 C 121.664 30.620,121.203 30.800,120.776 30.800 C 120.349 30.800,120.000 30.980,120.000 31.200 C 120.000 31.420,119.640 31.600,119.200 31.600 C 118.760 31.600,118.400 31.780,118.400 32.000 C 118.400 32.220,118.040 32.400,117.600 32.400 C 117.160 32.400,116.800 32.580,116.800 32.800 C 116.800 33.020,116.440 33.200,116.000 33.200 C 115.560 33.200,115.200 33.380,115.200 33.600 C 115.200 33.820,114.840 34.000,114.400 34.000 C 113.960 34.000,113.600 34.146,113.600 34.325 C 113.600 34.504,112.970 34.898,112.200 35.200 C 111.430 35.502,110.800 35.896,110.800 36.075 C 110.800 36.254,110.530 36.400,110.200 36.400 C 109.870 36.400,109.600 36.580,109.600 36.800 C 109.600 37.020,109.330 37.200,109.000 37.200 C 108.670 37.200,108.400 37.380,108.400 37.600 C 108.400 37.820,108.040 38.000,107.600 38.000 C 107.160 38.000,106.800 38.180,106.800 38.400 C 106.800 38.620,106.440 38.800,106.000 38.800 C 105.560 38.800,105.200 38.980,105.200 39.200 C 105.200 39.420,104.964 39.600,104.675 39.600 C 104.387 39.600,103.764 39.960,103.292 40.400 C 102.820 40.840,102.156 41.200,101.817 41.200 C 101.478 41.200,101.200 41.353,101.200 41.539 C 101.200 41.726,100.480 42.203,99.600 42.600 C 98.720 42.997,98.000 43.474,98.000 43.661 C 98.000 43.847,97.764 44.000,97.475 44.000 C 97.187 44.000,96.602 44.315,96.175 44.700 C 95.749 45.085,94.905 45.655,94.300 45.968 C 93.695 46.280,93.200 46.685,93.200 46.868 C 93.200 47.050,92.970 47.200,92.688 47.200 C 92.407 47.200,91.917 47.560,91.600 48.000 C 91.283 48.440,90.820 48.800,90.571 48.800 C 90.322 48.800,89.554 49.340,88.863 50.000 C 88.172 50.660,87.447 51.200,87.252 51.200 C 87.056 51.200,86.155 51.920,85.248 52.800 C 84.341 53.680,83.405 54.400,83.168 54.400 C 82.931 54.400,82.076 55.081,81.269 55.913 C 80.461 56.745,79.170 57.855,78.400 58.380 C 77.630 58.905,75.740 60.611,74.200 62.170 C 72.660 63.729,70.577 65.624,69.572 66.382 C 67.831 67.694,66.800 69.144,66.800 70.280 C 66.800 70.566,66.620 70.800,66.400 70.800 C 65.878 70.800,65.878 73.878,66.400 74.200 C 66.620 74.336,66.800 74.713,66.800 75.037 C 66.800 76.793,69.469 78.400,72.387 78.400 C 73.996 78.400,75.200 78.229,75.200 78.000 C 75.200 77.780,75.475 77.600,75.811 77.600 C 76.432 77.600,77.172 76.969,81.798 72.500 C 83.221 71.125,84.553 70.000,84.758 70.000 C 84.963 70.000,86.227 68.920,87.568 67.600 C 88.908 66.280,90.112 65.200,90.242 65.200 C 90.372 65.200,90.983 64.660,91.600 64.000 C 92.217 63.340,92.897 62.800,93.112 62.800 C 93.327 62.800,94.245 62.080,95.152 61.200 C 96.059 60.320,96.988 59.600,97.217 59.600 C 97.446 59.600,97.851 59.419,98.117 59.198 C 98.383 58.977,99.860 57.955,101.400 56.928 C 102.940 55.900,104.260 54.911,104.333 54.730 C 104.407 54.548,104.644 54.400,104.861 54.400 C 105.078 54.400,106.041 53.860,107.000 53.200 C 107.959 52.540,108.897 52.000,109.084 52.000 C 109.271 52.000,109.683 51.640,110.000 51.200 C 110.317 50.760,110.897 50.400,111.288 50.400 C 111.680 50.400,112.000 50.220,112.000 50.000 C 112.000 49.780,112.360 49.600,112.800 49.600 C 113.240 49.600,113.600 49.420,113.600 49.200 C 113.600 48.980,113.836 48.800,114.125 48.800 C 114.413 48.800,115.036 48.440,115.508 48.000 C 115.980 47.560,116.644 47.200,116.983 47.200 C 117.322 47.200,117.600 47.020,117.600 46.800 C 117.600 46.580,117.960 46.400,118.400 46.400 C 118.840 46.400,119.200 46.220,119.200 46.000 C 119.200 45.780,119.560 45.600,120.000 45.600 C 120.440 45.600,120.800 45.420,120.800 45.200 C 120.800 44.980,121.160 44.800,121.600 44.800 C 122.040 44.800,122.400 44.654,122.400 44.475 C 122.400 44.296,123.030 43.902,123.800 43.600 C 124.570 43.298,125.200 42.904,125.200 42.725 C 125.200 42.546,125.560 42.400,126.000 42.400 C 126.440 42.400,126.800 42.240,126.800 42.045 C 126.800 41.849,127.472 41.563,128.293 41.409 C 129.114 41.255,130.498 40.785,131.368 40.364 C 132.238 39.944,133.186 39.600,133.475 39.600 C 133.764 39.600,134.000 39.420,134.000 39.200 C 134.000 38.980,134.439 38.800,134.976 38.800 C 135.513 38.800,136.064 38.620,136.200 38.400 C 136.336 38.180,136.797 38.000,137.224 38.000 C 137.651 38.000,138.000 37.820,138.000 37.600 C 138.000 37.380,138.362 37.200,138.805 37.200 C 139.583 37.200,139.969 37.058,141.895 36.062 C 142.387 35.808,143.141 35.600,143.571 35.600 C 144.001 35.600,144.464 35.420,144.600 35.200 C 144.736 34.980,145.377 34.800,146.024 34.800 C 146.671 34.800,147.200 34.620,147.200 34.400 C 147.200 34.180,147.740 34.000,148.400 34.000 C 149.060 34.000,149.600 33.820,149.600 33.600 C 149.600 33.380,150.140 33.200,150.800 33.200 C 151.460 33.200,152.000 33.020,152.000 32.800 C 152.000 32.580,152.619 32.400,153.376 32.400 C 154.133 32.400,154.864 32.220,155.000 32.000 C 155.136 31.780,155.867 31.600,156.624 31.600 C 157.381 31.600,158.000 31.420,158.000 31.200 C 158.000 30.980,158.720 30.800,159.600 30.800 C 160.480 30.800,161.200 30.620,161.200 30.400 C 161.200 30.180,161.909 30.000,162.776 30.000 C 163.643 30.000,164.464 29.820,164.600 29.600 C 164.736 29.380,165.647 29.200,166.624 29.200 C 167.601 29.200,168.400 29.020,168.400 28.800 C 168.400 28.578,169.467 28.400,170.800 28.400 C 172.133 28.400,173.200 28.222,173.200 28.000 C 173.200 27.774,174.333 27.600,175.800 27.600 C 177.267 27.600,178.400 27.426,178.400 27.200 C 178.400 26.960,180.000 26.800,182.400 26.800 C 184.800 26.800,186.400 26.640,186.400 26.400 C 186.400 26.141,191.200 26.000,200.000 26.000 C 208.800 26.000,213.600 26.141,213.600 26.400 C 213.600 26.640,215.200 26.800,217.600 26.800 C 220.000 26.800,221.600 26.960,221.600 27.200 C 221.600 27.425,222.725 27.600,224.176 27.600 C 225.593 27.600,226.864 27.780,227.000 28.000 C 227.136 28.220,228.227 28.400,229.424 28.400 C 230.621 28.400,231.600 28.580,231.600 28.800 C 231.600 29.020,232.500 29.200,233.600 29.200 C 234.700 29.200,235.600 29.380,235.600 29.600 C 235.600 29.820,236.320 30.000,237.200 30.000 C 238.080 30.000,238.800 30.180,238.800 30.400 C 238.800 30.620,239.509 30.800,240.376 30.800 C 241.243 30.800,242.064 30.980,242.200 31.200 C 242.336 31.420,242.966 31.600,243.600 31.600 C 244.234 31.600,244.864 31.780,245.000 32.000 C 245.136 32.220,245.867 32.400,246.624 32.400 C 247.381 32.400,248.000 32.580,248.000 32.800 C 248.000 33.020,248.540 33.200,249.200 33.200 C 249.860 33.200,250.400 33.380,250.400 33.600 C 250.400 33.820,250.940 34.000,251.600 34.000 C 252.260 34.000,252.800 34.180,252.800 34.400 C 252.800 34.620,253.329 34.800,253.976 34.800 C 254.623 34.800,255.264 34.980,255.400 35.200 C 255.536 35.420,255.999 35.600,256.429 35.600 C 256.859 35.600,257.568 35.780,258.005 36.000 C 258.442 36.220,259.158 36.580,259.595 36.800 C 260.032 37.020,260.752 37.200,261.195 37.200 C 261.638 37.200,262.000 37.380,262.000 37.600 C 262.000 37.820,262.349 38.000,262.776 38.000 C 263.203 38.000,263.664 38.180,263.800 38.400 C 263.936 38.620,264.487 38.800,265.024 38.800 C 265.561 38.800,266.000 38.980,266.000 39.200 C 266.000 39.420,266.236 39.600,266.525 39.600 C 266.814 39.600,267.762 39.944,268.632 40.364 C 269.502 40.785,270.886 41.255,271.707 41.409 C 272.528 41.563,273.200 41.849,273.200 42.045 C 273.200 42.240,273.560 42.400,274.000 42.400 C 274.440 42.400,274.800 42.546,274.800 42.725 C 274.800 42.904,275.430 43.298,276.200 43.600 C 276.970 43.902,277.600 44.296,277.600 44.475 C 277.600 44.654,277.960 44.800,278.400 44.800 C 278.840 44.800,279.200 44.980,279.200 45.200 C 279.200 45.420,279.560 45.600,280.000 45.600 C 280.440 45.600,280.800 45.780,280.800 46.000 C 280.800 46.220,281.160 46.400,281.600 46.400 C 282.040 46.400,282.400 46.580,282.400 46.800 C 282.400 47.020,282.678 47.200,283.017 47.200 C 283.356 47.200,284.020 47.560,284.492 48.000 C 284.964 48.440,285.587 48.800,285.875 48.800 C 286.164 48.800,286.400 48.980,286.400 49.200 C 286.400 49.420,286.760 49.600,287.200 49.600 C 287.640 49.600,288.000 49.780,288.000 50.000 C 288.000 50.220,288.320 50.400,288.712 50.400 C 289.103 50.400,289.683 50.760,290.000 51.200 C 290.317 51.640,290.814 52.000,291.105 52.000 C 291.396 52.000,291.989 52.331,292.423 52.736 C 292.858 53.141,293.705 53.726,294.307 54.036 C 294.908 54.346,295.749 54.915,296.175 55.300 C 296.602 55.685,297.105 56.000,297.293 56.000 C 297.481 56.000,298.113 56.443,298.696 56.984 C 299.280 57.525,300.262 58.177,300.879 58.433 C 301.495 58.688,302.000 59.055,302.000 59.249 C 302.000 59.442,302.270 59.600,302.600 59.600 C 302.929 59.600,303.941 60.320,304.848 61.200 C 305.755 62.080,306.673 62.800,306.888 62.800 C 307.103 62.800,307.783 63.340,308.400 64.000 C 309.017 64.660,309.628 65.200,309.758 65.200 C 309.888 65.200,311.092 66.280,312.432 67.600 C 313.773 68.920,315.037 70.000,315.242 70.000 C 315.447 70.000,316.779 71.125,318.202 72.500 C 322.828 76.969,323.568 77.600,324.189 77.600 C 324.525 77.600,324.800 77.780,324.800 78.000 C 324.800 78.229,326.004 78.400,327.613 78.400 C 330.531 78.400,333.200 76.793,333.200 75.037 C 333.200 74.713,333.380 74.336,333.600 74.200 C 333.820 74.064,334.000 73.243,334.000 72.376 C 334.000 71.509,333.820 70.800,333.600 70.800 C 333.380 70.800,333.200 70.440,333.200 70.000 C 333.200 69.560,333.020 69.200,332.800 69.200 C 332.580 69.200,332.400 68.917,332.400 68.571 C 332.400 67.851,332.083 67.515,329.600 65.602 C 328.610 64.840,326.720 63.111,325.400 61.761 C 324.080 60.411,322.370 58.883,321.600 58.366 C 320.830 57.849,319.539 56.745,318.731 55.913 C 317.924 55.081,317.054 54.400,316.800 54.400 C 316.546 54.400,315.646 53.680,314.800 52.800 C 313.954 51.920,313.067 51.200,312.828 51.200 C 312.588 51.200,311.828 50.660,311.137 50.000 C 310.446 49.340,309.678 48.800,309.429 48.800 C 309.180 48.800,308.717 48.440,308.400 48.000 C 308.083 47.560,307.593 47.200,307.312 47.200 C 307.030 47.200,306.800 47.050,306.800 46.868 C 306.800 46.685,306.305 46.280,305.700 45.968 C 305.095 45.655,304.251 45.085,303.825 44.700 C 303.398 44.315,302.813 44.000,302.525 44.000 C 302.236 44.000,302.000 43.847,302.000 43.661 C 302.000 43.474,301.280 42.997,300.400 42.600 C 299.520 42.203,298.800 41.726,298.800 41.539 C 298.800 41.353,298.522 41.200,298.183 41.200 C 297.844 41.200,297.180 40.840,296.708 40.400 C 296.236 39.960,295.613 39.600,295.325 39.600 C 295.036 39.600,294.800 39.420,294.800 39.200 C 294.800 38.980,294.440 38.800,294.000 38.800 C 293.560 38.800,293.200 38.620,293.200 38.400 C 293.200 38.180,292.840 38.000,292.400 38.000 C 291.960 38.000,291.600 37.820,291.600 37.600 C 291.600 37.380,291.330 37.200,291.000 37.200 C 290.670 37.200,290.400 37.020,290.400 36.800 C 290.400 36.580,290.130 36.400,289.800 36.400 C 289.470 36.400,289.200 36.220,289.200 36.000 C 289.200 35.780,288.930 35.600,288.600 35.600 C 288.270 35.600,288.000 35.420,288.000 35.200 C 288.000 34.980,287.640 34.800,287.200 34.800 C 286.760 34.800,286.400 34.620,286.400 34.400 C 286.400 34.180,286.040 34.000,285.600 34.000 C 285.160 34.000,284.800 33.820,284.800 33.600 C 284.800 33.380,284.440 33.200,284.000 33.200 C 283.560 33.200,283.200 33.020,283.200 32.800 C 283.200 32.580,282.840 32.400,282.400 32.400 C 281.960 32.400,281.600 32.220,281.600 32.000 C 281.600 31.780,281.240 31.600,280.800 31.600 C 280.360 31.600,280.000 31.420,280.000 31.200 C 280.000 30.980,279.651 30.800,279.224 30.800 C 278.797 30.800,278.336 30.620,278.200 30.400 C 278.064 30.180,277.528 30.000,277.010 30.000 C 276.491 30.000,276.007 29.865,275.933 29.700 C 275.716 29.212,272.387 27.600,271.596 27.600 C 271.195 27.600,270.807 27.465,270.733 27.300 C 270.556 26.901,265.743 25.170,264.100 24.915 C 263.385 24.803,262.800 24.552,262.800 24.356 C 262.800 24.160,262.260 24.000,261.600 24.000 C 260.940 24.000,260.400 23.820,260.400 23.600 C 260.400 23.380,259.961 23.200,259.424 23.200 C 258.887 23.200,258.336 23.020,258.200 22.800 C 258.064 22.580,257.513 22.400,256.976 22.400 C 256.439 22.400,256.000 22.220,256.000 22.000 C 256.000 21.780,255.471 21.600,254.824 21.600 C 254.177 21.600,253.536 21.420,253.400 21.200 C 253.264 20.980,252.533 20.800,251.776 20.800 C 251.019 20.800,250.400 20.620,250.400 20.400 C 250.400 20.180,249.781 20.000,249.024 20.000 C 248.267 20.000,247.536 19.820,247.400 19.600 C 247.264 19.380,246.634 19.200,246.000 19.200 C 245.366 19.200,244.736 19.020,244.600 18.800 C 244.464 18.580,243.553 18.400,242.576 18.400 C 241.599 18.400,240.800 18.220,240.800 18.000 C 240.800 17.780,240.091 17.600,239.224 17.600 C 238.357 17.600,237.536 17.420,237.400 17.200 C 237.264 16.980,236.263 16.800,235.176 16.800 C 234.089 16.800,233.200 16.620,233.200 16.400 C 233.200 16.178,232.133 16.000,230.800 16.000 C 229.467 16.000,228.400 15.822,228.400 15.600 C 228.400 15.372,227.208 15.200,225.624 15.200 C 224.097 15.200,222.736 15.020,222.600 14.800 C 222.462 14.577,220.596 14.400,218.376 14.400 C 215.992 14.400,214.400 14.240,214.400 14.000 C 214.400 13.741,209.333 13.600,200.000 13.600 C 190.667 13.600,185.600 13.741,185.600 14.000 M191.200 50.000 C 191.200 50.242,189.475 50.400,186.824 50.400 C 184.337 50.400,182.340 50.573,182.200 50.800 C 182.064 51.020,180.703 51.200,179.176 51.200 C 177.592 51.200,176.400 51.372,176.400 51.600 C 176.400 51.822,175.333 52.000,174.000 52.000 C 172.667 52.000,171.600 52.178,171.600 52.400 C 171.600 52.620,170.801 52.800,169.824 52.800 C 168.847 52.800,167.936 52.980,167.800 53.200 C 167.664 53.420,166.843 53.600,165.976 53.600 C 165.109 53.600,164.400 53.780,164.400 54.000 C 164.400 54.220,163.680 54.400,162.800 54.400 C 161.920 54.400,161.200 54.580,161.200 54.800 C 161.200 55.020,160.570 55.200,159.800 55.200 C 159.030 55.200,158.400 55.380,158.400 55.600 C 158.400 55.820,157.860 56.000,157.200 56.000 C 156.540 56.000,156.000 56.180,156.000 56.400 C 156.000 56.620,155.460 56.800,154.800 56.800 C 154.140 56.800,153.600 56.980,153.600 57.200 C 153.600 57.420,153.060 57.600,152.400 57.600 C 151.740 57.600,151.200 57.756,151.200 57.946 C 151.200 58.136,150.388 58.403,149.395 58.539 C 148.402 58.675,146.839 59.149,145.920 59.593 C 145.001 60.037,143.924 60.400,143.525 60.400 C 143.126 60.400,142.800 60.580,142.800 60.800 C 142.800 61.020,142.440 61.200,142.000 61.200 C 141.560 61.200,141.200 61.347,141.200 61.528 C 141.200 61.708,140.300 62.100,139.200 62.400 C 138.100 62.700,137.200 63.092,137.200 63.272 C 137.200 63.453,136.840 63.600,136.400 63.600 C 135.960 63.600,135.600 63.780,135.600 64.000 C 135.600 64.220,135.240 64.400,134.800 64.400 C 134.360 64.400,134.000 64.580,134.000 64.800 C 134.000 65.020,133.640 65.200,133.200 65.200 C 132.760 65.200,132.400 65.380,132.400 65.600 C 132.400 65.820,132.040 66.000,131.600 66.000 C 131.160 66.000,130.800 66.180,130.800 66.400 C 130.800 66.620,130.440 66.800,130.000 66.800 C 129.560 66.800,129.200 66.936,129.200 67.102 C 129.200 67.269,128.615 67.664,127.900 67.980 C 127.185 68.297,126.251 68.880,125.825 69.278 C 125.398 69.675,124.813 70.000,124.525 70.000 C 124.236 70.000,124.000 70.180,124.000 70.400 C 124.000 70.620,123.680 70.800,123.288 70.800 C 122.897 70.800,122.317 71.160,122.000 71.600 C 121.683 72.040,121.103 72.400,120.712 72.400 C 120.320 72.400,120.000 72.580,120.000 72.800 C 120.000 73.020,119.680 73.200,119.288 73.200 C 118.897 73.200,118.317 73.560,118.000 74.000 C 117.683 74.440,117.103 74.800,116.712 74.800 C 116.320 74.800,115.996 74.935,115.992 75.100 C 115.988 75.265,115.088 75.932,113.992 76.583 C 112.896 77.233,112.000 77.908,112.000 78.083 C 112.000 78.257,111.810 78.400,111.578 78.400 C 111.346 78.400,110.581 78.939,109.878 79.598 C 109.175 80.257,108.451 80.797,108.269 80.798 C 108.086 80.799,107.246 81.520,106.400 82.400 C 105.554 83.280,104.665 84.000,104.424 84.000 C 104.183 84.000,102.845 85.125,101.451 86.500 C 100.058 87.875,98.142 89.626,97.194 90.390 C 91.373 95.089,90.267 99.573,94.042 103.180 C 95.354 104.433,101.200 105.103,101.200 104.000 C 101.200 103.780,101.458 103.600,101.773 103.600 C 102.352 103.600,108.102 98.069,109.188 96.467 C 109.512 95.990,110.006 95.600,110.286 95.600 C 110.567 95.600,111.715 94.700,112.839 93.600 C 113.962 92.500,115.090 91.600,115.345 91.600 C 115.600 91.600,116.293 91.150,116.887 90.600 C 117.480 90.050,118.126 89.600,118.323 89.600 C 118.520 89.600,119.206 89.105,119.848 88.500 C 120.489 87.895,121.506 87.145,122.107 86.832 C 122.708 86.520,123.200 86.115,123.200 85.932 C 123.200 85.750,123.430 85.600,123.712 85.600 C 123.993 85.600,124.483 85.240,124.800 84.800 C 125.117 84.360,125.697 84.000,126.088 84.000 C 126.480 84.000,126.800 83.820,126.800 83.600 C 126.800 83.380,127.036 83.200,127.325 83.200 C 127.613 83.200,128.236 82.840,128.708 82.400 C 129.180 81.960,129.844 81.600,130.183 81.600 C 130.522 81.600,130.800 81.420,130.800 81.200 C 130.800 80.980,131.036 80.800,131.325 80.800 C 131.613 80.800,132.236 80.440,132.708 80.000 C 133.180 79.560,133.844 79.200,134.183 79.200 C 134.522 79.200,134.800 79.020,134.800 78.800 C 134.800 78.580,135.160 78.400,135.600 78.400 C 136.040 78.400,136.400 78.220,136.400 78.000 C 136.400 77.780,136.760 77.600,137.200 77.600 C 137.640 77.600,138.000 77.420,138.000 77.200 C 138.000 76.980,138.360 76.800,138.800 76.800 C 139.240 76.800,139.600 76.662,139.600 76.494 C 139.600 76.123,142.569 74.800,143.403 74.800 C 143.731 74.800,144.000 74.620,144.000 74.400 C 144.000 74.180,144.279 74.000,144.619 74.000 C 144.960 74.000,145.984 73.640,146.894 73.200 C 147.805 72.760,148.786 72.400,149.075 72.400 C 149.364 72.400,149.600 72.220,149.600 72.000 C 149.600 71.780,150.140 71.600,150.800 71.600 C 151.460 71.600,152.000 71.420,152.000 71.200 C 152.000 70.980,152.362 70.800,152.805 70.800 C 153.248 70.800,153.968 70.620,154.405 70.400 C 154.842 70.180,155.558 69.820,155.995 69.600 C 156.432 69.380,157.141 69.200,157.571 69.200 C 158.001 69.200,158.464 69.020,158.600 68.800 C 158.736 68.580,159.377 68.400,160.024 68.400 C 160.671 68.400,161.200 68.220,161.200 68.000 C 161.200 67.780,161.740 67.600,162.400 67.600 C 163.060 67.600,163.600 67.420,163.600 67.200 C 163.600 66.980,164.320 66.800,165.200 66.800 C 166.080 66.800,166.800 66.620,166.800 66.400 C 166.800 66.180,167.520 66.000,168.400 66.000 C 169.280 66.000,170.000 65.820,170.000 65.600 C 170.000 65.380,170.810 65.200,171.800 65.200 C 172.790 65.200,173.600 65.020,173.600 64.800 C 173.600 64.580,174.579 64.400,175.776 64.400 C 176.973 64.400,178.064 64.220,178.200 64.000 C 178.336 63.780,179.596 63.600,181.000 63.600 C 182.404 63.600,183.664 63.420,183.800 63.200 C 183.937 62.979,185.737 62.800,187.824 62.800 C 190.075 62.800,191.600 62.638,191.600 62.400 C 191.600 62.147,194.533 62.000,199.600 62.000 C 204.667 62.000,207.600 62.147,207.600 62.400 C 207.600 62.641,209.267 62.800,211.800 62.800 C 214.333 62.800,216.000 62.959,216.000 63.200 C 216.000 63.429,217.200 63.600,218.800 63.600 C 220.400 63.600,221.600 63.771,221.600 64.000 C 221.600 64.220,222.489 64.400,223.576 64.400 C 224.663 64.400,225.664 64.580,225.800 64.800 C 225.936 65.020,226.746 65.200,227.600 65.200 C 228.454 65.200,229.264 65.380,229.400 65.600 C 229.536 65.820,230.346 66.000,231.200 66.000 C 232.054 66.000,232.864 66.180,233.000 66.400 C 233.136 66.620,233.777 66.800,234.424 66.800 C 235.071 66.800,235.600 66.980,235.600 67.200 C 235.600 67.420,236.320 67.600,237.200 67.600 C 238.080 67.600,238.800 67.780,238.800 68.000 C 238.800 68.220,239.340 68.400,240.000 68.400 C 240.660 68.400,241.200 68.580,241.200 68.800 C 241.200 69.020,241.740 69.200,242.400 69.200 C 243.060 69.200,243.600 69.380,243.600 69.600 C 243.600 69.820,244.410 70.000,245.400 70.000 C 246.390 70.000,247.200 69.820,247.200 69.600 C 247.200 69.380,247.546 69.200,247.969 69.200 C 248.965 69.200,251.200 66.965,251.200 65.969 C 251.200 65.546,251.380 65.200,251.600 65.200 C 251.820 65.200,252.000 64.491,252.000 63.624 C 252.000 62.757,251.820 61.936,251.600 61.800 C 251.380 61.664,251.200 61.232,251.200 60.841 C 251.200 59.814,248.611 57.600,247.411 57.600 C 246.855 57.600,246.400 57.420,246.400 57.200 C 246.400 56.980,245.860 56.800,245.200 56.800 C 244.540 56.800,244.000 56.620,244.000 56.400 C 244.000 56.180,243.381 56.000,242.624 56.000 C 241.867 56.000,241.136 55.820,241.000 55.600 C 240.864 55.380,240.223 55.200,239.576 55.200 C 238.929 55.200,238.400 55.020,238.400 54.800 C 238.400 54.580,237.781 54.400,237.024 54.400 C 236.267 54.400,235.536 54.220,235.400 54.000 C 235.264 53.780,234.353 53.600,233.376 53.600 C 232.399 53.600,231.600 53.420,231.600 53.200 C 231.600 52.980,230.700 52.800,229.600 52.800 C 228.500 52.800,227.600 52.620,227.600 52.400 C 227.600 52.180,226.711 52.000,225.624 52.000 C 224.537 52.000,223.536 51.820,223.400 51.600 C 223.264 51.380,221.903 51.200,220.376 51.200 C 218.792 51.200,217.600 51.028,217.600 50.800 C 217.600 50.556,215.733 50.400,212.800 50.400 C 209.867 50.400,208.000 50.244,208.000 50.000 C 208.000 49.746,204.933 49.600,199.600 49.600 C 194.267 49.600,191.200 49.746,191.200 50.000 M268.400 69.600 C 268.400 69.820,268.055 70.000,267.634 70.000 C 267.167 70.000,266.659 70.469,266.336 71.200 C 266.044 71.860,265.669 72.400,265.502 72.400 C 265.336 72.400,265.200 73.570,265.200 75.000 C 265.200 76.467,265.374 77.600,265.600 77.600 C 265.820 77.600,266.000 77.878,266.000 78.218 C 266.000 79.018,267.782 80.800,268.582 80.800 C 268.922 80.800,269.200 80.980,269.200 81.200 C 269.200 81.420,269.520 81.600,269.912 81.600 C 270.303 81.600,270.883 81.960,271.200 82.400 C 271.517 82.840,272.097 83.200,272.488 83.200 C 272.880 83.200,273.200 83.380,273.200 83.600 C 273.200 83.820,273.436 84.000,273.725 84.000 C 274.013 84.000,274.636 84.360,275.108 84.800 C 275.580 85.240,276.154 85.600,276.383 85.600 C 276.612 85.600,276.800 85.741,276.800 85.914 C 276.800 86.086,277.295 86.521,277.900 86.879 C 278.505 87.237,279.540 87.996,280.200 88.565 C 280.860 89.134,281.543 89.599,281.717 89.600 C 281.892 89.600,282.502 90.033,283.072 90.562 C 283.642 91.090,284.574 91.765,285.142 92.062 C 285.710 92.358,287.054 93.455,288.128 94.500 C 289.202 95.545,290.293 96.400,290.552 96.400 C 290.811 96.400,291.288 96.790,291.612 97.267 C 292.683 98.847,297.651 103.600,298.231 103.600 C 298.544 103.600,298.800 103.780,298.800 104.000 C 298.800 104.229,300.000 104.400,301.600 104.400 C 303.200 104.400,304.400 104.229,304.400 104.000 C 304.400 103.780,304.639 103.600,304.930 103.600 C 305.831 103.600,307.163 101.849,307.752 99.892 C 308.581 97.138,307.510 94.499,304.490 91.852 C 303.704 91.163,302.836 90.375,302.559 90.100 C 302.283 89.825,301.956 89.600,301.831 89.600 C 301.707 89.600,300.331 88.340,298.772 86.800 C 297.214 85.260,295.755 84.000,295.530 84.000 C 295.305 84.000,294.644 83.505,294.060 82.900 C 293.477 82.295,291.921 80.990,290.602 80.000 C 289.282 79.010,287.853 77.885,287.426 77.500 C 286.999 77.115,286.413 76.800,286.125 76.800 C 285.836 76.800,285.600 76.649,285.600 76.464 C 285.600 76.280,284.882 75.785,284.005 75.364 C 283.127 74.944,282.407 74.465,282.405 74.300 C 282.402 74.135,282.164 74.000,281.875 74.000 C 281.587 74.000,280.964 73.640,280.492 73.200 C 280.020 72.760,279.396 72.400,279.105 72.400 C 278.814 72.400,278.317 72.040,278.000 71.600 C 277.683 71.160,277.103 70.800,276.712 70.800 C 276.320 70.800,275.999 70.665,275.997 70.500 C 275.995 70.335,275.509 69.975,274.917 69.700 C 273.632 69.103,268.400 69.023,268.400 69.600 M189.800 86.800 C 189.664 87.020,188.044 87.200,186.200 87.200 C 184.356 87.200,182.736 87.380,182.600 87.600 C 182.464 87.820,181.463 88.000,180.376 88.000 C 179.289 88.000,178.400 88.180,178.400 88.400 C 178.400 88.620,177.590 88.800,176.600 88.800 C 175.610 88.800,174.800 88.980,174.800 89.200 C 174.800 89.420,174.001 89.600,173.024 89.600 C 172.047 89.600,171.136 89.780,171.000 90.000 C 170.864 90.220,170.223 90.400,169.576 90.400 C 168.929 90.400,168.400 90.580,168.400 90.800 C 168.400 91.020,167.781 91.200,167.024 91.200 C 166.267 91.200,165.536 91.380,165.400 91.600 C 165.264 91.820,164.824 92.000,164.422 92.000 C 163.543 92.000,159.482 93.256,159.200 93.615 C 159.090 93.755,158.145 94.118,157.100 94.422 C 156.055 94.726,155.200 95.115,155.200 95.287 C 155.200 95.459,154.840 95.600,154.400 95.600 C 153.960 95.600,153.600 95.780,153.600 96.000 C 153.600 96.220,153.328 96.400,152.995 96.400 C 152.662 96.400,152.077 96.564,151.695 96.765 C 151.313 96.966,150.010 97.597,148.800 98.167 C 146.598 99.205,144.376 100.424,144.000 100.801 C 143.890 100.911,143.260 101.270,142.600 101.598 C 141.940 101.926,141.109 102.511,140.753 102.897 C 140.397 103.284,139.812 103.600,139.453 103.600 C 139.094 103.600,138.800 103.750,138.800 103.932 C 138.800 104.115,138.305 104.520,137.700 104.832 C 137.095 105.145,136.251 105.715,135.825 106.100 C 135.398 106.485,134.853 106.800,134.613 106.800 C 134.373 106.800,133.917 107.160,133.600 107.600 C 133.283 108.040,132.786 108.400,132.495 108.400 C 131.951 108.400,131.464 108.743,129.799 110.300 C 129.270 110.795,128.686 111.200,128.503 111.200 C 128.320 111.200,127.283 112.100,126.200 113.200 C 125.117 114.300,124.085 115.200,123.908 115.200 C 123.059 115.200,118.400 120.439,118.400 121.393 C 118.400 121.947,118.220 122.400,118.000 122.400 C 117.780 122.400,117.600 123.210,117.600 124.200 C 117.600 125.190,117.780 126.000,118.000 126.000 C 118.220 126.000,118.400 126.276,118.400 126.613 C 118.400 128.391,121.053 130.000,123.987 130.000 C 125.596 130.000,126.800 129.829,126.800 129.600 C 126.800 129.380,127.074 129.200,127.409 129.200 C 127.743 129.200,129.001 128.255,130.204 127.100 C 134.155 123.306,135.173 122.400,135.489 122.398 C 135.660 122.397,136.345 121.902,137.011 121.298 C 138.778 119.697,141.510 117.600,141.830 117.600 C 141.982 117.600,142.397 117.284,142.753 116.897 C 143.109 116.511,143.895 115.940,144.500 115.630 C 145.105 115.319,145.600 114.915,145.600 114.732 C 145.600 114.550,145.920 114.400,146.312 114.400 C 146.703 114.400,147.283 114.040,147.600 113.600 C 147.917 113.160,148.497 112.800,148.888 112.800 C 149.280 112.800,149.600 112.620,149.600 112.400 C 149.600 112.180,149.960 112.000,150.400 112.000 C 150.840 112.000,151.200 111.820,151.200 111.600 C 151.200 111.380,151.470 111.200,151.800 111.200 C 152.130 111.200,152.400 111.020,152.400 110.800 C 152.400 110.580,152.670 110.400,153.000 110.400 C 153.330 110.400,153.600 110.220,153.600 110.000 C 153.600 109.780,153.960 109.600,154.400 109.600 C 154.840 109.600,155.200 109.442,155.200 109.250 C 155.200 109.058,155.739 108.792,156.398 108.660 C 157.056 108.529,158.350 108.056,159.273 107.610 C 160.195 107.165,161.186 106.800,161.475 106.800 C 161.764 106.800,162.000 106.620,162.000 106.400 C 162.000 106.180,162.439 106.000,162.976 106.000 C 163.513 106.000,164.064 105.820,164.200 105.600 C 164.336 105.380,164.797 105.200,165.224 105.200 C 165.651 105.200,166.000 105.020,166.000 104.800 C 166.000 104.580,166.540 104.400,167.200 104.400 C 167.860 104.400,168.400 104.220,168.400 104.000 C 168.400 103.780,168.929 103.600,169.576 103.600 C 170.223 103.600,170.864 103.420,171.000 103.200 C 171.136 102.980,171.766 102.800,172.400 102.800 C 173.034 102.800,173.664 102.620,173.800 102.400 C 173.936 102.180,174.667 102.000,175.424 102.000 C 176.181 102.000,176.800 101.820,176.800 101.600 C 176.800 101.380,177.509 101.200,178.376 101.200 C 179.243 101.200,180.064 101.020,180.200 100.800 C 180.336 100.580,181.427 100.400,182.624 100.400 C 183.821 100.400,184.800 100.220,184.800 100.000 C 184.800 99.769,186.067 99.600,187.800 99.600 C 189.533 99.600,190.800 99.431,190.800 99.200 C 190.800 98.945,194.133 98.800,200.000 98.800 C 205.867 98.800,209.200 98.945,209.200 99.200 C 209.200 99.431,210.467 99.600,212.200 99.600 C 213.933 99.600,215.200 99.769,215.200 100.000 C 215.200 100.220,216.089 100.400,217.176 100.400 C 218.263 100.400,219.264 100.580,219.400 100.800 C 219.536 101.020,220.447 101.200,221.424 101.200 C 222.401 101.200,223.200 101.380,223.200 101.600 C 223.200 101.820,223.819 102.000,224.576 102.000 C 225.333 102.000,226.064 102.180,226.200 102.400 C 226.336 102.620,226.966 102.800,227.600 102.800 C 228.234 102.800,228.864 102.980,229.000 103.200 C 229.136 103.420,229.777 103.600,230.424 103.600 C 231.071 103.600,231.600 103.780,231.600 104.000 C 231.600 104.220,231.962 104.400,232.405 104.400 C 232.848 104.400,233.568 104.580,234.005 104.800 C 234.442 105.020,235.158 105.380,235.595 105.600 C 236.032 105.820,236.752 106.000,237.195 106.000 C 237.638 106.000,238.000 106.136,238.000 106.302 C 238.000 106.468,238.585 106.811,239.300 107.063 C 243.039 108.381,244.613 109.029,244.733 109.300 C 244.807 109.465,245.212 109.600,245.633 109.600 C 246.055 109.600,246.400 109.780,246.400 110.000 C 246.400 110.220,246.670 110.400,247.000 110.400 C 247.330 110.400,247.600 110.580,247.600 110.800 C 247.600 111.020,247.870 111.200,248.200 111.200 C 248.530 111.200,248.800 111.380,248.800 111.600 C 248.800 111.820,249.160 112.000,249.600 112.000 C 250.040 112.000,250.400 112.180,250.400 112.400 C 250.400 112.620,250.720 112.800,251.112 112.800 C 251.503 112.800,252.083 113.160,252.400 113.600 C 252.717 114.040,253.297 114.400,253.688 114.400 C 254.080 114.400,254.400 114.580,254.400 114.800 C 254.400 115.020,254.625 115.200,254.900 115.200 C 255.175 115.201,255.940 115.666,256.600 116.235 C 257.260 116.804,258.295 117.563,258.900 117.921 C 259.505 118.279,260.000 118.714,260.000 118.886 C 260.000 119.059,260.188 119.200,260.418 119.200 C 260.648 119.200,261.290 119.654,261.844 120.208 C 262.398 120.762,263.335 121.527,263.926 121.908 C 265.057 122.637,266.212 123.658,269.796 127.100 C 270.999 128.255,272.257 129.200,272.591 129.200 C 272.926 129.200,273.200 129.380,273.200 129.600 C 273.200 129.829,274.404 130.000,276.013 130.000 C 278.947 130.000,281.600 128.391,281.600 126.613 C 281.600 126.276,281.780 126.000,282.000 126.000 C 282.220 126.000,282.400 125.190,282.400 124.200 C 282.400 123.210,282.220 122.400,282.000 122.400 C 281.780 122.400,281.591 121.905,281.580 121.300 C 281.564 120.476,280.938 119.631,279.080 117.928 C 274.373 113.616,271.380 110.997,270.247 110.200 C 269.623 109.760,268.874 109.175,268.584 108.900 C 268.294 108.625,267.814 108.400,267.517 108.400 C 267.220 108.400,266.717 108.040,266.400 107.600 C 266.083 107.160,265.638 106.800,265.412 106.799 C 265.185 106.799,264.370 106.259,263.600 105.600 C 262.830 104.941,261.975 104.401,261.700 104.401 C 261.425 104.400,261.200 104.220,261.200 104.000 C 261.200 103.780,260.906 103.600,260.547 103.600 C 260.188 103.600,259.603 103.271,259.247 102.870 C 258.891 102.468,258.015 101.884,257.300 101.572 C 256.585 101.260,256.000 100.869,256.000 100.702 C 256.000 100.536,255.640 100.400,255.200 100.400 C 254.760 100.400,254.400 100.246,254.400 100.058 C 254.400 99.604,247.996 96.392,247.100 96.397 C 246.715 96.399,246.400 96.220,246.400 96.000 C 246.400 95.780,246.040 95.600,245.600 95.600 C 245.160 95.600,244.800 95.420,244.800 95.200 C 244.800 94.980,244.528 94.800,244.195 94.800 C 243.862 94.800,243.277 94.641,242.895 94.447 C 241.456 93.715,240.133 93.211,238.000 92.583 C 236.790 92.227,235.387 91.770,234.881 91.568 C 234.376 91.366,233.431 91.200,232.781 91.200 C 232.132 91.200,231.600 91.020,231.600 90.800 C 231.600 90.580,230.981 90.400,230.224 90.400 C 229.467 90.400,228.736 90.220,228.600 90.000 C 228.464 89.780,227.643 89.600,226.776 89.600 C 225.909 89.600,225.200 89.420,225.200 89.200 C 225.200 88.980,224.491 88.800,223.624 88.800 C 222.757 88.800,221.936 88.620,221.800 88.400 C 221.664 88.180,220.674 88.000,219.600 88.000 C 218.526 88.000,217.536 87.820,217.400 87.600 C 217.264 87.380,215.644 87.200,213.800 87.200 C 211.956 87.200,210.336 87.020,210.200 86.800 C 210.046 86.551,206.204 86.400,200.000 86.400 C 193.796 86.400,189.954 86.551,189.800 86.800 M189.600 123.600 C 189.600 123.822,188.541 124.000,187.224 124.000 C 185.917 124.000,184.736 124.180,184.600 124.400 C 184.464 124.620,183.688 124.805,182.876 124.811 C 181.321 124.822,176.222 126.045,175.746 126.521 C 175.592 126.674,175.057 126.800,174.557 126.800 C 174.057 126.800,173.536 126.980,173.400 127.200 C 173.264 127.420,172.803 127.600,172.376 127.600 C 171.949 127.600,171.600 127.780,171.600 128.000 C 171.600 128.220,171.060 128.400,170.400 128.400 C 169.740 128.400,169.200 128.580,169.200 128.800 C 169.200 129.020,168.840 129.200,168.400 129.200 C 167.960 129.200,167.600 129.380,167.600 129.600 C 167.600 129.820,167.240 130.000,166.800 130.000 C 166.360 130.000,166.000 130.180,166.000 130.400 C 166.000 130.620,165.640 130.800,165.200 130.800 C 164.760 130.800,164.400 130.980,164.400 131.200 C 164.400 131.420,164.040 131.600,163.600 131.600 C 163.160 131.600,162.800 131.780,162.800 132.000 C 162.800 132.220,162.440 132.400,162.000 132.400 C 161.560 132.400,161.200 132.580,161.200 132.800 C 161.200 133.020,160.930 133.200,160.600 133.200 C 160.270 133.200,160.000 133.350,160.000 133.532 C 160.000 133.715,159.505 134.119,158.900 134.430 C 158.295 134.740,157.509 135.311,157.153 135.697 C 156.797 136.084,156.252 136.400,155.941 136.400 C 155.631 136.400,155.117 136.760,154.800 137.200 C 154.483 137.640,154.025 138.000,153.782 138.000 C 153.540 138.000,152.378 138.900,151.200 140.000 C 150.022 141.100,148.895 142.000,148.696 142.000 C 147.877 142.000,144.000 146.164,144.000 147.044 C 144.000 147.544,143.820 148.064,143.600 148.200 C 143.380 148.336,143.200 149.146,143.200 150.000 C 143.200 150.854,143.380 151.664,143.600 151.800 C 143.820 151.936,144.000 152.315,144.000 152.642 C 144.000 154.335,146.876 156.000,149.802 156.000 C 152.442 156.000,154.199 154.982,157.316 151.649 C 158.370 150.522,159.378 149.600,159.557 149.600 C 159.735 149.600,160.446 149.060,161.137 148.400 C 161.828 147.740,162.625 147.200,162.908 147.200 C 163.191 147.200,163.683 146.840,164.000 146.400 C 164.317 145.960,164.857 145.600,165.200 145.600 C 165.543 145.600,166.083 145.240,166.400 144.800 C 166.717 144.360,167.297 144.000,167.688 144.000 C 168.080 144.000,168.400 143.820,168.400 143.600 C 168.400 143.380,168.760 143.200,169.200 143.200 C 169.640 143.200,170.000 143.064,170.000 142.898 C 170.000 142.731,170.585 142.349,171.300 142.048 C 172.015 141.747,173.123 141.253,173.761 140.950 C 174.400 140.648,175.165 140.400,175.461 140.400 C 175.758 140.400,176.000 140.220,176.000 140.000 C 176.000 139.780,176.540 139.600,177.200 139.600 C 177.860 139.600,178.400 139.420,178.400 139.200 C 178.400 138.980,178.940 138.800,179.600 138.800 C 180.260 138.800,180.800 138.620,180.800 138.400 C 180.800 138.180,181.340 138.000,182.000 138.000 C 182.660 138.000,183.200 137.820,183.200 137.600 C 183.200 137.380,183.909 137.200,184.776 137.200 C 185.643 137.200,186.464 137.020,186.600 136.800 C 186.736 136.580,187.737 136.400,188.824 136.400 C 189.911 136.400,190.800 136.220,190.800 136.000 C 190.800 135.745,194.133 135.600,200.000 135.600 C 205.867 135.600,209.200 135.745,209.200 136.000 C 209.200 136.220,210.089 136.400,211.176 136.400 C 212.263 136.400,213.264 136.580,213.400 136.800 C 213.536 137.020,214.357 137.200,215.224 137.200 C 216.091 137.200,216.800 137.380,216.800 137.600 C 216.800 137.820,217.340 138.000,218.000 138.000 C 218.660 138.000,219.200 138.180,219.200 138.400 C 219.200 138.620,219.729 138.800,220.376 138.800 C 221.023 138.800,221.664 138.980,221.800 139.200 C 221.936 139.420,222.487 139.600,223.024 139.600 C 223.561 139.600,224.000 139.780,224.000 140.000 C 224.000 140.220,224.242 140.400,224.539 140.400 C 224.835 140.400,225.600 140.648,226.239 140.950 C 226.877 141.253,227.985 141.747,228.700 142.048 C 229.415 142.349,230.000 142.731,230.000 142.898 C 230.000 143.064,230.360 143.200,230.800 143.200 C 231.240 143.200,231.600 143.380,231.600 143.600 C 231.600 143.820,231.920 144.000,232.312 144.000 C 232.703 144.000,233.283 144.360,233.600 144.800 C 233.917 145.240,234.457 145.600,234.800 145.600 C 235.143 145.600,235.683 145.960,236.000 146.400 C 236.317 146.840,236.809 147.200,237.092 147.200 C 237.375 147.200,238.172 147.740,238.863 148.400 C 239.554 149.060,240.285 149.600,240.487 149.600 C 240.690 149.600,241.691 150.517,242.710 151.637 C 245.771 155.000,247.526 156.000,250.372 156.000 C 251.724 156.000,252.800 155.823,252.800 155.600 C 252.800 155.380,253.117 155.200,253.505 155.200 C 255.257 155.200,257.795 149.062,256.400 148.200 C 256.180 148.064,256.000 147.583,256.000 147.130 C 256.000 146.268,252.134 142.016,251.341 142.006 C 251.088 142.003,249.962 141.100,248.839 140.000 C 247.715 138.900,246.567 138.000,246.286 138.000 C 246.006 138.000,245.517 137.640,245.200 137.200 C 244.883 136.760,244.343 136.400,244.000 136.400 C 243.657 136.400,243.117 136.040,242.800 135.600 C 242.483 135.160,241.993 134.800,241.712 134.800 C 241.430 134.800,241.200 134.620,241.200 134.400 C 241.200 134.180,240.930 134.000,240.600 134.000 C 240.270 134.000,240.000 133.820,240.000 133.600 C 240.000 133.380,239.730 133.200,239.400 133.200 C 239.070 133.200,238.800 133.020,238.800 132.800 C 238.800 132.580,238.440 132.400,238.000 132.400 C 237.560 132.400,237.200 132.220,237.200 132.000 C 237.200 131.780,236.840 131.600,236.400 131.600 C 235.960 131.600,235.600 131.420,235.600 131.200 C 235.600 130.980,235.240 130.800,234.800 130.800 C 234.360 130.800,234.000 130.620,234.000 130.400 C 234.000 130.180,233.640 130.000,233.200 130.000 C 232.760 130.000,232.400 129.820,232.400 129.600 C 232.400 129.380,232.040 129.200,231.600 129.200 C 231.160 129.200,230.800 129.020,230.800 128.800 C 230.800 128.580,230.438 128.400,229.995 128.400 C 229.552 128.400,228.832 128.220,228.395 128.000 C 227.958 127.780,227.242 127.420,226.805 127.200 C 226.368 126.980,225.736 126.800,225.400 126.800 C 225.064 126.800,224.477 126.644,224.095 126.454 C 222.563 125.690,220.475 125.159,218.087 124.927 C 216.705 124.792,215.479 124.528,215.364 124.341 C 215.248 124.153,214.083 124.000,212.776 124.000 C 211.459 124.000,210.400 123.822,210.400 123.600 C 210.400 123.344,206.667 123.200,200.000 123.200 C 193.333 123.200,189.600 123.344,189.600 123.600 M195.400 159.183 C 194.960 159.381,193.756 159.556,192.724 159.572 C 191.692 159.587,190.736 159.780,190.600 160.000 C 190.464 160.220,189.982 160.400,189.529 160.400 C 188.497 160.400,183.447 162.093,183.267 162.499 C 183.193 162.665,182.788 162.800,182.367 162.800 C 181.945 162.800,181.600 162.980,181.600 163.200 C 181.600 163.420,181.240 163.600,180.800 163.600 C 180.360 163.600,180.000 163.780,180.000 164.000 C 180.000 164.220,179.764 164.400,179.475 164.400 C 179.187 164.400,178.564 164.760,178.092 165.200 C 177.620 165.640,177.080 166.000,176.892 166.000 C 176.704 166.000,176.032 166.540,175.400 167.200 C 174.768 167.860,174.101 168.400,173.919 168.400 C 173.478 168.400,167.600 174.290,167.600 174.732 C 167.600 174.921,167.240 175.402,166.800 175.800 C 166.360 176.198,166.000 176.684,166.000 176.879 C 166.000 177.074,165.640 177.620,165.200 178.092 C 164.760 178.564,164.400 179.187,164.400 179.475 C 164.400 179.764,164.220 180.000,164.000 180.000 C 163.780 180.000,163.600 180.360,163.600 180.800 C 163.600 181.240,163.420 181.600,163.200 181.600 C 162.980 181.600,162.800 181.960,162.800 182.400 C 162.800 182.840,162.620 183.200,162.400 183.200 C 162.180 183.200,162.000 183.740,162.000 184.400 C 162.000 185.060,161.820 185.600,161.600 185.600 C 161.380 185.600,161.200 186.140,161.200 186.800 C 161.200 187.460,161.040 188.000,160.844 188.000 C 160.509 188.000,160.284 188.920,159.743 192.500 L 159.516 194.000 152.958 194.000 C 149.351 194.000,146.400 194.159,146.400 194.353 C 146.400 194.548,146.085 194.790,145.700 194.893 C 145.315 194.995,144.595 195.843,144.100 196.777 L 143.200 198.476 143.200 231.838 C 143.200 253.813,143.337 265.200,143.600 265.200 C 143.820 265.200,144.000 265.476,144.000 265.813 C 144.000 268.035,147.410 269.617,149.886 268.545 C 155.104 266.285,154.567 269.924,154.800 235.218 L 155.000 205.400 200.000 205.400 L 245.000 205.400 245.000 290.200 L 245.000 375.000 200.000 375.000 L 155.000 375.000 154.800 354.526 L 154.600 334.052 153.430 332.831 C 152.786 332.159,151.668 331.499,150.944 331.363 C 150.221 331.227,149.420 330.865,149.165 330.558 C 148.129 329.309,144.000 331.547,144.000 333.358 C 144.000 333.685,143.820 334.064,143.600 334.200 C 143.341 334.360,143.200 342.871,143.200 358.424 C 143.200 374.141,143.338 382.400,143.600 382.400 C 143.820 382.400,144.000 382.691,144.000 383.046 C 144.000 383.401,144.665 384.301,145.478 385.046 L 146.956 386.400 200.000 386.400 L 253.044 386.400 254.522 385.046 C 255.335 384.301,256.000 383.401,256.000 383.046 C 256.000 382.691,256.180 382.400,256.400 382.400 C 256.666 382.400,256.800 351.479,256.800 290.438 L 256.800 198.476 255.900 196.777 C 255.405 195.843,254.685 194.995,254.300 194.893 C 253.915 194.790,253.600 194.548,253.600 194.353 C 253.600 194.159,250.649 194.000,247.042 194.000 L 240.484 194.000 240.257 192.500 C 239.716 188.920,239.491 188.000,239.156 188.000 C 238.960 188.000,238.800 187.460,238.800 186.800 C 238.800 186.140,238.620 185.600,238.400 185.600 C 238.180 185.600,238.000 185.060,238.000 184.400 C 238.000 183.740,237.820 183.200,237.600 183.200 C 237.380 183.200,237.200 182.840,237.200 182.400 C 237.200 181.960,237.020 181.600,236.800 181.600 C 236.580 181.600,236.400 181.240,236.400 180.800 C 236.400 180.360,236.220 180.000,236.000 180.000 C 235.780 180.000,235.600 179.764,235.600 179.475 C 235.600 179.187,235.240 178.564,234.800 178.092 C 234.360 177.620,234.000 177.125,234.000 176.993 C 234.000 175.826,224.270 166.035,223.083 166.007 C 222.909 166.003,222.380 165.640,221.908 165.200 C 221.436 164.760,220.813 164.400,220.525 164.400 C 220.236 164.400,220.000 164.220,220.000 164.000 C 220.000 163.780,219.640 163.600,219.200 163.600 C 218.760 163.600,218.400 163.420,218.400 163.200 C 218.400 162.980,218.055 162.800,217.633 162.800 C 217.212 162.800,216.807 162.665,216.733 162.499 C 216.559 162.105,211.518 160.400,210.527 160.400 C 210.105 160.400,209.589 160.237,209.380 160.037 C 208.591 159.283,196.778 158.561,195.400 159.183 M208.000 171.807 C 215.012 173.984,220.660 178.262,224.677 184.440 C 227.007 188.022,229.158 193.927,228.325 194.455 C 227.650 194.883,172.367 194.894,171.693 194.466 C 171.297 194.214,171.403 193.480,172.180 191.099 C 176.996 176.347,193.679 167.362,208.000 171.807 M146.624 287.724 C 145.276 288.551,144.000 289.940,144.000 290.582 C 144.000 290.922,143.820 291.200,143.600 291.200 C 143.345 291.200,143.200 294.459,143.200 300.176 C 143.200 305.729,143.353 309.247,143.600 309.400 C 143.820 309.536,144.000 309.915,144.000 310.242 C 144.000 311.023,145.793 312.800,146.582 312.800 C 146.922 312.800,147.200 312.980,147.200 313.200 C 147.200 313.817,148.641 313.673,149.200 313.000 C 149.474 312.670,150.181 312.400,150.771 312.400 C 151.474 312.400,152.317 311.911,153.222 310.978 L 154.600 309.556 154.600 300.400 L 154.600 291.244 153.222 289.822 C 152.463 289.040,151.463 288.400,150.998 288.400 C 150.533 288.400,149.804 288.136,149.376 287.813 C 148.445 287.108,147.667 287.083,146.624 287.724 " stroke="none" fill="#040404" fill-rule="evenodd"></path><path id="path4" d="M155.391 206.098 C 155.078 206.949,154.981 265.554,155.294 265.062 C 155.456 264.808,155.591 251.415,155.594 235.300 L 155.600 206.000 200.001 206.000 L 244.402 206.000 244.301 290.100 L 244.200 374.200 200.000 374.200 L 155.800 374.200 155.600 354.129 C 155.368 330.835,155.468 331.279,150.200 330.264 C 149.064 330.046,149.075 330.065,150.400 330.625 C 155.481 332.771,155.200 331.387,155.200 354.261 C 155.200 364.861,155.309 373.819,155.443 374.167 C 155.662 374.739,159.963 374.800,200.035 374.800 L 244.385 374.800 244.602 373.900 C 244.721 373.405,244.769 335.380,244.709 289.400 L 244.600 205.800 200.088 205.698 C 164.687 205.617,155.538 205.699,155.391 206.098 M152.200 268.027 C 151.540 268.450,150.550 268.811,150.000 268.829 C 149.450 268.848,149.246 268.961,149.546 269.080 C 150.247 269.359,153.076 268.432,153.655 267.734 C 154.275 266.986,153.619 267.119,152.200 268.027 M150.000 287.600 C 150.330 287.813,150.870 287.988,151.200 287.988 C 151.733 287.988,151.733 287.945,151.200 287.600 C 150.870 287.387,150.330 287.212,150.000 287.212 C 149.467 287.212,149.467 287.255,150.000 287.600 M152.995 288.867 C 154.967 290.419,155.200 291.639,155.200 300.427 C 155.200 309.401,154.925 310.648,152.632 312.046 C 151.954 312.459,151.670 312.792,152.000 312.786 C 156.469 312.702,157.545 291.790,153.249 288.520 C 152.892 288.248,152.441 288.020,152.246 288.013 C 152.051 288.006,152.388 288.390,152.995 288.867 M149.600 313.200 C 149.112 313.515,149.164 313.589,149.876 313.594 C 150.358 313.597,150.864 313.420,151.000 313.200 C 151.315 312.691,150.388 312.691,149.600 313.200 " stroke="none" fill="#bcc4cc" fill-rule="evenodd"></path></g></svg>